<svg id="Layer_1" data-name="Layer 1" xmlns="http://www.w3.org/2000/svg" xmlns:xlink="http://www.w3.org/1999/xlink" width="622.43023" height="413.93819" viewBox="0 0 622.43023 413.93819"><defs><linearGradient id="linear-gradient" x1="-3.44032" y1="385.81397" x2="250.25726" y2="188.80858" gradientUnits="userSpaceOnUse"><stop offset="0" stop-color="#fff"/><stop offset="0.12841" stop-color="#f8ffdf"/><stop offset="0.32549" stop-color="#efffb3"/><stop offset="0.51645" stop-color="#e7ff91"/><stop offset="0.69691" stop-color="#e2ff79"/><stop offset="0.86269" stop-color="#dfff6a"/><stop offset="1" stop-color="#deff65"/></linearGradient><linearGradient id="linear-gradient-2" x1="87.43308" y1="371.37116" x2="277.85205" y2="223.50391" gradientUnits="userSpaceOnUse"><stop offset="0" stop-color="#c8ff00"/><stop offset="0.13975" stop-color="#cdff17"/><stop offset="0.38197" stop-color="#d4ff39"/><stop offset="0.61257" stop-color="#daff51"/><stop offset="0.82444" stop-color="#ddff60"/><stop offset="1" stop-color="#deff65"/></linearGradient><linearGradient id="linear-gradient-3" x1="154.77796" y1="367.1789" x2="512.12887" y2="89.68294" gradientTransform="matrix(1.11404, 0.60459, -0.84557, 0.79654, 183.0506, -176.58363)" gradientUnits="userSpaceOnUse"><stop offset="0" stop-color="#c8ff00"/><stop offset="0.1534" stop-color="#afc52d"/><stop offset="0.31301" stop-color="#999056"/><stop offset="0.46974" stop-color="#866478"/><stop offset="0.6199" stop-color="#784293"/><stop offset="0.76178" stop-color="#6d2aa6"/><stop offset="0.89208" stop-color="#671bb1"/><stop offset="1" stop-color="#6516b5"/></linearGradient></defs><title>gd</title><path d="M250.23836,187.4626l0,0a22.17491,22.17491,0,0,1-3.91967,30.76821L18.32892,398.6977A9.66117,9.66117,0,0,1,4.688,397.0298h0a9.66117,9.66117,0,0,1,1.01989-12.93934L217.35007,184.70337A22.17491,22.17491,0,0,1,250.23836,187.4626Z" fill-rule="evenodd" fill="url(#linear-gradient)"/><path d="M105.61605,357.40236l107.65438-168.21a22.90415,22.90415,0,0,1,28.82248-8.48036l0,0a22.90415,22.90415,0,0,1,11.10571,30.7631l-86.63729,179.939a34.96024,34.96024,0,0,1-48.13,15.58491l-.00007,0A34.96025,34.96025,0,0,1,105.61605,357.40236Z" fill-rule="evenodd" fill="url(#linear-gradient-2)"/><path d="M81.78291,169.25077h559.8838A37.71828,37.71828,0,0,1,679.385,206.96906v.00008a37.71829,37.71829,0,0,1-37.71829,37.71829H81.78291a37.71829,37.71829,0,0,1-37.71829-37.71829v-.00008a37.71828,37.71828,0,0,1,37.71828-37.71828Z" transform="translate(-51.5341 260.80329) rotate(-37.199)" fill="url(#linear-gradient-3)"/></svg>