<svg id="Layer_1" data-name="Layer 1" xmlns="http://www.w3.org/2000/svg" width="816.44607" height="115.94593" viewBox="0 0 816.44607 115.94593"><title>gd</title><path d="M0,38.38427V3.87935A61.8564,61.8564,0,0,1,20.41039.49828c22.67689,0,37.266,9.51458,47.09788,22.99508L44.35546,41.412c-6.34275-7.76957-13.63823-13.00277-24.26235-13.00277A25.00608,25.00608,0,0,0,0,38.38427Zm68.30145,52.5043-23.1528-16.491c-6.66093,8.08684-13.47959,13.47868-25.05554,13.47868A24.94726,24.94726,0,0,1,0,78.003v34.75815a59.36356,59.36356,0,0,0,19.29993,3.18482C43.72092,115.94593,57.83505,105.3209,68.30145,90.88857Zm37.73374-19.34643h39.486V113.725h30.76465V2.7192H145.52122V44.26752h-39.486V2.7192H75.27054V113.725h30.76465ZM257.62929,1.926l47.25743,111.799H271.90207L263.973,93.744H220.99781l-7.92912,19.981H180.87723L227.97511,1.926ZM254.93337,69.799,242.56424,38.39977,230.03648,69.799ZM383.69468,61.393,338.02363,2.7192H309.32035V113.725h30.44737V52.83027L387.34151,113.725h26.80054V2.7192H383.69468Zm97.67757,9.99049h21.72507V84.864c-4.44,3.01228-10.14912,4.59865-17.761,4.59865-17.60233,0-30.1301-12.846-30.1301-30.92328v-.31727c0-16.96869,12.36913-30.28873,28.386-30.28873,11.10095,0,18.87143,3.80547,26.79963,10.4664l18.07824-21.88462C516.73555,6.366,502.93869.49828,483.43362.49828c-34.25284,0-59.62565,25.37281-59.62565,57.72383v.31727c0,33.61829,25.68917,57.40655,60.2602,57.40655A73.93833,73.93833,0,0,0,532.27651,98.66V48.86617H481.37225ZM579.539,2.22092h-30.7314V113.22673H579.539Zm88.32619,58.67382L622.1941,2.22092H593.49082V113.22673H623.9382V52.332L671.512,113.22673h26.80054V2.22092H667.86516Zm97.67666,9.99049h21.72507v13.4805c-4.44,3.01228-10.14912,4.59865-17.761,4.59865-17.60233,0-30.1301-12.846-30.1301-30.92328v-.31727c0-16.96869,12.36913-30.28873,28.386-30.28873,11.10095,0,18.87143,3.80547,26.79963,10.4664l18.07824-21.88462C800.90511,5.86775,787.10825,0,767.60318,0c-34.25284,0-59.62565,25.37281-59.62565,57.72383v.31727c0,33.61829,25.68917,57.40655,60.2602,57.40655a73.93833,73.93833,0,0,0,48.20834-17.286V48.36789H765.54181Z" fill="#fff"/></svg>