<svg id="Layer_1" data-name="Layer 1" xmlns="http://www.w3.org/2000/svg" width="31.79867" height="31.79867" viewBox="0 0 31.79867 31.79867"><title>gd</title><path d="M31.79867,15.89934A15.89934,15.89934,0,1,1,15.89934,0,15.89934,15.89934,0,0,1,31.79867,15.89934Zm-21.57786-.99089V10.033a.96983.96983,0,0,0-.967-.967H8.65127a.96983.96983,0,0,0-.967.967v4.87544a.96983.96983,0,0,0,.967.967h.60256A.96983.96983,0,0,0,10.22081,14.90844Zm12.9266.967h-.60256a.96983.96983,0,0,1-.967-.967V10.033a.96983.96983,0,0,1,.967-.967h.60256a.96983.96983,0,0,1,.967.967v4.87543A.96983.96983,0,0,1,23.14741,15.87543ZM9.5103,21.59381a1.51228,1.51228,0,0,0-1.07351,2.57646,10.54214,10.54214,0,0,0,14.925,0,1.51228,1.51228,0,0,0-1.07352-2.57646Z" fill="#fff" fill-rule="evenodd"/></svg>