<svg id="Layer_1" data-name="Layer 1" xmlns="http://www.w3.org/2000/svg" xmlns:xlink="http://www.w3.org/1999/xlink" width="296.13949" height="245.32086" viewBox="0 0 296.13949 245.32086"><defs><linearGradient id="linear-gradient" x1="276.03142" y1="16.38525" x2="289.53142" y2="24.05192" gradientUnits="userSpaceOnUse"><stop offset="0" stop-color="#c8ff00"/><stop offset="0.10183" stop-color="#afc52d"/><stop offset="0.20779" stop-color="#999056"/><stop offset="0.31183" stop-color="#866478"/><stop offset="0.41151" stop-color="#784293"/><stop offset="0.50569" stop-color="#6d2aa6"/><stop offset="0.59219" stop-color="#671bb1"/><stop offset="0.66383" stop-color="#6516b5"/></linearGradient><linearGradient id="linear-gradient-2" x1="201.4174" y1="46.62098" x2="198.6674" y2="74.53765" xlink:href="#linear-gradient"/><linearGradient id="linear-gradient-3" x1="242.82919" y1="35.78402" x2="254.16252" y2="55.28402" xlink:href="#linear-gradient"/><linearGradient id="linear-gradient-4" x1="5477.47727" y1="-1646.2531" x2="5492.52318" y2="-1635.36461" gradientTransform="matrix(-0.75806, 0.65219, 0.65219, 0.75806, 5331.01212, -2134.08256)" xlink:href="#linear-gradient"/><linearGradient id="linear-gradient-5" x1="145.36377" y1="179.45982" x2="142.36377" y2="239.95982" xlink:href="#linear-gradient"/><linearGradient id="linear-gradient-6" x1="5350.26486" y1="4998.98198" x2="5377.71889" y2="5035.58735" gradientTransform="matrix(-0.66684, 0.7452, 0.7452, 0.66684, -30.35339, -7120.93911)" xlink:href="#linear-gradient"/><linearGradient id="linear-gradient-7" x1="11977.00955" y1="1659.04761" x2="11991.46048" y2="1669.50552" gradientTransform="matrix(0.28176, 0.95948, 0.95948, -0.28176, -4784.34005, -10870.03617)" xlink:href="#linear-gradient"/><linearGradient id="linear-gradient-8" x1="7061.06853" y1="1535.48218" x2="7099.27907" y2="1589.86649" gradientTransform="matrix(-0.85328, 0.75949, 0.58582, 0.65052, 5279.66684, -6306.42604)" gradientUnits="userSpaceOnUse"><stop offset="0" stop-color="#c8ff00"/><stop offset="0.03554" stop-color="#c1ee0d"/><stop offset="0.20145" stop-color="#a1a248"/><stop offset="0.34966" stop-color="#876677"/><stop offset="0.47478" stop-color="#753b99"/><stop offset="0.5719" stop-color="#6920ad"/><stop offset="0.62923" stop-color="#6516b5"/></linearGradient><linearGradient id="linear-gradient-9" x1="11810.94377" y1="2378.13843" x2="11775.86594" y2="2378.39971" gradientTransform="translate(-11592.78663 -2348.26598)" gradientUnits="userSpaceOnUse"><stop offset="0" stop-color="#c8ff00"/><stop offset="0.47056" stop-color="#6516b5"/></linearGradient><linearGradient id="linear-gradient-10" x1="-616.60147" y1="-2195.79288" x2="-603.7089" y2="-2164.12691" gradientTransform="translate(2134.5363 1117.01542) rotate(-46.84234)" xlink:href="#linear-gradient"/><linearGradient id="linear-gradient-11" x1="182.7836" y1="112.24106" x2="173.7836" y2="144.90773" gradientTransform="translate(46.96994 308.18033) rotate(-89.94221)" xlink:href="#linear-gradient"/></defs><title>gd</title><path d="M265.61434,18.24545,288.78247.4238a2.04325,2.04325,0,0,1,2.84127.34309h0a2.04325,2.04325,0,0,1-.33218,2.88233l-8.60816,7.049,4.17407-1.682a3.88163,3.88163,0,0,1,3.571.13755l4.4418,2.52474a2.29612,2.29612,0,0,1,1.2561,2.29826l-.25328,2.36413-.20765,1.31511a2.29612,2.29612,0,0,1-3.01639,1.81263l-5.02833-1.71707L264.97963,34.75Z" fill="url(#linear-gradient)"/><path d="M162.22032,58.60646l.02718,2.818a9.0418,9.0418,0,0,0,9.10184,8.92792l55.47875-.51587c4.95819-.04783,11.2827-4.14366,11.23486-9.10184l-.02719-2.818c-.04783-4.95818-6.45061-8.97575-11.40879-8.92792H171.14824C166.19006,49.03658,162.1725,53.64827,162.22032,58.60646Z" fill-rule="evenodd" fill="url(#linear-gradient-2)"/><path d="M275.64855,34.97922l-5.23168-20.405L222.25745,51.95611a9.76067,9.76067,0,0,0-1.94832,13.62461v0a9.76067,9.76067,0,0,0,13.62461,1.94832Z" fill-rule="evenodd" fill="url(#linear-gradient-3)"/><path d="M187.69043,48.98875,174.30717,82.448H183.491c10.505,0,29.44776-18.03964,34.806-33.14661v-.31265Z" fill="#c8ff00" fill-rule="evenodd"/><path d="M137.24525,123.78227h1.81252a11.39866,11.39866,0,0,1,11.39866,11.39866v91.49921a11.39866,11.39866,0,0,1-11.39866,11.39866h-1.81252a11.39865,11.39865,0,0,1-11.39865-11.39865V135.18092A11.39865,11.39865,0,0,1,137.24525,123.78227Z" transform="translate(317.0399 321.71636) rotate(165.56682)" fill="#6516b5"/><path d="M72.49363,176.79091,35.11415,159.69779,2.65082,181.91447l1.75333,2.44671a14.21973,14.21973,0,0,0,18.19068,4.29547l7.0463-4.01543c6.6492-3.2917,11.90726-2.18977,19.87473,1.45365C54.47283,188.36163,72.49363,176.79091,72.49363,176.79091Z" fill="#6516b5" fill-rule="evenodd"/><path d="M4.92072,186.15734,38.61187,162.1888a3.05937,3.05937,0,0,0-.5012-5.27516h0a3.05937,3.05937,0,0,0-3.03664.2829L1.29528,181.04148a3.05937,3.05937,0,0,0-.73171,4.26841l.0876.12361A3.05937,3.05937,0,0,0,4.92072,186.15734Z" fill="#6516b5" fill-rule="evenodd"/><path d="M158.46176,230.15794v0a12.34108,12.34108,0,0,0-5.99082-16.338L64.73987,172.8661,42.18372,189.612l99.94,46.53676A12.34108,12.34108,0,0,0,158.46176,230.15794Z" fill-rule="evenodd" fill="url(#linear-gradient-4)"/><path d="M158.23,176.66637l-31.26507,26.562,6.86119,38.73464,2.95189-.589a14.21973,14.21973,0,0,0,11.41135-14.80314l-.75418-8.075c-.25846-7.41487,6.52463-16.07206,13.12814-21.82955C164.67175,193.08434,158.23,176.66637,158.23,176.66637Z" fill-rule="evenodd" fill="url(#linear-gradient-5)"/><path d="M138.62744,241.64371l-7.95124-40.57539a3.05937,3.05937,0,0,0-5.01281-1.71764h0a3.05937,3.05937,0,0,0-.99387,2.8833l7.80252,40.60425a3.05937,3.05937,0,0,0,3.58738,2.426l.14873-.02887A3.05937,3.05937,0,0,0,138.62744,241.64371Z" fill-rule="evenodd" fill="url(#linear-gradient-6)"/><path d="M238.00184,122.88789l0,0A12.34108,12.34108,0,0,0,220.6469,121.612l-69.47367,60.71881,5.96022,27.45326L236.726,140.24282A12.34108,12.34108,0,0,0,238.00184,122.88789Z" fill-rule="evenodd" fill="url(#linear-gradient-7)"/><path d="M140.563,142.66667l-5,.66667c-9.04871.40437-17.37906.18857-20.84359-6.83279a18.75872,18.75872,0,0,1-.77441-14.26363l18.69393-53.58418a21.08485,21.08485,0,0,0,.79551-3.31765c1.52064-9.25583,10.8415-16.54609,19.94835-16.34633l29.96331-.00049c9.20437.20189,13.68793,8.999,9.41716,18.47713L165.5763,125.01755C159.9347,137.538,152.93579,142.11375,140.563,142.66667Z" fill-rule="evenodd" fill="url(#linear-gradient-8)"/><polygon points="217.288 23.944 222.392 34.931 214.386 35.912 217.288 23.944" fill="#c8ff00" fill-rule="evenodd"/><circle cx="203.7847" cy="29.9795" r="14.85" transform="translate(-1.73728 43.6795) rotate(-12.18263)" fill="url(#linear-gradient-9)"/><rect x="209.68758" y="23.31484" width="2.15562" height="4.50721" rx="0.99843" ry="0.99843" transform="translate(-0.64921 45.05331) rotate(-12.18263)" fill="#6516b5"/><path d="M158.96989,3.31642H172.318c16.64926,0,34.231,1.119,42.53665,15.54858v0H138.11412Z" fill="#c8ff00" fill-rule="evenodd"/><polygon points="196.985 21.55 190.608 36.987 182.89 20.878 196.985 21.55" fill="#c8ff00" fill-rule="evenodd"/><polygon points="216.617 22.416 183.729 22.416 181.715 18.389 214.603 18.389 216.617 22.416" fill="#6516b5" fill-rule="evenodd"/><path d="M145.76547,29.10041l1.34249-4.02706c9.6603,0,13.711-1.889,20.22485-3.71638,5.49231-1.5403,10.68017-2.99539,16.85743-2.99539v4.02706c-5.62308,0-10.32525,1.31876-15.76972,2.84595C161.95978,27.04689,155.98,29.10041,145.76547,29.10041Z" fill="#6516b5"/><rect x="114.50276" y="34.19492" width="19.46414" height="71.51163" rx="9.0153" ry="9.0153" transform="matrix(0.39067, 0.92053, -0.92053, 0.39067, 140.09198, -71.73889)" fill="url(#linear-gradient-10)"/><path d="M51.40771,105.66542l3.91735,15.487.19507.77119,1.11831,4.42119,46.85088-37.05712a9.76067,9.76067,0,0,0,1.59561-13.67041v0a9.76067,9.76067,0,0,0-13.67041-1.59561Z" fill="#6516b5" fill-rule="evenodd"/><path d="M59.02961,120.78623l-5.48349,4.33722h0a6.76741,6.76741,0,0,1-2.24373,6.06961l-1.94846,1.70279-.69123-2.94758-6.11709,4.44663a2.61907,2.61907,0,0,1-4.16467-1.41506L36.056,123.7406a2.61907,2.61907,0,0,1,.91512-2.69331l19.70622-15.58681,3.20209,14.8675Z" fill="#6516b5" fill-rule="evenodd"/><path d="M168.35981,41.42547,153.45416,74.88515h-14.879a22.69443,22.69443,0,0,1-20.14421-33.14661l0,0Z" fill="#c8ff00" fill-rule="evenodd"/><path d="M158.85137,62.84749h-5.61621L141.06524,89.443h.0166c-3.48389,6.08887-10.07617,9.64038-19.43555,9.64038l-1.75,5.125c11.88232,0,22.9375-5.5,27.3125-15.8125l-.04785-.001Z" fill="#c8ff00"/><path d="M177.73061,67.08113h0a12.3049,12.3049,0,0,1,12.3049,12.3049V181.777a12.3049,12.3049,0,0,1-12.3049,12.3049h0a12.3049,12.3049,0,0,1-12.3049-12.3049V79.386a12.30491,12.30491,0,0,1,12.30491-12.30491Z" transform="translate(308.1328 -47.28073) rotate(89.94221)" fill="url(#linear-gradient-11)"/></svg>