<svg id="Layer_1" data-name="Layer 1" xmlns="http://www.w3.org/2000/svg" xmlns:xlink="http://www.w3.org/1999/xlink" width="302.34311" height="263.97129" viewBox="0 0 302.34311 263.97129"><defs><linearGradient id="linear-gradient" x1="184.84355" y1="121.08699" x2="343.24139" y2="133.16818" gradientUnits="userSpaceOnUse"><stop offset="0" stop-color="#c8ff00"/><stop offset="0.10183" stop-color="#afc52d"/><stop offset="0.20779" stop-color="#999056"/><stop offset="0.31183" stop-color="#866478"/><stop offset="0.41151" stop-color="#784293"/><stop offset="0.50569" stop-color="#6d2aa6"/><stop offset="0.59219" stop-color="#671bb1"/><stop offset="0.66383" stop-color="#6516b5"/></linearGradient><linearGradient id="linear-gradient-2" x1="277.07395" y1="160.55465" x2="270.13846" y2="192.77116" xlink:href="#linear-gradient"/><linearGradient id="linear-gradient-3" x1="300.3038" y1="149.59158" x2="276.14142" y2="190.64526" xlink:href="#linear-gradient"/><linearGradient id="linear-gradient-4" x1="169.91381" y1="162.97729" x2="169.91381" y2="186.80645" xlink:href="#linear-gradient"/><linearGradient id="linear-gradient-5" x1="3294.96139" y1="102.78282" x2="3276.18298" y2="127.82071" gradientTransform="matrix(0.83239, 0.41877, -0.55418, 0.629, -2524.3575, -1319.89572)" xlink:href="#linear-gradient"/><linearGradient id="linear-gradient-6" x1="2650.56895" y1="-1531.80908" x2="2671.23221" y2="-1529.94939" gradientTransform="matrix(0, -1, -1, 0, -1342.2543, 2809.08246)" xlink:href="#linear-gradient"/><radialGradient id="radial-gradient" cx="102.57477" cy="102.57477" r="93.01192" gradientUnits="userSpaceOnUse"><stop offset="0" stop-color="#c8ff00"/><stop offset="0.11858" stop-color="#c8ff00" stop-opacity="0.8466"/><stop offset="0.3648" stop-color="#c8ff00" stop-opacity="0.54951"/><stop offset="0.58487" stop-color="#c8ff00" stop-opacity="0.31352"/><stop offset="0.77067" stop-color="#c8ff00" stop-opacity="0.14331"/><stop offset="0.91488" stop-color="#c8ff00" stop-opacity="0.03876"/><stop offset="1" stop-color="#c8ff00" stop-opacity="0"/></radialGradient><linearGradient id="linear-gradient-7" x1="1222.50423" y1="3756.849" x2="1197.89439" y2="3756.849" gradientTransform="matrix(1, 0, 0, -0.80066, -1094.6063, 3213.34217)" xlink:href="#linear-gradient"/><linearGradient id="linear-gradient-8" x1="1807.43749" y1="665.92694" x2="1834.15334" y2="707.90901" gradientTransform="matrix(-0.99235, 0.12346, 0.12346, 0.99235, 1758.27048, -666.94198)" xlink:href="#linear-gradient"/><linearGradient id="linear-gradient-9" x1="1828.12953" y1="669.55117" x2="1855.58356" y2="706.15654" gradientTransform="matrix(-0.99235, 0.12346, 0.12346, 0.99235, 1758.27048, -666.94198)" xlink:href="#linear-gradient"/><linearGradient id="linear-gradient-10" x1="5282.57887" y1="1844.66937" x2="5297.62478" y2="1855.55786" gradientTransform="matrix(-0.41817, 0.90837, 0.90837, 0.41817, 634.06921, -5345.35294)" xlink:href="#linear-gradient"/><linearGradient id="linear-gradient-11" x1="4927.55924" y1="2447.95048" x2="4965.94767" y2="2502.58798" gradientTransform="matrix(-0.85328, 0.75949, 0.58582, 0.65052, 2874.58196, -5235.91199)" gradientUnits="userSpaceOnUse"><stop offset="0" stop-color="#c8ff00"/><stop offset="0.03554" stop-color="#c1ee0d"/><stop offset="0.20145" stop-color="#a1a248"/><stop offset="0.34966" stop-color="#876677"/><stop offset="0.47478" stop-color="#753b99"/><stop offset="0.5719" stop-color="#6920ad"/><stop offset="0.62923" stop-color="#6516b5"/></linearGradient><linearGradient id="linear-gradient-12" x1="11893.6357" y1="2660.41165" x2="11858.55786" y2="2660.67294" gradientTransform="translate(-11722.52711 -2576.70062)" gradientUnits="userSpaceOnUse"><stop offset="0" stop-color="#c8ff00"/><stop offset="0.47056" stop-color="#6516b5"/></linearGradient><linearGradient id="linear-gradient-13" x1="68.8322" y1="112.67608" x2="81.72477" y2="144.34205" gradientTransform="translate(-68.33197 93.8639) rotate(-46.84234)" xlink:href="#linear-gradient"/><linearGradient id="linear-gradient-14" x1="221.33844" y1="145.3682" x2="270.33439" y2="189.49811" xlink:href="#linear-gradient"/><linearGradient id="linear-gradient-15" x1="183.56676" y1="135.19115" x2="315.09907" y2="145.22328" xlink:href="#linear-gradient"/><linearGradient id="linear-gradient-16" x1="227.62397" y1="147.42835" x2="207.87692" y2="147.42835" xlink:href="#linear-gradient"/><linearGradient id="linear-gradient-17" x1="-2099.90995" y1="-483.4718" x2="-2078.6057" y2="-481.55442" gradientTransform="matrix(0, -1, -1, 0, -401.88764, -1944.80457)" xlink:href="#linear-gradient"/><linearGradient id="linear-gradient-18" x1="118.26615" y1="150.74361" x2="116.87715" y2="135.31034" xlink:href="#linear-gradient"/><linearGradient id="linear-gradient-19" x1="139.37162" y1="117.55463" x2="295.08619" y2="116.04447" xlink:href="#linear-gradient"/><linearGradient id="linear-gradient-20" x1="138.86824" y1="122.9326" x2="294.58281" y2="121.42244" xlink:href="#linear-gradient"/></defs><title>gd</title><path d="M129.32042,98.99145,119.161,125.92271H131.137c13.69876,0,34.46864-14.51987,38.16323-26.67927v0Z" fill="#c8ff00" fill-rule="evenodd"/><polygon points="290.023 131.768 222.249 131.768 227.205 121.588 294.041 121.588 290.023 131.768" fill-rule="evenodd" fill="url(#linear-gradient)"/><path d="M185.78725,110.28987l11.89043-8.18685a6.85917,6.85917,0,0,1,3.88985-1.20963H265.877a2.1406,2.1406,0,0,1,1.99341,2.92063l-2.88421,7.37076" fill="none" stroke="#c8ff00" stroke-miterlimit="10" stroke-width="5" fill-rule="evenodd"/><path d="M252.42329,186.62595h27.67743L300.3845,152.9211l-2.612-1.49595a14.21973,14.21973,0,0,0-18.32941,3.6585l-4.73819,6.58206c-4.678,5.75874-9.91811,6.94327-18.6791,6.94327C250.57509,168.609,252.42329,186.62595,252.42329,186.62595Z" fill-rule="evenodd" fill="url(#linear-gradient-2)"/><path d="M296.50137,150.02479l-22.43355,37.78755a3.14064,3.14064,0,0,0,1.1635,4.34207l.00193.00108a3.14064,3.14064,0,0,0,4.23774-1.13566l22.43162-37.78863a3.14064,3.14064,0,0,0-1.12562-4.32028h0A3.14064,3.14064,0,0,0,296.50137,150.02479Z" fill-rule="evenodd" fill="url(#linear-gradient-3)"/><path d="M266.55165,162.5959l-180.97082-.03417a12.3049,12.3049,0,0,0,0,24.60981l167.54593-.03417Z" fill-rule="evenodd" fill="url(#linear-gradient-4)"/><path d="M147.8172,92.2623h1.43354a9.0153,9.0153,0,0,1,9.0153,9.0153v53.481a9.0153,9.0153,0,0,1-9.0153,9.0153H147.8172a9.01531,9.01531,0,0,1-9.01531-9.01531v-53.481A9.0153,9.0153,0,0,1,147.8172,92.2623Z" transform="translate(-47.44857 134.48519) rotate(-42.64729)" fill="url(#linear-gradient-5)"/><path d="M210.45725,157.19356l8.05493-19.46414H167.50366a9.76067,9.76067,0,0,0-9.73206,9.73206v0a9.76067,9.76067,0,0,0,9.73206,9.73206Z" fill-rule="evenodd" fill="url(#linear-gradient-6)"/><circle cx="102.57477" cy="102.57477" r="102.57477" fill="url(#radial-gradient)"/><path d="M114.68742,142.1753h1.81252A11.39866,11.39866,0,0,1,127.8986,153.574V257.17717a11.39866,11.39866,0,0,1-11.39866,11.39866h-1.81252a11.39865,11.39865,0,0,1-11.39865-11.39865V153.574a11.39865,11.39865,0,0,1,11.39865-11.39865Z" transform="translate(346.40665 252.9822) rotate(131.02676)" fill="url(#linear-gradient-7)"/><path d="M65.402,225.82152H24.29965L4.01588,259.52637l2.612,1.49595a14.21973,14.21973,0,0,0,18.32941-3.6585l4.73819-6.58206c4.678-5.75874,9.91811-6.94327,18.6791-6.94327C53.82528,243.83849,65.402,225.82152,65.402,225.82152Z" fill-rule="evenodd" fill="url(#linear-gradient-8)"/><path d="M7.84465,262.441l20.67184-35.80865a3.05937,3.05937,0,0,0-2.64957-4.58893h0A3.05937,3.05937,0,0,0,23.223,223.5635L2.42006,259.29617a3.05937,3.05937,0,0,0,1.10966,4.18609l.13107.076A3.05937,3.05937,0,0,0,7.84465,262.441Z" fill-rule="evenodd" fill="url(#linear-gradient-9)"/><path d="M165.77716,238.6035v0a12.34108,12.34108,0,0,0-12.24266-12.36683l-96.8162-.7599L43.16924,250.08626l110.24108.7599A12.34108,12.34108,0,0,0,165.77716,238.6035Z" fill-rule="evenodd" fill="url(#linear-gradient-10)"/><path d="M85.75552,188.18662h0c-9.04871.40437-16.62033-3.82743-20.08486-10.8488a18.75872,18.75872,0,0,1-.77441-14.26363l16.69373-49.58378a21.08484,21.08484,0,0,0,.79551-3.31765c1.52064-9.25583,10.8415-17.52773,19.94835-17.328l29.96331.98115c9.20437.20189,13.68793,8.999,9.41716,18.47713l-25.18673,53.55177C110.88595,178.3753,98.12835,187.63371,85.75552,188.18662Z" fill-rule="evenodd" fill="url(#linear-gradient-11)"/><polygon points="170.24 77.783 175.344 88.769 167.337 89.75 170.24 77.783" fill="#c8ff00" fill-rule="evenodd"/><circle cx="156.73615" cy="83.81809" r="14.85" transform="translate(-14.15829 34.96337) rotate(-12.18263)" fill="url(#linear-gradient-12)"/><rect x="162.63903" y="77.15343" width="2.15562" height="4.50721" rx="0.99843" ry="0.99843" transform="translate(-13.07023 36.33717) rotate(-12.18263)" fill="#6516b5"/><path d="M100.92023,57.155h24.3492c16.64926,0,34.231,1.119,42.53665,15.54858v0H95.066Z" fill="#c8ff00" fill-rule="evenodd"/><polygon points="149.936 75.388 143.56 90.825 135.841 74.717 149.936 75.388" fill="#c8ff00" fill-rule="evenodd"/><polygon points="169.568 76.255 136.68 76.255 134.666 72.228 167.554 72.228 169.568 76.255" fill="#6516b5" fill-rule="evenodd"/><path d="M98.71692,82.939l1.34249-4.02706c9.6603,0,13.711-1.889,20.22485-3.71638,5.49231-1.5403,10.68017-2.99539,16.85743-2.99539v4.02706c-5.62308,0-10.32525,1.31876-15.76972,2.84595C114.91123,80.88548,108.9314,82.939,98.71692,82.939Z" fill="#6516b5"/><rect x="64.44544" y="90.04911" width="19.46414" height="71.51163" rx="9.0153" ry="9.0153" transform="translate(115.21093 -14.35727) rotate(46.84234)" fill="url(#linear-gradient-13)"/><polygon points="273.936 133.557 104.128 133.557 116.545 108.052 284.004 108.052 273.936 133.557" fill-rule="evenodd" fill="url(#linear-gradient-14)"/><polygon points="221.584 159.061 209.503 159.061 221.137 131.767 233.218 131.767 221.584 159.061" fill="#c8ff00" fill-rule="evenodd"/><polygon points="123.592 153.692 113.525 153.692 133.213 108.276 143.28 108.276 123.592 153.692" fill-rule="evenodd" fill="url(#linear-gradient-15)"/><path d="M232.04255,144.40805l-5.36935,12.75237h-8.16329a1.80379,1.80379,0,0,1-1.64258-2.54916l4.37751-9.64674a1.80026,1.80026,0,0,1,1.735-1.05607C225.71654,144.05266,232.04255,144.40805,232.04255,144.40805Zm-12.124-6.71177h-9.01809v5.31241h9.01809a2.6562,2.6562,0,0,0,2.42959-1.58266h0A2.6562,2.6562,0,0,0,219.91855,137.69628Z" fill-rule="evenodd" fill="url(#linear-gradient-16)"/><path d="M106.15036,153.4731l6.53513-14.57691.32542-.72587,1.86563-4.16137H55.14184a9.76067,9.76067,0,0,0-9.73206,9.73206v0a9.76067,9.76067,0,0,0,9.73206,9.73206Z" fill-rule="evenodd" fill="url(#linear-gradient-17)"/><path d="M109.55276,136.88527h6.99143l1.84574-3.18809h3.9152l-1.28642,2.74064h9.905a2.61907,2.61907,0,0,1,2.38857,3.69345l-3.90821,8.68878a2.61907,2.61907,0,0,1-2.38857,1.5447H101.89015l6.71177-13.64727Z" fill-rule="evenodd" fill="url(#linear-gradient-18)"/><path d="M132.20493,138.703h9.46547a13.19393,13.19393,0,0,0,8.0868-2.76879l8.39993-6.51583" fill="none" stroke="#c8ff00" stroke-miterlimit="10" stroke-width="5" fill-rule="evenodd"/><path d="M137.35062,117.79305l1.34235-1.966h130.2084L272.25726,118S137.60231,117.63784,137.35062,117.79305Z" fill-rule="evenodd" fill="url(#linear-gradient-19)"/><path d="M136.84724,123.171l1.34235-1.966H268.398l3.35589,2.17291S137.09893,123.01581,136.84724,123.171Z" fill-rule="evenodd" fill="url(#linear-gradient-20)"/><path d="M113.56075,86.26316,98.6551,119.72284h-14.879A22.69443,22.69443,0,0,1,63.63188,86.57623l0,0Z" fill="#c8ff00" fill-rule="evenodd"/><polygon points="86.266 134.281 91.883 134.281 104.052 107.685 98.436 107.685 86.266 134.281" fill="#c8ff00" fill-rule="evenodd"/></svg>