<svg id="Layer_1" data-name="Layer 1" xmlns="http://www.w3.org/2000/svg" width="445.45008" height="115.43944" viewBox="0 0 445.45008 115.43944"><title>gd</title><path d="M57.56168,48.36387h50.90188V98.15521a73.92615,73.92615,0,0,1-48.20584,17.28422C25.68928,115.43944,0,91.65516,0,58.03665v-.31607C0,25.37149,25.37149,0,59.62387,0c19.50358,0,33.299,5.86619,45.034,16.01479l-18.077,21.88442c-7.92924-6.66152-15.69872-10.46639-26.799-10.46639-16.01565,0-28.38447,13.3196-28.38447,30.28776v.31607c0,18.07783,12.52771,30.92162,30.12886,30.92162,7.61145,0,13.32046-1.5855,17.76-4.59848V70.88215H57.56168ZM187.27323,1.42747l47.25419,111.79261H201.54448L193.6161,93.24067H150.64346l-7.92924,19.97941H110.52489L157.62019,1.42747Zm-2.696,67.86746L172.20837,37.89921,159.68152,69.29493Zm113.379-24.10206L271.475,2.21936H238.967V113.22008h30.12886V49.63331l28.22557,43.28957h.63472l28.38447-43.44933v63.74652h30.60383V2.21936H324.43733ZM400.70985,87.055V69.45468h44.74023V45.19287H400.70985V28.22471h44.74023V2.21936h-75.186V113.22008h75.186V87.055Z" fill="#fff"/></svg>