<svg id="Layer_1" data-name="Layer 1" xmlns="http://www.w3.org/2000/svg" xmlns:xlink="http://www.w3.org/1999/xlink" width="610.9795" height="319.53897" viewBox="0 0 610.9795 319.53897"><defs><linearGradient id="linear-gradient" x1="2171.24601" y1="2574.62301" x2="2131.98823" y2="2573.83153" gradientTransform="matrix(0.64795, -0.76168, 0.76168, 0.64795, -2772.22725, 39.21235)" gradientUnits="userSpaceOnUse"><stop offset="0" stop-color="#c9ff00"/><stop offset="0.13777" stop-color="#b7d422"/><stop offset="0.37077" stop-color="#9a9156"/><stop offset="0.58193" stop-color="#835c7f"/><stop offset="0.76377" stop-color="#73369d"/><stop offset="0.9092" stop-color="#691faf"/><stop offset="1" stop-color="#6516b6"/></linearGradient><linearGradient id="linear-gradient-2" x1="791.91282" y1="50.15627" x2="795.00886" y2="50.15627" gradientTransform="matrix(-1, 0, 0, 1, 1203.36937, 0)" gradientUnits="userSpaceOnUse"><stop offset="0" stop-color="#c9ff00"/><stop offset="0.03554" stop-color="#c2ee0d"/><stop offset="0.20145" stop-color="#a1a249"/><stop offset="0.34966" stop-color="#876678"/><stop offset="0.47478" stop-color="#753b99"/><stop offset="0.5719" stop-color="#6920ae"/><stop offset="0.62923" stop-color="#6516b6"/></linearGradient><linearGradient id="linear-gradient-3" x1="706.99286" y1="50.6719" x2="738.04286" y2="50.6719" gradientTransform="matrix(-0.97097, -0.2392, -0.2392, 0.97097, 1194.31735, 175.92987)" xlink:href="#linear-gradient-2"/><linearGradient id="linear-gradient-4" x1="791.91282" y1="43.49611" x2="795.00886" y2="43.49611" xlink:href="#linear-gradient-2"/><linearGradient id="linear-gradient-5" x1="791.91282" y1="35.7711" x2="795.00886" y2="35.7711" xlink:href="#linear-gradient-2"/><linearGradient id="linear-gradient-6" x1="786.25178" y1="62.8867" x2="810.31244" y2="100.39302" xlink:href="#linear-gradient-2"/><linearGradient id="linear-gradient-7" x1="701.91105" y1="108.48884" x2="721.13364" y2="122.19383" gradientTransform="matrix(-0.70833, -0.70588, -0.70588, 0.70833, 1077.51246, 537.00009)" gradientUnits="userSpaceOnUse"><stop offset="0" stop-color="#c9ff00"/><stop offset="0.10183" stop-color="#b0c52d"/><stop offset="0.20779" stop-color="#999056"/><stop offset="0.31183" stop-color="#876479"/><stop offset="0.41151" stop-color="#784293"/><stop offset="0.50569" stop-color="#6e2aa6"/><stop offset="0.59219" stop-color="#671bb2"/><stop offset="0.66383" stop-color="#6516b6"/></linearGradient><linearGradient id="linear-gradient-8" x1="653.31098" y1="114.75018" x2="724.9622" y2="89.62803" gradientTransform="matrix(-1, 0, 0, 1, 1203.36937, 0)" xlink:href="#linear-gradient-7"/><linearGradient id="linear-gradient-9" x1="776.29288" y1="236.02914" x2="794.33837" y2="213.73765" gradientTransform="matrix(-1, 0, 0, 1, 1203.36937, 0)" gradientUnits="userSpaceOnUse"><stop offset="0" stop-color="#c9ff00"/><stop offset="0.1534" stop-color="#b0c52d"/><stop offset="0.31301" stop-color="#999056"/><stop offset="0.46974" stop-color="#876479"/><stop offset="0.6199" stop-color="#784293"/><stop offset="0.76178" stop-color="#6e2aa6"/><stop offset="0.89208" stop-color="#671bb2"/><stop offset="1" stop-color="#6516b6"/></linearGradient><linearGradient id="linear-gradient-10" x1="790.52935" y1="174.2237" x2="845.49996" y2="215.85193" gradientTransform="matrix(0.02261, 0.99974, 0.99974, -0.02261, 198.34695, -615.00665)" xlink:href="#linear-gradient-7"/></defs><title>gd</title><path d="M590.00666,47.64921l9.44484,8.03457a3.95743,3.95743,0,0,1,.45009,5.57853h0a3.95743,3.95743,0,0,1-5.57853.45009l-3.01431-2.56422,1.29118,8.58012-12.38536,6.09007-4.7967-9.34539Z" fill-rule="evenodd" fill="url(#linear-gradient)"/><path d="M591.31106,44.22265h0a3.68052,3.68052,0,0,1,.41859,5.18819L582.73,59.99021l2.695,6.72621L598.91,59.7609a3.92776,3.92776,0,0,1,5.32056,1.74815h0a3.92776,3.92776,0,0,1-1.679,5.21218L572.27246,82.78807l-5.74365,6.75182,2.48-24.48411,17.11407-20.41452A3.68052,3.68052,0,0,1,591.31106,44.22265Z" fill="#c9ff00" fill-rule="evenodd"/><rect x="585.0421" y="39.88767" width="26.50514" height="6.96509" rx="3.48254" ry="3.48254" transform="translate(20.15373 203.34065) rotate(-19.61276)" fill="#c9ff00"/><path d="M346.97614,226.47825l-59.09639,26.84962L260.3082,317.35164h0a25.47575,25.47575,0,0,0,33.60819-12.98142l9.10726-20.57053a19.95056,19.95056,0,0,1,9.96406-10.07525l43.04539-19.63179Z" fill="#6516b6" fill-rule="evenodd"/><path d="M109.58338,181.7497,74.68564,159.48,0,176.70089a29.06854,29.06854,0,0,0,32.94928,19.13462l18.7205-3.57251a19.57852,19.57852,0,0,1,14.20212,2.72712l28.93558,18.465Z" fill="#6516b6" fill-rule="evenodd"/><polygon points="495.109 40.63 503.68 57.765 491.068 59.682 495.109 40.63" fill-rule="evenodd" fill="url(#linear-gradient-2)"/><circle cx="474.03717" cy="50.6719" r="23.486" transform="translate(1.64066 114.8624) rotate(-13.83954)" fill="url(#linear-gradient-3)"/><rect x="483.16653" y="39.93192" width="3.40922" height="7.12837" rx="1.60585" ry="1.60585" fill="url(#linear-gradient-4)"/><path d="M458.34794,52.2283a25.40941,25.40941,0,0,1,28.81894-20.72562c-6.0463-8.42938-15.834-11.37435-27.49361-13.41967-13.05686-2.29042-16.82,3.633-29.87721,1.34257-13.05783-2.29059-12.128-7.591-25.18588-9.88157-13.05977-2.29093-13.98956,3.00946-27.049.71858C366.09274,8.25081,358.75795.22992,349.754,0V51.62782c9.41284,5.65277,10.026,6.19516,22.26759,8.34257,13.05719,2.29048,13.987-3.00991,27.04416-.71943,13.05783,2.29059,12.128,7.591,25.18588,9.88157,13.05945,2.29087,13.98924-3.00951,27.04869-.71864a70.18251,70.18251,0,0,1,11.524,3.1283A25.332,25.332,0,0,1,458.34794,52.2283Z" fill-rule="evenodd" fill="url(#linear-gradient-5)"/><circle cx="460.02026" cy="51.10784" r="7.03243" fill="#6516b6"/><path d="M221.66879,277.741l0,0a19.518,19.518,0,0,0-6.03171-26.85264L94.665,172.55521,73.844,205.4396l120.97214,78.33312A19.518,19.518,0,0,0,221.66879,277.741Z" fill="#6516b6" fill-rule="evenodd"/><path d="M256.88175,111.79865h2.255A18.33331,18.33331,0,0,1,277.47008,130.132V290.2893a18.33332,18.33332,0,0,1-18.33332,18.33332h-2.255a18.33331,18.33331,0,0,1-18.33331-18.33331V130.132a18.33332,18.33332,0,0,1,18.33332-18.33332Z" transform="translate(209.19607 -118.99228) rotate(42.39471)" fill="#6516b6"/><path d="M334.57681,26.77h1.78352a14.5,14.5,0,0,1,14.5,14.5v84.09916a14.5,14.5,0,0,1-14.5,14.5h-1.78352a14.5,14.5,0,0,1-14.5-14.5V41.27a14.5,14.5,0,0,1,14.5-14.5Z" transform="translate(418.02582 -252.33742) rotate(89.86984)" fill="#6516b6"/><path d="M235.27286,124.32128l14.08042,30.19361,54.5193-59.46168a15.437,15.437,0,0,0-.943-21.74675l0,0a15.437,15.437,0,0,0-21.74676.943Z" fill="#6516b6" fill-rule="evenodd"/><path d="M451.86951,66.7657H373.62812a18.941,18.941,0,0,0-13.67367,5.83407L299.194,135.9877a40.707,40.707,0,0,0,5.00646,60.76716l.00006,0a40.707,40.707,0,0,0,51.10532-1.8928L464.30462,99.994C477.5156,88.49566,469.38354,66.7657,451.86951,66.7657Z" fill-rule="evenodd" fill="url(#linear-gradient-6)"/><path d="M489.74394,59.6554h1.78352a14.5,14.5,0,0,1,14.5,14.5v84.09916a14.5,14.5,0,0,1-14.5,14.5H489.744a14.5,14.5,0,0,1-14.5-14.5V74.15538a14.5,14.5,0,0,1,14.5-14.5Z" transform="translate(61.0773 380.22496) rotate(-44.90091)" fill="url(#linear-gradient-7)"/><path d="M227.10622,163.1492,217.97944,143.26l8.72515-9.51611a2.85278,2.85278,0,0,1,4.72724.80982l6.5666,15.41365a2.8472,2.8472,0,0,1-.62329,3.15122C234.28193,156.15469,227.10622,163.1492,227.10622,163.1492Zm20.78251-6.95946,9.63878-10.51257-6.19278-5.678L241.696,150.51169a4.20091,4.20091,0,0,0-.75187,4.52382h0A4.20091,4.20091,0,0,0,247.88874,156.18974Z" fill="#6516b6" fill-rule="evenodd"/><path d="M584.43721,94.30814,573.527,71.52032l-.54328-1.13473-3.1146-6.50539-61.0648,72.08538a15.437,15.437,0,0,0,1.79549,21.693l0,0a15.437,15.437,0,0,0,21.693-1.79549Z" fill-rule="evenodd" fill="url(#linear-gradient-8)"/><path d="M498.52306,177.39528l0,0a19.518,19.518,0,0,0-25.834-9.48935L321.19725,237.933,337.542,273.25647l151.49175-70.02714A19.518,19.518,0,0,0,498.52306,177.39528Z" fill-rule="evenodd" fill="url(#linear-gradient-9)"/><path d="M399.10214,83.819h2.255a18.33332,18.33332,0,0,1,18.33332,18.33332V265.39427a18.33332,18.33332,0,0,1-18.33332,18.33332h-2.255a18.33331,18.33331,0,0,1-18.33331-18.33331v-163.242A18.33331,18.33331,0,0,1,399.10214,83.819Z" transform="translate(593.00388 -212.19957) rotate(91.29538)" fill="url(#linear-gradient-10)"/></svg>