<svg id="Layer_1" data-name="Layer 1" xmlns="http://www.w3.org/2000/svg" xmlns:xlink="http://www.w3.org/1999/xlink" width="190.09229" height="200.86207" viewBox="0 0 190.09229 200.86207"><defs><radialGradient id="radial-gradient" cx="93.80358" cy="46.74118" r="75.24189" gradientUnits="userSpaceOnUse"><stop offset="0" stop-color="#c8ff00"/><stop offset="0.11858" stop-color="#c8ff00" stop-opacity="0.8466"/><stop offset="0.3648" stop-color="#c8ff00" stop-opacity="0.54951"/><stop offset="0.58487" stop-color="#c8ff00" stop-opacity="0.31352"/><stop offset="0.77067" stop-color="#c8ff00" stop-opacity="0.14331"/><stop offset="0.91488" stop-color="#c8ff00" stop-opacity="0.03876"/><stop offset="1" stop-color="#c8ff00" stop-opacity="0"/></radialGradient></defs><title>gd</title><circle cx="93.80358" cy="46.74118" r="82.97775" fill="url(#radial-gradient)"/><path d="M189.98193,170.95911a11.9097,11.9097,0,0,0-4.57227-7.84491,11.77033,11.77033,0,0,0-6.27539-3.11334l-56.66748-9.12469.02979-.21826,36.80859-24.40747a9.48137,9.48137,0,0,0,3.16553-11.66565A8.72261,8.72261,0,0,0,161.439,112.124L128.78808,65.05511a20.24554,20.24554,0,0,0-1.87354-2.70135A8.73089,8.73089,0,0,0,123.29,59.08252a11.79885,11.79885,0,0,0-6.34473-1.98383l-44.51416-.395a11.50082,11.50082,0,0,0-7.1377,2.47534,8.72136,8.72136,0,0,0-3.44873,3.19275L27.333,112.124a8.72261,8.72261,0,0,0-1.03174,2.46075,9.48137,9.48137,0,0,0,3.16553,11.66565l37.33691,24.75806L10.958,160.00085a11.77033,11.77033,0,0,0-6.27539,3.11334,11.93224,11.93224,0,0,0,5.64844,21.30359l34.17432,4.67334-11.60059,6.41394a30.958,30.958,0,0,0,30.57471,2.41663l9.959-4.681-.15381-.21405,19.51563,2.66876a11.86471,11.86471,0,0,0,2.24561.0863,11.86831,11.86831,0,0,0,2.24609-.0863l19.51514-2.6687-.15381.214,9.95947,4.681a30.958,30.958,0,0,0,30.57471-2.41663l-11.60059-6.41394,34.17432-4.67334A11.98466,11.98466,0,0,0,189.98193,170.95911Zm-64.10107-45.08246,3.69141-27.02905,11.875,16.83459ZM60.49511,97.01l4.1123,29.99109-17.2832-11.31891Z" fill="#6516b5" fill-rule="evenodd"/><path d="M78.63867,34.47174a15.49637,15.49637,0,0,0,30.03418-.02307,4.498,4.498,0,0,0,.55127-8.86316l.00049-10.09021a15.49536,15.49536,0,0,0-30.99072,0l-.00049,10.03094a4.49647,4.49647,0,0,0,.40527,8.9455Z" fill="#6516b5" fill-rule="evenodd"/></svg>