<svg id="Layer_1" data-name="Layer 1" xmlns="http://www.w3.org/2000/svg" xmlns:xlink="http://www.w3.org/1999/xlink" width="770.96093" height="391.47976" viewBox="0 0 770.96093 391.47976"><defs><linearGradient id="linear-gradient" x1="10743.59002" y1="4650.58606" x2="10707.00801" y2="4650.85855" gradientTransform="translate(5062.20581 -10662.62683) rotate(90)" gradientUnits="userSpaceOnUse"><stop offset="0" stop-color="#c8ff00"/><stop offset="0.47056" stop-color="#6516b5"/></linearGradient><linearGradient id="linear-gradient-2" x1="183.89138" y1="-3403.96515" x2="243.18122" y2="-3403.96515" gradientTransform="matrix(0, 1, -1, 0, -3054.01021, -96.81023)" gradientUnits="userSpaceOnUse"><stop offset="0" stop-color="#c8ff00"/><stop offset="0.10183" stop-color="#afc52d"/><stop offset="0.20779" stop-color="#999056"/><stop offset="0.31183" stop-color="#866478"/><stop offset="0.41151" stop-color="#784293"/><stop offset="0.50569" stop-color="#6d2aa6"/><stop offset="0.59219" stop-color="#671bb1"/><stop offset="0.66383" stop-color="#6516b5"/></linearGradient><linearGradient id="linear-gradient-3" x1="306.97303" y1="-3393.20959" x2="375.81135" y2="-3393.20959" gradientTransform="matrix(0, 0.97327, -1, 0, -3051.02044, -196.48518)" gradientUnits="userSpaceOnUse"><stop offset="0" stop-color="#c8ff00"/><stop offset="0.03554" stop-color="#c1ee0d"/><stop offset="0.20145" stop-color="#a1a248"/><stop offset="0.34966" stop-color="#876677"/><stop offset="0.47478" stop-color="#753b99"/><stop offset="0.5719" stop-color="#6920ad"/><stop offset="0.62923" stop-color="#6516b5"/></linearGradient><linearGradient id="linear-gradient-4" x1="9446.14969" y1="-2607.55562" x2="9426.30384" y2="-2581.09448" gradientTransform="matrix(0.92344, -0.1333, -0.08987, 0.83653, -8499.38143, 3565.56599)" xlink:href="#linear-gradient-2"/><linearGradient id="linear-gradient-5" x1="-13.25318" y1="-909.30517" x2="0.41768" y2="-897.79286" gradientTransform="translate(287.59058 1011.4162) rotate(12.89146)" xlink:href="#linear-gradient-2"/><linearGradient id="linear-gradient-6" x1="446.0533" y1="151.53461" x2="460.3033" y2="174.78461" gradientTransform="translate(82.30555 -143.45169) rotate(19.68325)" xlink:href="#linear-gradient-2"/><linearGradient id="linear-gradient-7" x1="5362.92095" y1="908.94938" x2="5407.0183" y2="971.71227" gradientTransform="matrix(-0.88469, 0.46618, 0.46618, 0.88469, 4732.37833, -3206.59275)" xlink:href="#linear-gradient-3"/><linearGradient id="linear-gradient-8" x1="424.50135" y1="209.80715" x2="404.83469" y2="233.14048" gradientTransform="translate(269.86296 -227.05261) rotate(44.02692)" xlink:href="#linear-gradient-2"/><linearGradient id="linear-gradient-9" x1="298.50533" y1="-41.83047" x2="314.83866" y2="-17.99714" gradientTransform="translate(144.23197 -88.96153) rotate(50.80661)" xlink:href="#linear-gradient-2"/><linearGradient id="linear-gradient-10" x1="-2067.81267" y1="2726.2325" x2="-1967.80111" y2="2733.8605" gradientTransform="translate(0.60078 -3326.97561) rotate(-45.74529)" xlink:href="#linear-gradient-2"/><linearGradient id="linear-gradient-11" x1="-2094.8692" y1="2749.7304" x2="-2028.08848" y2="2809.87879" gradientTransform="translate(0.60078 -3326.97561) rotate(-45.74529)" xlink:href="#linear-gradient-2"/><linearGradient id="linear-gradient-12" x1="-2149.24118" y1="2739.06763" x2="-1969.96465" y2="2752.74126" gradientTransform="translate(0.60078 -3326.97561) rotate(-45.74529)" xlink:href="#linear-gradient-2"/><linearGradient id="linear-gradient-13" x1="-2209.50622" y1="2715.18972" x2="-1999.52403" y2="2713.15326" gradientTransform="translate(0.60078 -3326.97561) rotate(-45.74529)" xlink:href="#linear-gradient-2"/><linearGradient id="linear-gradient-14" x1="-2210.23148" y1="2722.49076" x2="-2003.24133" y2="2720.48332" gradientTransform="translate(0.60078 -3326.97561) rotate(-45.74529)" xlink:href="#linear-gradient-2"/><linearGradient id="linear-gradient-15" x1="409.47407" y1="200.73296" x2="408.97407" y2="181.98296" gradientTransform="matrix(1, 0, 0, 1, 0, 0)" xlink:href="#linear-gradient-2"/><linearGradient id="linear-gradient-16" x1="360.07487" y1="185.82182" x2="369.80202" y2="160.66538" gradientTransform="matrix(1, 0, 0, 1, 0, 0)" xlink:href="#linear-gradient-2"/><linearGradient id="linear-gradient-17" x1="561.80639" y1="188.21387" x2="580.13972" y2="213.88054" gradientTransform="matrix(1, 0, 0, 1, 0, 0)" xlink:href="#linear-gradient-2"/><linearGradient id="linear-gradient-18" x1="540.41016" y1="332.74689" x2="543.07682" y2="366.41355" gradientTransform="matrix(1.00507, -0.01229, 0.01077, 1.00005, 1.20293, -52.62206)" xlink:href="#linear-gradient-2"/><linearGradient id="linear-gradient-19" x1="553.88413" y1="291.15817" x2="573.39692" y2="327.15591" gradientTransform="matrix(1, 0, 0, 1, 0, 0)" xlink:href="#linear-gradient-2"/><linearGradient id="linear-gradient-20" x1="10650.8457" y1="-6817.03131" x2="10696.21754" y2="-6752.45445" gradientTransform="translate(-7148.20963 -9804.94876) rotate(85.04319)" xlink:href="#linear-gradient-3"/><linearGradient id="linear-gradient-21" x1="581.2741" y1="260.26698" x2="532.1491" y2="258.89198" gradientTransform="translate(303.49113 -300.81912) rotate(40.61744)" xlink:href="#linear-gradient-2"/><linearGradient id="linear-gradient-22" x1="507.82337" y1="292.3729" x2="526.94837" y2="303.4979" gradientTransform="matrix(1, 0, 0, 1, 0, 0)" xlink:href="#linear-gradient-2"/><linearGradient id="linear-gradient-23" x1="603.43798" y1="70.25131" x2="586.94219" y2="104.24262" gradientTransform="translate(35.99301 -136.14482) rotate(13.42542)" xlink:href="#linear-gradient"/><linearGradient id="linear-gradient-24" x1="-3420.32544" y1="1907.029" x2="-3420.32544" y2="1922.55464" gradientTransform="matrix(-0.92037, 0.39106, 0.39106, 0.92037, -3416.46572, -90.33528)" xlink:href="#linear-gradient-2"/><linearGradient id="linear-gradient-25" x1="601.22843" y1="182.26373" x2="634.23116" y2="193.26464" gradientTransform="translate(-12.80247 -29.77939) rotate(-0.40504)" xlink:href="#linear-gradient-2"/><linearGradient id="linear-gradient-26" x1="585.21986" y1="214.0377" x2="621.71986" y2="213.5377" gradientTransform="matrix(1, 0, 0, 1, 0, 0)" xlink:href="#linear-gradient"/><linearGradient id="linear-gradient-27" x1="585.68399" y1="67.74724" x2="579.85065" y2="72.08057" gradientTransform="matrix(1, 0, 0, 1, 0, 0)" xlink:href="#linear-gradient-2"/><linearGradient id="linear-gradient-28" x1="613.39385" y1="96.64865" x2="609.14385" y2="102.89865" gradientTransform="matrix(1, 0, 0, 1, 0, 0)" xlink:href="#linear-gradient-2"/><linearGradient id="linear-gradient-29" x1="-1265.82733" y1="-2427.30486" x2="-1267.08548" y2="-2412.52156" gradientTransform="matrix(0.8103, 0.58601, -0.58601, 0.8103, 212.00738, 2780.0441)" xlink:href="#linear-gradient-2"/><linearGradient id="linear-gradient-30" x1="593.70656" y1="89.17345" x2="592.94223" y2="98.15432" gradientTransform="matrix(1, 0, 0, 1, 0, 0)" xlink:href="#linear-gradient-2"/><linearGradient id="linear-gradient-31" x1="465.71678" y1="307.99953" x2="473.55012" y2="332.49953" gradientTransform="translate(119.11328 -126.0826) rotate(17.40055)" xlink:href="#linear-gradient-2"/><linearGradient id="linear-gradient-32" x1="448.63364" y1="313.46149" x2="456.46697" y2="337.96149" gradientTransform="matrix(1, 0, 0, 1, 0, 0)" xlink:href="#linear-gradient-2"/><linearGradient id="linear-gradient-33" x1="481.96123" y1="302.80573" x2="489.79456" y2="327.30573" gradientTransform="matrix(1, 0, 0, 1, 0, 0)" xlink:href="#linear-gradient-2"/><linearGradient id="linear-gradient-34" x1="456.00819" y1="311.10363" x2="463.84153" y2="335.60363" gradientTransform="matrix(1, 0, 0, 1, 0, 0)" xlink:href="#linear-gradient-2"/><linearGradient id="linear-gradient-35" x1="23.34933" y1="233.07904" x2="20.34933" y2="268.32904" gradientTransform="matrix(1, 0, 0, 1, 0, 0)" xlink:href="#linear-gradient-2"/><linearGradient id="linear-gradient-36" x1="164.16312" y1="231.61052" x2="192.16312" y2="275.94385" gradientTransform="translate(91.12532 -43.83363) rotate(18.7615)" xlink:href="#linear-gradient-2"/><linearGradient id="linear-gradient-37" x1="71.36307" y1="290.21237" x2="100.13325" y2="335.76515" gradientTransform="matrix(1, 0, 0, 1, 0, 0)" xlink:href="#linear-gradient-2"/><linearGradient id="linear-gradient-38" x1="1762.90453" y1="5428.44618" x2="1726.32268" y2="5428.71867" gradientTransform="matrix(-0.98784, -0.15545, -0.15545, 0.98784, 2724.36182, -4960.91985)" xlink:href="#linear-gradient"/><linearGradient id="linear-gradient-39" x1="145.81563" y1="165.112" x2="146.81563" y2="190.112" gradientTransform="matrix(1, 0, 0, 1, 0, 0)" xlink:href="#linear-gradient-2"/><linearGradient id="linear-gradient-40" x1="83.40933" y1="144.47542" x2="71.40933" y2="164.14209" gradientTransform="matrix(1, 0, 0, 1, 0, 0)" xlink:href="#linear-gradient-2"/><linearGradient id="linear-gradient-41" x1="-2422.20722" y1="2311.65299" x2="-2404.51876" y2="2380.91032" gradientTransform="matrix(0.70711, -0.70711, 0.77382, 0.77382, 86.95312, -3327.42499)" xlink:href="#linear-gradient-3"/><linearGradient id="linear-gradient-42" x1="116.16848" y1="-3740.14027" x2="96.32263" y2="-3713.67914" gradientTransform="matrix(-0.94318, -0.17482, -0.0405, 0.90455, 89.92005, 3597.90738)" xlink:href="#linear-gradient-2"/><linearGradient id="linear-gradient-43" x1="75.39752" y1="220.89874" x2="85.64752" y2="248.64874" gradientTransform="matrix(1, 0, 0, 1, 0, 0)" xlink:href="#linear-gradient-2"/><linearGradient id="linear-gradient-44" x1="269.64686" y1="271.54074" x2="285.14686" y2="308.54074" gradientTransform="translate(2.43846 -2.25932) rotate(0.45992)" xlink:href="#linear-gradient-2"/><linearGradient id="linear-gradient-45" x1="195.39068" y1="302.64806" x2="210.89068" y2="339.64806" gradientTransform="matrix(1, 0, 0, 1, 0, 0)" xlink:href="#linear-gradient-2"/><linearGradient id="linear-gradient-46" x1="212.02769" y1="337.49069" x2="244.61584" y2="319.11992" gradientTransform="translate(61.37551 -140.09989)" gradientUnits="userSpaceOnUse"><stop offset="0" stop-color="#c8ff00"/><stop offset="0.1534" stop-color="#afc52d"/><stop offset="0.31301" stop-color="#999056"/><stop offset="0.46974" stop-color="#866478"/><stop offset="0.6199" stop-color="#784293"/><stop offset="0.76178" stop-color="#6d2aa6"/><stop offset="0.89208" stop-color="#671bb1"/><stop offset="1" stop-color="#6516b5"/></linearGradient><linearGradient id="linear-gradient-47" x1="220.45678" y1="352.44316" x2="253.04493" y2="334.07239" gradientTransform="translate(61.35557 -141.28048)" xlink:href="#linear-gradient-46"/><linearGradient id="linear-gradient-48" x1="216.59883" y1="345.59949" x2="249.18698" y2="327.22872" gradientTransform="translate(61.39109 -140.6951)" xlink:href="#linear-gradient-46"/><linearGradient id="linear-gradient-49" x1="223.39744" y1="340.98054" x2="255.98559" y2="322.60977" gradientTransform="translate(50.12604 -132.69707) rotate(-1.93559)" xlink:href="#linear-gradient-46"/><linearGradient id="linear-gradient-50" x1="193.13418" y1="323.23836" x2="213.80085" y2="318.57169" gradientTransform="matrix(0.99887, 0.04752, -0.05725, 1.17403, 104.37261, -113.49384)" xlink:href="#linear-gradient-2"/><linearGradient id="linear-gradient-51" x1="336.88709" y1="208.8816" x2="347.38709" y2="255.04827" gradientTransform="matrix(1, 0, 0, 1, 0, 0)" xlink:href="#linear-gradient-2"/><linearGradient id="linear-gradient-52" x1="370.44165" y1="260.19169" x2="364.44165" y2="322.19169" gradientTransform="matrix(1, 0, 0, 1, 0, 0)" xlink:href="#linear-gradient-2"/><linearGradient id="linear-gradient-53" x1="298.27423" y1="267.71312" x2="316.69962" y2="285.12427" gradientTransform="matrix(1, 0, 0, 1, 0, 0)" xlink:href="#linear-gradient-2"/><linearGradient id="linear-gradient-54" x1="354.93149" y1="238.73283" x2="366.09816" y2="264.56616" gradientTransform="matrix(1, 0, 0, 1, 0, 0)" xlink:href="#linear-gradient-2"/><linearGradient id="linear-gradient-55" x1="302.04967" y1="105.54693" x2="324.21634" y2="114.88026" gradientTransform="matrix(0.99826, 0.01201, 0.01201, 0.91695, -31.89621, 220.64103)" xlink:href="#linear-gradient-2"/><linearGradient id="linear-gradient-56" x1="-6886.54608" y1="-4237.12164" x2="-6730.63983" y2="-4225.23049" gradientTransform="matrix(-0.76881, -0.63948, -0.63948, 0.76881, -8017.93651, -1066.59913)" xlink:href="#linear-gradient-2"/><linearGradient id="linear-gradient-57" x1="38.2981" y1="85.58242" x2="0.63144" y2="55.24909" gradientTransform="matrix(1, 0, 0, 1, 0, 0)" xlink:href="#linear-gradient-2"/><linearGradient id="linear-gradient-58" x1="41.16485" y1="113.42111" x2="6.66485" y2="147.25444" gradientTransform="matrix(1, 0, 0, 1, 0, 0)" xlink:href="#linear-gradient-2"/><linearGradient id="linear-gradient-59" x1="591.29606" y1="82.28781" x2="598.01837" y2="122.83508" gradientTransform="matrix(1, 0, 0, 1, 0, 0)" xlink:href="#linear-gradient-2"/></defs><title>gd</title><polygon points="425.464 60.159 432.997 70.301 425.027 72.994 425.464 60.159" fill="#c8ff00" fill-rule="evenodd"/><circle cx="411.5081" cy="65.97444" r="15.48679" transform="matrix(0.28515, -0.95848, 0.95848, 0.28515, 230.93312, 441.58624)" fill="url(#linear-gradient)"/><rect x="418.02142" y="60.84465" width="2.24806" height="4.70048" rx="1.12403" ry="1.12403" transform="translate(10.27053 174.98847) rotate(-23.86588)" fill="#6516b5"/><path d="M397.99811,46.65022c-7.48675,1.36363-9.92727,5.443-17.5362,5.58377-7.61023.14043-7.667-2.94844-15.27721-2.80793-7.611.14059-7.55357,3.22963-15.16452,3.37022-6.68329.12353-13.388-4.23637-18.48708-3.37876V79.50516c5.9243,2.15373,11.88537,2.39211,19.01941,2.26025,7.60956-.14051,7.55282-3.22939,15.1624-3.37s7.667,2.94844,15.27656,2.80777c7.611-.14059,7.55357-3.22963,15.1645-3.37014a40.28423,40.28423,0,0,1,6.8375.49962,14.616,14.616,0,0,1-3.9081-6.10555c.60571-8.55364,7.642-5.89776,7.642-5.89776l2.04023-7.5016c2.37008-7.13453,8.94914-6.36508,10.55165-6.37584C413.54893,45.56422,402.34955,45.85772,397.99811,46.65022Z" fill="#c8ff00" fill-rule="evenodd"/><rect x="300.37639" y="87.08082" width="99.15714" height="59.28984" rx="29.64489" ry="29.64489" transform="translate(20.51487 282.74561) rotate(-45.19148)" fill="url(#linear-gradient-2)"/><rect x="337.24834" y="94.98748" width="9.88164" height="58.36852" transform="translate(12.93926 279.43458) rotate(-45.19149)" fill="url(#linear-gradient-3)"/><path d="M427.31255,105.15426h0c-4.56882,3.20724-6.20441,8.82646-3.63466,12.48716l33.77976,48.12033c2.56976,3.6607,8.41041,4.03171,12.97923.82447h0c4.56881-3.20724,6.20441-8.82647,3.63465-12.48717l-33.77975-48.12032C437.722,102.318,431.88137,101.947,427.31255,105.15426Z" fill-rule="evenodd" fill="url(#linear-gradient-4)"/><path d="M519.61668,101.75325l-20.87626-6.31639-43.72086,61.00167a10.17922,10.17922,0,0,0,2.27672,14.17167h0a10.17922,10.17922,0,0,0,14.17168-2.27672Z" fill-rule="evenodd" fill="url(#linear-gradient-5)"/><rect x="385.4777" y="152.66317" width="138.26485" height="25.66512" rx="12.83255" ry="12.83255" transform="translate(-29.17898 162.79182) rotate(-19.68325)" fill="url(#linear-gradient-6)"/><path d="M514.48243,134.89607h0a12.87028,12.87028,0,0,0-17.03725,6.25146L448.64479,246.02038l23.28873,10.78581,48.80037-104.87286A12.87028,12.87028,0,0,0,514.48243,134.89607Z" fill="#6516b5" fill-rule="evenodd"/><path d="M459.75711,250.07157h0a12.87028,12.87028,0,0,0-17.04172,6.23928l-48.87531,104.838,23.281,10.80245,48.87531-104.838A12.87028,12.87028,0,0,0,459.75711,250.07157Z" fill="#6516b5" fill-rule="evenodd"/><path d="M474.85284,255.49166l-24.68532-5.14233-4.51691,21.683,46.36832,9.65923v0A22.14848,22.14848,0,0,0,474.85284,255.49166Z" fill="#6516b5" fill-rule="evenodd"/><path d="M415.29625,372.65869l.33864-1.84613-20.66658-9.98721h0A51.42361,51.42361,0,0,0,388.228,386.277v5.20276h45.57351A18.77747,18.77747,0,0,0,415.29625,372.65869Z" fill="#6516b5" fill-rule="evenodd"/><path d="M380.73189,195.45445h0c-12.705-4.38529-21.23273-17.89942-18.66305-31.61186L375.09936,100.315c1.92406-10.26725,12.60186-16.33093,21.86991-12.41945l43.23994,18.24895c8.89762,3.75514,12.13877,14.90993,6.80764,23.42924l-33.64771,53.77C406.32683,194.59764,392.79594,199.61852,380.73189,195.45445Z" fill-rule="evenodd" fill="url(#linear-gradient-7)"/><rect x="402.89642" y="151.08262" width="25.66513" height="138.26485" rx="12.83255" ry="12.83255" transform="translate(-36.23433 350.80761) rotate(-44.02692)" fill="url(#linear-gradient-8)"/><path d="M325.40275,116.67566h73.3781A10.14938,10.14938,0,0,1,408.93023,126.825v0a10.14937,10.14937,0,0,1-10.14937,10.14937H325.40275a10.14938,10.14938,0,0,1-10.14938-10.14938v0A10.14938,10.14938,0,0,1,325.40275,116.67566Z" transform="translate(28.4943 316.31851) rotate(-48.90103)" fill="url(#linear-gradient-9)"/><polygon points="562.178 18.181 534.047 47.219 528.823 32.699 556.062 4.576 562.178 18.181" fill-rule="evenodd" fill="url(#linear-gradient-10)"/><path d="M442.86308,98.43235l-4.92822-.84375,3.31738-19.39453a11.79953,11.79953,0,0,1,3.19238-6.27051l61.1687-62.78027a5.417,5.417,0,0,1,8.81494,1.543l4.45215,9.82812-4.5542,2.0625-4.45215-9.82715a.4191.4191,0,0,0-.67969-.11816L448.02592,75.41184a6.82736,6.82736,0,0,0-1.84546,3.626Z" fill="#c8ff00"/><path d="M546.956,34.08739,397.30077,187.68752a10.62719,10.62719,0,0,1-17.61143-3.8187l-7.33562-20.39051L531.63345,0Z" fill-rule="evenodd" fill="url(#linear-gradient-11)"/><polygon points="522.06 109.454 510.569 121.248 494.988 83.929 506.479 72.135 522.06 109.454" fill="#c8ff00" fill-rule="evenodd"/><polygon points="423.612 200.01 414.036 209.837 388.426 147.419 398.001 137.592 423.612 200.01" fill-rule="evenodd" fill="url(#linear-gradient-12)"/><path d="M520.76523,88.04551l4.56945,18.29719-8.90284,6.6736a2.45853,2.45853,0,0,1-3.87536-1.43727l-3.11225-14.09936a2.45373,2.45373,0,0,1,1.02878-2.57009C513.57557,92.82953,520.76523,88.04551,520.76523,88.04551Zm-18.70935,2.59171h0c-3.41268,2.55815-5.35223,5.2063-8.438,10.37485l-2.60436,4.7162,4.343,5.79369,11.0424-15.09106a3.62036,3.62036,0,0,0,1.35585-3.71227h0A3.62036,3.62036,0,0,0,502.05589,90.63722Z" fill="#c8ff00" fill-rule="evenodd"/><path d="M419.0518,178.99192l-3.76025-3.29492,7.96948-9.08789a18.53749,18.53749,0,0,0,4.6814-9.91113l.05151-.29492,3.375-14.25,4.86523,1.15234-3.3418,14.10938a23.35322,23.35322,0,0,1-6.00244,12.63477Z" fill="#c8ff00"/><path d="M401.653,152.43255l-.64244-3.18039L526.69263,20.30544l1.26978,3.4004S401.74086,152.03922,401.653,152.43255Z" fill-rule="evenodd" fill="url(#linear-gradient-13)"/><path d="M406.42432,158.03927l-.64244-3.18039L529.63064,27.74549l1.26978,3.4004S406.5122,157.64594,406.42432,158.03927Z" fill-rule="evenodd" fill="url(#linear-gradient-14)"/><path d="M399.59,185.22492h0a34.5234,34.5234,0,0,0-3.41344-7.454l7.41534,2.81174,9.78857-9.29754a3.56976,3.56976,0,0,1,5.82742,1.40795l4.29364,12.25515a3.56976,3.56976,0,0,1-.91053,3.76862l-4.49917,4.65355a24.71812,24.71812,0,0,1-23.24857,6.92239h0l3.57784-12.6928Z" fill-rule="evenodd" fill="url(#linear-gradient-15)"/><rect x="388.20634" y="386.87506" width="45.44043" height="4.6047" fill="#6516b5"/><path d="M398.67781,202.49574l5.32386-21.71167L343.5068,146.989a10.17922,10.17922,0,0,0-14.13036,2.52043v0a10.17922,10.17922,0,0,0,2.52043,14.13037Z" fill-rule="evenodd" fill="url(#linear-gradient-16)"/><path d="M523.81179,209.56012v0a9.92793,9.92793,0,0,0,12.80144,5.64114l64.19938-26.89482a9.92793,9.92793,0,0,0,4.95818-13.08112v0a9.92794,9.92794,0,0,0-12.80144-5.64114L528.77,196.479A9.92793,9.92793,0,0,0,523.81179,209.56012Z" fill-rule="evenodd" fill="url(#linear-gradient-17)"/><path d="M493.45717,293.20879v0a12.59275,12.59275,0,0,0,14.43029,10.43533L593.812,290.39672a12.59275,12.59275,0,0,0,10.61718-14.297v0a12.59275,12.59275,0,0,0-14.43029-10.43533l-85.92452,13.24742A12.59275,12.59275,0,0,0,493.45717,293.20879Z" fill-rule="evenodd" fill="url(#linear-gradient-18)"/><path d="M600.13305,268.36256l0,0c-5.69084-4.17472-13.19473-3.70844-16.67531,1.03617L524.74665,348.534l20.694,15.18082,58.71107-79.13524C607.6323,279.83492,605.8239,272.53728,600.13305,268.36256Z" fill-rule="evenodd" fill="url(#linear-gradient-19)"/><rect x="562.56786" y="223.96889" width="25.66512" height="138.26485" rx="12.83255" ry="12.83255" transform="translate(277.68973 866.13042) rotate(-89.54007)" fill="#6516b5"/><path d="M623.38007,285.46914l0,0a12.856,12.856,0,0,0,.82538,17.83829l82.66068,77.60965L723.506,362.23579l-82.66068-77.60965A12.21829,12.21829,0,0,0,623.38007,285.46914Z" fill="#6516b5" fill-rule="evenodd"/><path d="M751.96823,376.92086H740.21514l-21.62191-19.6083-14.00984,15.38219,21.38912,18.785h44.98842C770.96093,379.2475,764.20049,376.92086,751.96823,376.92086Z" fill="#6516b5" fill-rule="evenodd"/><path d="M533.0887,374.7967l9.63859-15.17572-16.81015-12.494-5.10535,7.3726A76.14849,76.14849,0,0,0,507.834,388.57617l-.43073,2.90359h52.4449C559.84817,379.2475,550.97787,374.7967,533.0887,374.7967Z" fill="#6516b5" fill-rule="evenodd"/><path d="M498.06661,300.50232l0,0c10.56033,8.31422,13.09127-4.57,23.23491-14.14812l61.5-33.875c7.59509-7.17167,8.05285-19.82028-.25-25.5L541.51508,198.795c-7.971-5.4527-19.10636-2.14543-23.38845,6.9465L490.6,266.50073C484.94348,278.511,488.039,292.60751,498.06661,300.50232Z" fill-rule="evenodd" fill="url(#linear-gradient-20)"/><path d="M531.99525,249.47075h52.34009a10.14938,10.14938,0,0,1,10.14938,10.14938v.00009a10.14937,10.14937,0,0,1-10.14937,10.14937H531.99525a10.14939,10.14939,0,0,1-10.14939-10.14939v-.00008a10.14938,10.14938,0,0,1,10.14938-10.14938Z" transform="translate(-34.53711 425.91807) rotate(-40.61744)" fill="url(#linear-gradient-21)"/><path d="M489.46124,316.758l15.23431,13.41478,37.97791-43.12906a10.17922,10.17922,0,0,0-.90976-14.32453h0a10.17922,10.17922,0,0,0-14.32453.90976Z" fill-rule="evenodd" fill="url(#linear-gradient-22)"/><circle cx="596.36215" cy="84.83181" r="18.8907" transform="translate(-3.3994 140.78122) rotate(-13.42542)" fill="url(#linear-gradient-23)"/><path d="M471.85868,329.33334,494.092,319.924l7.83716,6.9853-2.84573,4.69824a15.82867,15.82867,0,0,1-8.17251,8.46477l-12.9244,5.8051a11.09472,11.09472,0,0,1-8.49093.07719l-11.69306-5.92658,2.95313-6.19022,9.96683,4.37291,10.44075-4.51412-.95132-2.239-6.31128,2.6816a2.61087,2.61087,0,0,1-3.424-1.382h0A2.61087,2.61087,0,0,1,471.85868,329.33334Z" fill-rule="evenodd" fill="url(#linear-gradient-24)"/><path d="M606.86138,114.96654l-20.29814-.16135-.44509,63.65921a10.17922,10.17922,0,0,0,10.06838,10.22973h0a10.17922,10.17922,0,0,0,10.22974-10.06838Z" fill-rule="evenodd" fill="url(#linear-gradient-25)"/><path d="M550.21936,228.92063l49.08212.22464.223-30.85917-49.08212-.22464a15.43,15.43,0,0,0-15.54109,15.318v0A15.43,15.43,0,0,0,550.21936,228.92063Z" fill="#c8ff00" fill-rule="evenodd"/><path d="M617.64892,218.602l-5.14453-10.47266a15.45823,15.45823,0,1,0,.12109,11.199Z" fill-rule="evenodd" fill="url(#linear-gradient-26)"/><ellipse cx="609.23049" cy="209.5345" rx="6.58697" ry="6.92364" fill="#6516b5"/><ellipse cx="611.16188" cy="209.30334" rx="4.98384" ry="6.51461" fill="#c8ff00"/><rect x="585.0099" y="207.89243" width="19.59291" height="5.53713" fill="#6516b5"/><path d="M586.05658,223.53852c-2.06822-9.23778,5.86091-8.28866,5.86091-8.28866l.39838-9.79771a7.47,7.47,0,0,1,7.036-7.183c.16-.00815.22741-.00376.17262.01691-.43833.16536-17.74717,1.81385-17.74717,1.81385l-3.31192,17.94685Z" fill="#c8ff00" fill-rule="evenodd"/><path d="M587.47705,69.09612c1.50965,2.22933.852,4.10279-.7771,5.206s-3.61284,1.01839-5.12249-1.21094-3.09509-7.41517-1.466-8.51837S585.9674,66.86679,587.47705,69.09612Z" fill-rule="evenodd" fill="url(#linear-gradient-27)"/><path d="M608.08006,100.28817c-2.05828-1.73564-1.93409-3.71728-.66573-5.2214s3.20056-1.96116,5.25884-.22552,4.99231,6.29612,3.724,7.80025S610.13834,102.02381,608.08006,100.28817Z" fill-rule="evenodd" fill="url(#linear-gradient-28)"/><path d="M610.74528,74.5209c-1.57778,2.18164-3.56316,2.20515-5.15744,1.05216s-2.19373-3.04587-.616-5.22751,5.90745-5.44668,7.50173-4.29369S612.32305,72.33925,610.74528,74.5209Z" fill-rule="evenodd" fill="url(#linear-gradient-29)"/><circle cx="593.73906" cy="88.79163" r="3.5625" fill="url(#linear-gradient-30)"/><circle cx="471.52019" cy="326.15061" r="18.8907" transform="translate(-75.95736 155.93356) rotate(-17.40055)" fill="url(#linear-gradient-31)"/><path d="M456.43831,336.10519c2.11931-1.66056,4.03385-1.1344,5.24734.41433s1.2664,3.53355-.85291,5.19411-7.18277,3.60169-8.39626,2.053S454.319,337.76575,456.43831,336.10519Z" fill-rule="evenodd" fill="url(#linear-gradient-32)"/><path d="M486.127,313.3894c-1.58878,2.17365-3.57426,2.18713-5.16269,1.0261s-2.17832-3.05691-.58954-5.23055,5.93489-5.41677,7.52332-4.25575S487.71582,311.21576,486.127,313.3894Z" fill-rule="evenodd" fill="url(#linear-gradient-33)"/><path d="M460.237,312.51687c2.28577,1.42274,2.44686,3.40172,1.40716,5.0721s-2.88646,2.3996-5.17223.97686-5.8431-5.51566-4.8034-7.186S457.95123,311.09413,460.237,312.51687Z" fill-rule="evenodd" fill="url(#linear-gradient-34)"/><circle cx="475.65233" cy="328.49288" r="3.5625" transform="matrix(0.99759, -0.06932, 0.06932, 0.99759, -21.62796, 33.76415)" fill="#6516b5"/><path d="M39.45317,244.226l-17.93768,1.22157c-.21983.015-9.71388-6.81067-13.02629-9.19738A2.95406,2.95406,0,0,1,7.269,234.054l-.479-7.03377A2.95465,2.95465,0,0,1,9.537,223.87161l5.48812-.37374L14.851,220.94a2.95465,2.95465,0,0,1,2.74707-3.14857l4.86631-.3314,15.458,12.15034S39.986,244.18968,39.45317,244.226Z" fill-rule="evenodd" fill="url(#linear-gradient-35)"/><rect x="109.09555" y="241.04731" width="138.26485" height="25.66512" rx="12.83255" ry="12.83255" transform="matrix(0.94687, -0.32163, 0.32163, 0.94687, -72.18524, 70.81315)" fill="url(#linear-gradient-36)"/><path d="M132.57726,262.51623l0,0c5.37962,4.56877,6.04305,12.70836,1.47428,17.08792l-78.63418,95.7197L35.85509,359.71021l78.63418-95.7197A12.87028,12.87028,0,0,1,132.57726,262.51623Z" fill-rule="evenodd" fill="url(#linear-gradient-37)"/><polygon points="139.411 124.507 134.743 136.247 143.138 136.797 139.411 124.507" fill="#c8ff00" fill-rule="evenodd"/><path d="M169.12481,132.40244a15.48679,15.48679,0,0,0-12.89114-17.70592c-5.60638-.88222-9.94361-2.82128-13.31535,1.25726-1.70967,2.06806-3.94323,8.79111-4.39057,11.63388a15.48679,15.48679,0,0,0,30.59706,4.81478Z" fill-rule="evenodd" fill="url(#linear-gradient-38)"/><path d="M145.07169,124.68961h2.45243a1.124,1.124,0,0,1,1.124,1.124v0a1.124,1.124,0,0,1-1.124,1.124h-2.45243a1.124,1.124,0,0,1-1.124-1.124v0a1.124,1.124,0,0,1,1.124-1.124Z" transform="translate(-0.72772 250.77608) rotate(-81.05738)" fill="#6516b5"/><path d="M166.08661,139.27958c1.3399-9.37117-6.559-8.45783-6.559-8.45783l-.53584-3.93132c.20623-1.24381-8.07445-6.82432-17.04834-8.91721-.15572-.03636,2.05038-6.726,6.02-7.13689.466-.04824,20.84754,4.26664,20.84754,4.26664l7.429,8.72631c.55651,1.96267-2.966,6.85474-5.17583,10.275Z" fill="#c8ff00" fill-rule="evenodd"/><path d="M192.44638,162.91192v0A10.17922,10.17922,0,0,1,183.60627,174.22l-72.11721,9.32172c-5.54075.67869-5.04007-4.053-5.71875-9.59375l-6.30585.35333a10.17923,10.17923,0,0,1,8.84011-11.30806l72.83374-8.92143A10.17922,10.17922,0,0,1,192.44638,162.91192Z" fill-rule="evenodd" fill="url(#linear-gradient-39)"/><path d="M36.75531,127.93053l12.36536-16.09777,67.66093,53.55277a10.17922,10.17922,0,0,1,1.86621,14.23155v0a10.17922,10.17922,0,0,1-14.23155,1.86621Z" fill-rule="evenodd" fill="url(#linear-gradient-40)"/><path d="M22.14848,369.9857h12.403l10.25031-12.00629,14.2499,14.25L43.36332,391.47976H0C0,379.2475,9.91621,369.9857,22.14848,369.9857Z" fill="#6516b5" fill-rule="evenodd"/><path d="M311.55156,375.97923l21.559-10.76675,2.16036,1.027a20.13938,20.13938,0,0,1,11.194,14.732l1.89726,10.50826H290.99747C290.99747,379.2475,299.31929,375.97923,311.55156,375.97923Z" fill="#6516b5" fill-rule="evenodd"/><path d="M243.42966,239.08209l0,0a24.988,24.988,0,0,1-35.33841,0l-55.28966-42.1029c-6.39029-6.39029-4.39029-17.73471,2-24.125L166.8642,159.9033a23.14013,23.14013,0,0,1,32.72508,0l43.84037,43.84037A24.988,24.988,0,0,1,243.42966,239.08209Z" fill-rule="evenodd" fill="url(#linear-gradient-41)"/><path d="M166.95882,174.00974h0c4.25726,3.61057,5.06314,9.72154,1.79085,13.57993l-43.01465,50.719c-3.27229,3.85839-9.43283,4.06114-13.69009.45056l0,0c-4.25725-3.61058-5.06313-9.72155-1.79084-13.57993l43.01465-50.71894C156.541,170.60193,162.70156,170.39917,166.95882,174.00974Z" fill-rule="evenodd" fill="url(#linear-gradient-42)"/><path d="M36.76671,249.05784l-1.60894-20.23492,81.90733-6.51272a10.17922,10.17922,0,0,1,10.92192,9.313v0a10.17922,10.17922,0,0,1-9.313,10.92192Z" fill-rule="evenodd" fill="url(#linear-gradient-43)"/><rect x="161.01677" y="265.20952" width="138.26485" height="25.66512" rx="12.83255" ry="12.83255" transform="translate(-78.53687 465.09546) rotate(-81.59821)" fill="#6516b5"/><path d="M210.02526,329.68586v0a12.87028,12.87028,0,0,1,16.70438-7.09311L334.06158,365.7164l-9.61128,25.76337L217.11838,346.39024A12.87028,12.87028,0,0,1,210.02526,329.68586Z" fill="#6516b5" fill-rule="evenodd"/><rect x="171.84948" y="103.91477" width="9.20015" height="52.17463" rx="4.60007" ry="4.60007" transform="translate(-16.88318 233.23696) rotate(-64.48264)" fill="#6516b5"/><path d="M165.46856,107.00852c-6.85193-2.77694-14.59075-.5771-19.83667,4.92941a5.90749,5.90749,0,0,1,3.36715,3.38867,9.57148,9.57148,0,0,1,.94321,3.85666l-7.53869-2.8345a22.44777,22.44777,0,0,0-1.21354,2.4876l33.46968,13.56621C178.82589,122.124,174.71091,110.75469,165.46856,107.00852Z" fill="#6516b5" fill-rule="evenodd"/><rect x="213.54382" y="289.8106" width="138.26485" height="25.66512" rx="12.83255" ry="12.83255" transform="matrix(0.99997, -0.00803, 0.00803, 0.99997, -2.42024, 2.27882)" fill="url(#linear-gradient-44)"/><path d="M235.494,294.46234l0,0a12.87028,12.87028,0,0,1-.85668,18.12773l-50.67094,46.369-17.27107-18.98444,50.67094-46.369A12.87028,12.87028,0,0,1,235.494,294.46234Z" fill-rule="evenodd" fill="url(#linear-gradient-45)"/><path d="M117.42913,379.25734h25.12253v12.22243H104.47525C104.47525,384.32553,110.2749,379.25734,117.42913,379.25734Z" fill="#6516b5" fill-rule="evenodd"/><path d="M392.30174,375.72923h0c9.665,0,17.5,7.02652,17.5,15.75054h-35C374.80176,382.75574,382.63677,375.72923,392.30174,375.72923Z" fill="#6516b5" fill-rule="evenodd"/><rect x="294.99587" y="150.74855" width="27.60044" height="16.58298" rx="8.25268" ry="8.25268" transform="translate(12.95912 341.05445) rotate(-58.85195)" fill="#c8ff00"/><rect x="299.93534" y="163.89708" width="4.81478" height="13.06443" transform="translate(9.72095 357.05663) rotate(-61.93855)" fill="#6516b5"/><rect x="250.33027" y="166.35993" width="16.58298" height="27.60044" rx="8.29148" ry="8.29148" transform="translate(37.84889 405.10954) rotate(-80.39856)" fill="#c8ff00"/><rect x="267.72921" y="180.6334" width="10.1956" height="4.81478" transform="translate(33.53338 408.15646) rotate(-77.10919)" fill="#6516b5"/><path d="M311.02672,196.10465c-7.17823-8.86206-30.82291-7.19587-36.89639,1.24692l-.46018-9.3247a18.45871,18.45871,0,0,1,17.82472-19.07164h0A18.45871,18.45871,0,0,1,310.56654,186.78Z" fill="#c8ff00" fill-rule="evenodd"/><circle cx="274.86258" cy="196.56811" r="5.38023" transform="translate(-6.48245 9.3959) rotate(-1.93559)" fill="url(#linear-gradient-46)"/><circle cx="309.7961" cy="195.38752" r="5.38023" transform="translate(-6.42264 10.57514) rotate(-1.93559)" fill="url(#linear-gradient-47)"/><circle cx="292.48769" cy="196.73162" r="18.48437" transform="translate(-6.47791 9.9913) rotate(-1.93559)" fill="url(#linear-gradient-48)"/><rect x="297.52589" y="188.22061" width="2.56861" height="4.90132" rx="1.11127" ry="1.11127" transform="translate(-6.26961 10.20139) rotate(-1.93559)" fill="#6516b5"/><rect x="283.86845" y="188.68217" width="2.56861" height="4.90132" rx="1.11127" ry="1.11127" transform="translate(-6.29299 9.74036) rotate(-1.93559)" fill="#6516b5"/><polygon points="292.139 190.343 287.97 198.236 292.64 201.635 297.028 197.85 292.139 190.343" fill-rule="evenodd" fill="url(#linear-gradient-49)"/><circle cx="291.54175" cy="209.04571" r="9.88481" fill="#c8ff00"/><path d="M292.7457,230.01524h.00008c5.57465.2892,9.85761,5.887,9.51768,12.43964l-3.1873,61.4393c-.33993,6.55261-5.17914,11.67721-10.7538,11.388h-.00008c-5.57465-.28921-9.85761-5.887-9.51768-12.43964l3.1873-61.43928C282.33182,234.85064,287.171,229.726,292.7457,230.01524Z" fill-rule="evenodd" fill="url(#linear-gradient-50)"/><path d="M400.25879,233.1428l-41.66058-18.99406a59.38323,59.38323,0,0,0-58.45752,5.22274l-11.45632,8.24544c-8.30273,5.67969-8.978,17.94067-1.38281,25.1123l35.5251,52.53931c10.144,9.57813,26.123,9.71484,36.68311,1.40063h.00049c10.02734-7.89478,13.123-21.99121,7.46631-34.00146L348.8418,234.16282l43.77637,17.78589a10.15373,10.15373,0,1,0,7.64063-18.80591Z" fill-rule="evenodd" fill="url(#linear-gradient-51)"/><path d="M401.17285,265.85227a12.42252,12.42252,0,0,0-7.81055-3.6958c-.21045-.02979-.41748-.06885-.63135-.09033a14.14223,14.14223,0,0,0-9.34321,2.24168c-2.197,1.496-4.37283,3.0229-6.67472,4.3519l-39.16518,22.612c-6.583,3.80054-9.11865,11.73291-5.66309,17.71753,3.45508,5.98462,11.59229,7.75488,18.17529,3.95435l26.66748-15.39648-1.89941,22.865,25.5376,2.55737,4.06787-48.979A9.9408,9.9408,0,0,0,401.17285,265.85227Z" fill-rule="evenodd" fill="url(#linear-gradient-52)"/><path d="M318.52574,270.87979l4.12957-10.31076-4.5368-4.67686-.65438-.37268a23.2,23.2,0,0,0-16.39988-2.51285l-9.75,2.41667.97023,3.30636,11.61594-.87545-23.43219,8.41667-.06781,3.33333,13.4999-2.125-13.6874,10.125-.1875,3.4375,16.3125-8.6875,1.625,3.3125Z" fill-rule="evenodd" fill="url(#linear-gradient-53)"/><path d="M317.99136,270.06445l-4.14766-19.87052,80.43231-16.789a10.17922,10.17922,0,0,1,12.00907,7.86142v0a10.17922,10.17922,0,0,1-7.86142,12.00908Z" fill-rule="evenodd" fill="url(#linear-gradient-54)"/><rect x="384.13469" y="314.97923" width="14.66667" height="60" transform="translate(25.33291 -26.77736) rotate(4.04853)" fill="#6516b5"/><polygon points="137.321 386.332 127.405 375.525 171.614 335.96 181.53 346.767 137.321 386.332" fill="#6516b5" fill-rule="evenodd"/><path d="M393.71842,359.64589h0a8.75,8.75,0,0,1,8.75,8.75v5.83335a8.75,8.75,0,0,1-8.75,8.75h-8.75a0,0,0,0,1,0,0V368.39588A8.75,8.75,0,0,1,393.71842,359.64589Z" transform="translate(29.10958 -28.62194) rotate(4.32304)" fill="#6516b5"/><path d="M389.46843,369.81256H380.208a4.30362,4.30362,0,0,0-4.2971,4.06677l-.94251,17.60043h13.33333Z" fill="#6516b5" fill-rule="evenodd"/><path d="M117.30176,380.10416l13.125-12.25s2.75-2,4.125,2.125-2.25,11.25-2.25,11.25Z" fill="#6516b5" fill-rule="evenodd"/><path d="M291.15079,357.82616l-20.08995-2.90421,7.5248-52.05317c.73094-5.05629,5.84921-8.53981,11.37394-7.74115h0c5.52473.79866,9.44692,5.58907,8.716,10.64536Z" fill-rule="evenodd" fill="url(#linear-gradient-55)"/><path d="M271.26718,354.00363l11.03147-4.95,5.28867,4.72681.43445.6952a57.70848,57.70848,0,0,1,5.90489,11.00418l3.93224,13.93073-3.32187.171-6.23537-8.22672-5.087,20.12494h-4.62057l-.04789-15.51664-7.075,15.51664H260.55166Z" fill="#6516b5" fill-rule="evenodd"/><polygon points="29.043 135.6 39.592 144.375 49.967 99.743 39.418 90.969 29.043 135.6" fill-rule="evenodd" fill="url(#linear-gradient-56)"/><path d="M59.16446,98.31984h0a9.45219,9.45219,0,0,1-1.61418-13.32013l1.15585-1.46325a9.4522,9.4522,0,0,1,13.48333-1.38991L87.92124,95.31122a13.31912,13.31912,0,0,1,1.77647,18.6294l0,0a13.31912,13.31912,0,0,1-18.545,2.06443l-5.86289-4.59934" fill="none" stroke="#c8ff00" stroke-miterlimit="10" stroke-width="2" fill-rule="evenodd"/><path d="M72.74736,96.14671,40.76836,70.081a13.479,13.479,0,0,0-16.85156-.1499L21.678,68.06907l1.33887-1.55859a1.46545,1.46545,0,1,0-2.22314-1.90991l-1.36914,1.594-2.5918-2.15576L18.076,62.592a1.46545,1.46545,0,1,0-2.22314-1.90991l-1.27344,1.48242-4.11914-3.42627a2.64642,2.64642,0,1,0-3.38477,4.06909l4.0542,3.37231L9.45927,68.12449a1.46545,1.46545,0,1,0,2.22314,1.90991l1.70117-1.98022,2.5918,2.15552-1.5752,1.8335a1.46545,1.46545,0,0,0,2.22314,1.90991l1.60547-1.8689,2.25586,1.87671a13.65194,13.65194,0,0,0-1.05957,2.36255,13.49377,13.49377,0,0,0,4.28857,14.67407l31.97559,26.08081A13.49385,13.49385,0,0,0,77.323,109.83909l.00391-.01514A13.49429,13.49429,0,0,0,72.74736,96.14671Z" fill-rule="evenodd" fill="url(#linear-gradient-57)"/><path d="M38.54883,113.13634a2.45373,2.45373,0,0,1,.79344,2.65221l-4.36783,13.76228a2.45853,2.45853,0,0,1-3.98893,1.08287L22.719,123.18636l6.1967-17.812S35.64593,110.78565,38.54883,113.13634Zm2.90435-1.93757h0a3.62036,3.62036,0,0,0,1.01645,3.81918l9.13209,8.22716,4.84649-5.37957-9.13209-8.22716A3.62036,3.62036,0,0,0,41.45317,111.19877Z" fill-rule="evenodd" fill="url(#linear-gradient-58)"/><path d="M574.17656,80.85423c0,18.875,2.76784,24.4002,12.625,34.25h15.625l10.16667-14.83333-1.95833-3.45833s-13.33333,6.16667-13.70833,6.04167a22.60207,22.60207,0,0,1-12-10c-4.25-7.25-5.125-17.5-5.125-17.5Z" fill-rule="evenodd" fill="url(#linear-gradient-59)"/><circle cx="31.82488" cy="80.88077" r="2.09231" transform="translate(-3.78425 1.59324) rotate(-2.70692)" fill="#6516b5"/><circle cx="39.10596" cy="86.48803" r="2.09231" transform="matrix(0.99888, -0.04723, 0.04723, 0.99888, -4.04094, 1.94337)" fill="#6516b5"/><circle cx="46.38705" cy="92.09529" r="2.09231" transform="translate(-4.29763 2.29349) rotate(-2.70692)" fill="#6516b5"/><circle cx="53.66814" cy="97.70254" r="2.09231" transform="translate(-4.55432 2.64361) rotate(-2.70692)" fill="#6516b5"/><circle cx="60.94923" cy="103.3098" r="2.09231" transform="translate(-4.81101 2.99373) rotate(-2.70692)" fill="#6516b5"/></svg>