<svg id="Layer_1" data-name="Layer 1" xmlns="http://www.w3.org/2000/svg" width="41" height="41" viewBox="0 0 41 41"><title>gd</title><path d="M21.99321,12.19324c.73447.16423,1.46682.33926,2.20518.48358a.59943.59943,0,0,0,.471-.10116A15.93913,15.93913,0,0,1,32.352,8.37553a2.11252,2.11252,0,0,1,.25341-.04559c.02507-.00318.05292.01559.13088.04114-.20629.25531-.40693.49158-.59447.73783-.80876,1.062-1.59591,2.141-2.42613,3.18591a3.60778,3.60778,0,0,0-.79892,2.41651c.05522,3.70315.06574,7.40694.09972,11.11044a.95918.95918,0,0,0,1.24276.84068,4.71027,4.71027,0,0,0,1.181-.37864,9.8,9.8,0,0,0,2.96549-2.25389,1.38287,1.38287,0,0,1,.24482-.2322,20.05629,20.05629,0,0,1-7.61215,8.695l-2.74065-2.3494c-.94079.85762-1.89015,1.6535-2.75036,2.53627a1.43442,1.43442,0,0,1-1.451.50441,18.16446,18.16446,0,0,1-6.6886-2.36875,8.8338,8.8338,0,0,1-2.3079-2.049c-.05815-.0754-.10589-.15881-.1666-.25083.40165,0,.76969.0158,1.13583-.00372a.86245.86245,0,0,0,.91456-.797,2.84951,2.84951,0,0,0,.052-.555q.00453-4.87009.00185-9.74017a1.17676,1.17676,0,0,0-1.53555-1.22927,4.82837,4.82837,0,0,0-1.60236.87158,22.731,22.731,0,0,0-5.02325,6.24082c-.07169.122-.14012.246-.27871.48988-.0411-.31166-.082-.50689-.09043-.70351a9.11561,9.11561,0,0,1,1.43346-5.11183A24.79786,24.79786,0,0,1,17.84346,7.49047a6.80118,6.80118,0,0,1,1.37031-.39565c-.3011.24129-.61146.472-.90169.72571a4.40524,4.40524,0,0,0-1.6376,4.00851,2.90776,2.90776,0,0,0,.166.70771.83068.83068,0,0,0,1.101.54567c.109-.0279.21662-.06152.38333-.10923v.53271q0,6.03374,0,12.06747a1.89435,1.89435,0,0,0,1.96445,1.95418,5.25287,5.25287,0,0,0,1.282-.3073,1.93937,1.93937,0,0,0,.42042-.21421c1.49093-.86375,1.49065-.86424,1.49065-2.5788,0-3.01687-.01249-6.03382.00644-9.05056a3.60743,3.60743,0,0,0-1.26243-2.762c-.0917-.08571-.19137-.16289-.28734-.244Z" fill="#fff"/><path d="M20.5,41A20.5,20.5,0,1,1,41,20.5,20.52325,20.52325,0,0,1,20.5,41Zm0-40A19.5,19.5,0,1,0,40,20.5,19.522,19.522,0,0,0,20.5,1Z" fill="#fff"/></svg>