<svg id="Layer_1" data-name="Layer 1" xmlns="http://www.w3.org/2000/svg" xmlns:xlink="http://www.w3.org/1999/xlink" width="731.5734" height="242.76813" viewBox="0 0 731.5734 242.76813"><defs><radialGradient id="radial-gradient" cx="52.90571" cy="155.84314" r="42.43682" gradientUnits="userSpaceOnUse"><stop offset="0" stop-color="#c8ff00"/><stop offset="0.11858" stop-color="#c8ff00" stop-opacity="0.8466"/><stop offset="0.3648" stop-color="#c8ff00" stop-opacity="0.54951"/><stop offset="0.58487" stop-color="#c8ff00" stop-opacity="0.31352"/><stop offset="0.77067" stop-color="#c8ff00" stop-opacity="0.14331"/><stop offset="0.91488" stop-color="#c8ff00" stop-opacity="0.03876"/><stop offset="1" stop-color="#c8ff00" stop-opacity="0"/></radialGradient></defs><title>gamedev</title><path d="M42.18277,1.03516H63.69449L97.97574,82.13574H74.048l-5.752-14.49414H37.12125l-5.752,14.49414H8.01773ZM61.73941,50.27051,52.76675,27.49316,43.67886,50.27051Z" fill="#fff"/><path d="M96.2482,70.17188,108.672,55.332c8.05273,6.32715,16.7959,9.66309,26.11328,9.66309,6.09668,0,9.31836-2.07031,9.31836-5.52148v-.23047c0-3.4502-2.64648-5.17578-13.68945-7.82227-17.14062-3.91113-30.37012-8.74219-30.37012-25.19238V25.998c0-14.9541,11.84961-25.76758,31.1748-25.76758,13.68945,0,24.3877,3.68066,33.13086,10.69824l-11.1582,15.75977c-7.3623-5.292-15.415-7.9375-22.54785-7.9375-5.40625,0-8.05176,2.18555-8.05176,5.17676v.22949c0,3.68164,2.76074,5.292,14.03418,7.82324,18.40527,4.02539,29.90918,10.00781,29.90918,25.07715v.23047c0,16.4502-12.999,26.22852-32.55469,26.22852C119.716,83.5166,106.256,79.0293,96.2482,70.17188Z" fill="#fff"/><path d="M175.04508,1.61035h22.31738v32.6709l27.72363-32.6709h26.458L221.05972,36.12109l31.52051,46.01465H225.89176L205.53043,52.22656l-8.168,8.97266V82.13574H175.04508Z" fill="#fff"/><path d="M283.63492,42.10352V41.873C283.63492,18.751,302.27066,0,327.11832,0s43.25391,18.52051,43.25391,41.64258V41.873c0,23.12207-18.63574,41.873-43.4834,41.873S283.63492,65.22559,283.63492,42.10352Zm63.84473,0V41.873c0-11.7334-8.28223-21.74219-20.59082-21.74219-12.30957,0-20.47656,9.89355-20.47656,21.51172V41.873c0,11.61914,8.39746,21.74219,20.70605,21.74219C339.31265,63.61523,347.47965,53.72168,347.47965,42.10352Z" fill="#fff"/><path d="M378.65152,46.81934V1.61035H401.1984v44.749c0,11.61914,5.86719,17.14063,14.83984,17.14063,9.08789,0,14.95508-5.292,14.95508-16.56543V1.61035h22.54688V46.24414c0,25.88379-14.83984,37.38672-37.73242,37.38672C393.0314,83.63086,378.65152,72.0127,378.65152,46.81934Z" fill="#fff"/><path d="M464.466,1.61035h38.07715c12.30859,0,20.82129,3.22168,26.22852,8.62793,4.7168,4.7168,7.13184,10.81348,7.13184,18.751v.22949c0,12.42383-6.55664,20.5918-16.56445,24.84863L538.55,82.13574H512.89664L496.67691,57.748h-9.89355v24.3877H464.466ZM501.6232,40.2627c7.47754,0,11.96387-3.68164,11.96387-9.54785v-.23047c0-6.44141-4.7168-9.66309-12.0791-9.66309H486.78336V40.2627Z" fill="#fff"/><path d="M11.6984,143.67969v-.23047c0-23.4668,17.94531-41.873,42.333-41.873,16.4502,0,27.03418,6.90234,34.166,16.68066l-16.79492,12.999c-4.60156-5.63672-9.89355-9.43359-17.60059-9.43359-11.27344,0-19.21094,9.66309-19.21094,21.39648v.23047c0,12.0791,7.9375,21.51172,19.21094,21.51172,8.39746,0,13.34375-3.91113,18.17578-9.77832l16.79492,11.96387c-7.59277,10.46875-17.83105,18.17578-35.5459,18.17578C30.2189,185.32227,11.6984,167.72168,11.6984,143.67969Z" fill="#fff"/><path d="M95.21109,148.39551v-45.209H117.758v44.749c0,11.61914,5.86719,17.14063,14.83984,17.14063,9.08789,0,14.95508-5.292,14.95508-16.56543V103.18652h22.54688v44.63379c0,25.88379-14.83984,37.38672-37.73242,37.38672C109.591,185.207,95.21109,173.58887,95.21109,148.39551Z" fill="#fff"/><path d="M174.92789,171.748l12.42383-14.83984c8.05273,6.32715,16.7959,9.66309,26.11328,9.66309,6.09668,0,9.31836-2.07031,9.31836-5.52148v-.23047c0-3.4502-2.64648-5.17578-13.68945-7.82227-17.14062-3.91113-30.37012-8.74219-30.37012-25.19238v-.23047c0-14.9541,11.84961-25.76758,31.1748-25.76758,13.68945,0,24.3877,3.68066,33.13086,10.69824l-11.1582,15.75977c-7.3623-5.292-15.415-7.9375-22.54785-7.9375-5.40625,0-8.05176,2.18555-8.05176,5.17676v.22949c0,3.68164,2.76074,5.292,14.03418,7.82324,18.40527,4.02539,29.90918,10.00781,29.90918,25.07715v.23047c0,16.4502-12.999,26.22852-32.55469,26.22852C198.39566,185.09277,184.9357,180.60547,174.92789,171.748Z" fill="#fff"/><path d="M271.09781,122.74316h-24.043V103.18652h70.51758v19.55664h-24.1582v60.96875H271.09781Z" fill="#fff"/><path d="M318.94937,143.67969v-.23047c0-23.12207,18.63574-41.873,43.4834-41.873s43.25391,18.52051,43.25391,41.64258v.23047c0,23.12207-18.63574,41.873-43.4834,41.873S318.94937,166.80176,318.94937,143.67969Zm63.84473,0v-.23047c0-11.7334-8.28223-21.74219-20.59082-21.74219-12.30957,0-20.47656,9.89355-20.47656,21.51172v.23047c0,11.61914,8.39746,21.74219,20.70605,21.74219C374.62711,165.19141,382.7941,155.29785,382.7941,143.67969Z" fill="#fff"/><path d="M414.8859,103.18652h23.583l19.21094,31.1748,19.21094-31.1748h23.582v80.52539H478.27066V137.46777L457.67984,168.9873h-.46L436.74332,137.582v46.12988H414.8859Z" fill="#fff"/><path d="M512.43375,103.18652h64.76563v18.86621H534.52066v12.30859H573.173v17.60059H534.52066v12.76953h43.25391v18.98047H512.43375Z" fill="#fff"/><path d="M586.97476,103.18652h38.07715c12.30859,0,20.82129,3.22168,26.22852,8.62793,4.7168,4.7168,7.13184,10.81348,7.13184,18.751v.22949c0,12.42383-6.55664,20.5918-16.56445,24.84863l19.21094,28.06836H635.40543l-16.21973-24.3877h-9.89355v24.3877H586.97476ZM624.132,141.83887c7.47754,0,11.96387-3.68164,11.96387-9.54785v-.23047c0-6.44141-4.7168-9.66309-12.0791-9.66309H609.29215v19.44141Z" fill="#fff"/><path d="M661.28629,171.748l12.42383-14.83984c8.05273,6.32715,16.7959,9.66309,26.11328,9.66309,6.09668,0,9.31836-2.07031,9.31836-5.52148v-.23047c0-3.4502-2.64648-5.17578-13.68945-7.82227-17.14062-3.91113-30.37012-8.74219-30.37012-25.19238v-.23047c0-14.9541,11.84961-25.76758,31.1748-25.76758,13.68945,0,24.3877,3.68066,33.13086,10.69824l-11.1582,15.75977c-7.3623-5.292-15.415-7.9375-22.54785-7.9375-5.40625,0-8.05176,2.18555-8.05176,5.17676v.22949c0,3.68164,2.76074,5.292,14.03418,7.82324,18.40527,4.02539,29.90918,10.00781,29.90918,25.07715v.23047c0,16.4502-12.999,26.22852-32.55469,26.22852C684.75406,185.09277,671.29508,180.60547,661.28629,171.748Z" fill="#fff"/><circle cx="52.90571" cy="155.84314" r="46.79989" fill="url(#radial-gradient)"/><path d="M107.1508,225.9027a6.71713,6.71713,0,0,0-2.57878-4.42457,6.63853,6.63853,0,0,0-3.53935-1.75594l-31.96076-5.14638.0168-.1231L89.849,200.68677a5.34754,5.34754,0,0,0,1.78537-6.57949,4.9196,4.9196,0,0,0-.58191-1.38788L72.63715,166.17229a11.41859,11.41859,0,0,0-1.05668-1.52358,4.92427,4.92427,0,0,0-2.04424-1.845,6.65462,6.65462,0,0,0-3.57846-1.11889L40.85155,161.462a6.48652,6.48652,0,0,0-4.0257,1.39611,4.91889,4.91889,0,0,0-1.9451,1.80073L15.416,192.7194a4.9196,4.9196,0,0,0-.58191,1.38788,5.34754,5.34754,0,0,0,1.78537,6.57949l21.05821,13.96367L6.18037,219.72219A6.63853,6.63853,0,0,0,2.641,221.47813a6.72984,6.72984,0,0,0,3.18575,12.01534l19.27449,2.63579-6.54279,3.6175a17.46047,17.46047,0,0,0,17.24429,1.363l5.61692-2.64009-.08675-.12073,11.00691,1.5052a6.69176,6.69176,0,0,0,1.26653.04868,6.69379,6.69379,0,0,0,1.26681-.04868L65.87983,238.349l-.08675.12069,5.61719,2.64009a17.46047,17.46047,0,0,0,17.24429-1.363l-6.54279-3.6175,19.27449-2.63579A6.75941,6.75941,0,0,0,107.1508,225.9027ZM70.99746,200.476l2.082-15.24453,6.69756,9.4948ZM34.11956,184.195l2.31936,16.91513-9.74782-6.38392Z" fill="#6516b5" fill-rule="evenodd"/><path d="M44.35262,148.92311a8.74,8.74,0,0,0,16.93943-.013,2.53692,2.53692,0,0,0,.31092-4.99887l.00028-5.69093a8.73946,8.73946,0,0,0-17.47893,0L44.124,143.8778a2.536,2.536,0,0,0,.22858,5.04531Z" fill="#6516b5" fill-rule="evenodd"/></svg>