<?xml version="1.0" encoding="UTF-8"?>
<svg width="55px" height="55px" viewBox="0 0 55 55" version="1.1" xmlns="http://www.w3.org/2000/svg" xmlns:xlink="http://www.w3.org/1999/xlink">
    <!-- Generator: Sketch 49 (51002) - http://www.bohemiancoding.com/sketch -->
    <title>Code_Analysis</title>
    <desc>Created with Sketch.</desc>
    <defs></defs>
    <g id="Page" stroke="none" stroke-width="1" fill="none" fill-rule="evenodd">
        <g id="GameDev1" transform="translate(-235.000000, -870.000000)">
            <g id="game_achieve2" transform="translate(235.000000, 871.000000)">
                <path d="M42.94825,41.4354529 C34.3306394,49.7405078 20.3503226,49.7405078 11.732712,41.4354529 C3.11510135,33.1303979 3.11510135,19.6571391 11.732712,11.3520842 C20.3503226,3.0470293 34.3306394,3.0470293 42.94825,11.3520842 C51.5658607,19.6571391 51.5658607,33.1234886 42.94825,41.4354529 Z M54.2113667,39.8877554 C55.1935736,40.8343382 55.1935736,42.3751263 54.2113667,43.3217091 L44.9054944,52.2900629 C43.9232875,53.2366457 42.3245128,53.2366457 41.3423059,52.2900629 C40.3600991,51.3434801 40.3600991,49.802692 41.3423059,48.8561092 L50.6481783,39.8877554 C51.6303852,38.9342633 53.2291599,38.9342633 54.2113667,39.8877554 Z M0.742032197,13.1692468 C-0.247344066,12.2157547 -0.247344066,10.6749666 0.742032197,9.7283838 L10.0407352,0.760029984 C11.0301115,-0.193462178 12.6288861,-0.193462178 13.611093,0.760029984 C14.6004693,1.71352215 14.6004693,3.2543102 13.611093,4.200893 L4.31955941,13.1692468 C3.33018315,14.1158296 1.73140846,14.1158296 0.742032197,13.1692468 Z M13.6971257,52.2140599 C12.7579352,53.1191865 11.2308545,53.1191865 10.291664,52.2140599 L0.828064916,43.0937001 C-0.111125595,42.1885735 -0.111125595,40.7168791 0.828064916,39.8117524 C1.76725543,38.9066258 3.29433618,38.9066258 4.23352669,39.8117524 L13.6971257,48.9321122 C14.6363162,49.8372389 14.6363162,51.3089333 13.6971257,52.2140599 Z M41.3781529,0.725483167 C42.381868,-0.241827722 44.0164896,-0.241827722 45.0202047,0.725483167 L54.2472137,9.61783398 C55.2509288,10.5851449 55.2509288,12.1604797 54.2472137,13.1277906 C53.2434987,14.0951015 51.608877,14.0951015 50.605162,13.1277906 L41.3781529,4.24234918 C40.3744379,3.26812893 40.3744379,1.69970342 41.3781529,0.725483167 Z" id="Shape" fill="#6516B5"></path>
                <ellipse id="Oval" fill="#6516B5" cx="28" cy="27" rx="19" ry="18"></ellipse>
                <path d="M28.8771558,18.4665566 L15,18.4665566 L15,17 L28.8771558,17 L28.8771558,18.4665566 Z M28.8771558,20.6663914 L20.7149773,20.6663914 L20.7149773,22.1395541 L28.8771558,22.1395541 L28.8771558,20.6663914 Z M38.9927383,20.6663914 L30.5981846,20.6663914 L30.5981846,22.1395541 L39,22.1395541 L39,20.6663914 L38.9927383,20.6663914 Z M38.9927383,24.2931462 L20.7149773,24.2931462 L20.7149773,25.7597027 L38.9927383,25.7597027 L38.9927383,24.2931462 Z M23.3655068,27.9132948 L20.7149773,27.9132948 L20.7149773,29.3798514 L23.3655068,29.3798514 L23.3655068,27.9132948 Z M38.9927383,27.9132948 L25.2462935,27.9132948 L25.2462935,29.3798514 L39,29.3798514 L39,27.9132948 L38.9927383,27.9132948 Z M23.307413,31.5334434 L15,31.5334434 L15,33 L23.307413,33 L23.307413,31.5334434 Z" id="Shape" fill="#FFFFFF"></path>
            </g>
        </g>
    </g>
</svg>