<?xml version="1.0" encoding="UTF-8"?>
<svg width="89px" height="49px" viewBox="0 0 89 49" version="1.1" xmlns="http://www.w3.org/2000/svg" xmlns:xlink="http://www.w3.org/1999/xlink">
    <!-- Generator: Sketch 49 (51002) - http://www.bohemiancoding.com/sketch -->
    <title>Code_Generation</title>
    <desc>Created with Sketch.</desc>
    <defs></defs>
    <g id="Page" stroke="none" stroke-width="1" fill="none" fill-rule="evenodd">
        <g id="GameDev1" transform="translate(-901.000000, -879.000000)" fill-rule="nonzero">
            <g id="game-13" transform="translate(901.000000, 879.000000)">
                <rect id="Rectangle-path" fill="#6516B5" x="43" y="23" width="37" height="3"></rect>
                <path d="M0,24.5 C0,16.8847578 6.53726631,10.7143875 14.6053178,10.7143875 L44.8216867,10.7143875 C45.2653926,10.7143875 45.6203573,11.0494302 45.6203573,11.4682336 L45.6203573,37.5387464 C45.6203573,37.9575499 45.2653926,38.2925926 44.8216867,38.2925926 L14.6053178,38.2925926 C6.53726631,38.2925926 0,32.1152422 0,24.5 Z M54.3909431,10.658547 L51.0187786,10.658547 L51.0187786,38.341453 L54.3909431,38.341453 L54.3909431,10.658547 Z M62.7030328,14.4766382 L59.3308683,14.4766382 L59.3308683,34.5233618 L62.7030328,34.5233618 L62.7030328,14.4766382 Z M71.0225177,17.9806268 L67.6503531,17.9806268 L67.6503531,31.0263533 L71.0225177,31.0263533 L71.0225177,17.9806268 Z M81.9746572,17.8689459 C78.092231,17.8689459 74.9493145,20.8354701 74.9493145,24.5 C74.9493145,28.1645299 78.092231,31.1310541 81.9746572,31.1310541 C85.8570835,31.1310541 89,28.1645299 89,24.5 C89,20.8354701 85.8570835,17.8689459 81.9746572,17.8689459 Z M45.1766514,3.02236467 C45.1766514,1.36111111 43.7346074,0 41.9745742,0 L21.9116743,0 C20.151641,0 18.709597,1.36111111 18.709597,3.02236467 C18.709597,4.68361823 20.151641,6.04472934 21.9116743,6.04472934 L41.9671791,6.04472934 C43.7346074,6.04472934 45.1766514,4.68361823 45.1766514,3.02236467 Z M45.1766514,45.9776353 C45.1766514,44.3163818 43.7346074,42.9552707 41.9745742,42.9552707 L21.9116743,42.9552707 C20.151641,42.9552707 18.709597,44.3163818 18.709597,45.9776353 C18.709597,47.6388889 20.151641,49 21.9116743,49 L41.9671791,49 C43.7346074,49 45.1766514,47.6458689 45.1766514,45.9776353 Z" id="Shape" fill="#6516B5"></path>
                <path d="M32.1998869,30 L30.8546791,28.8674033 L34.5815663,24.9723757 L30.964942,21.1256906 L32.3175007,20 L37,24.9792818 L32.1998869,30 Z M15.8001131,30 L11,24.9861878 L15.6824993,20.0069061 L17.035058,21.1325967 L13.4184337,24.9792818 L17.1453209,28.8743094 L15.8001131,30 Z M21.3353124,29.9171271 L19.8577891,28.9364641 L26.5397229,20.0690608 L28.0172463,21.0497238 L21.3353124,29.9171271 Z" id="Shape" fill="#FFFFFF"></path>
            </g>
        </g>
    </g>
</svg>