<svg enable-background="new 0 0 1005.8 492.7" viewBox="0 0 1005.8 492.7" xmlns="http://www.w3.org/2000/svg" xmlns:xlink="http://www.w3.org/1999/xlink"><radialGradient id="a" cx="412.0088" cy="253.4841" gradientTransform="matrix(1 0 0 -.9631 0 484.649)" gradientUnits="userSpaceOnUse" r="247.9979"><stop offset="0" stop-color="#c9ff00"/><stop offset=".1922" stop-color="#c9ff00" stop-opacity=".7454"/><stop offset=".4103" stop-color="#c9ff00" stop-opacity=".4833"/><stop offset=".6082" stop-color="#c9ff00" stop-opacity=".2753"/><stop offset=".7787" stop-color="#c9ff00" stop-opacity=".1254"/><stop offset=".9149" stop-color="#c9ff00" stop-opacity=".03363"/><stop offset="1" stop-color="#c9ff00" stop-opacity="0"/></radialGradient><linearGradient id="b" gradientTransform="matrix(.6479 -.7617 -.7617 -.6479 -2784.1746 -4289.5732)" gradientUnits="userSpaceOnUse" x1="-1167.6855" x2="-1206.9434" y1="-5430.6919" y2="-5429.9009"><stop offset="0" stop-color="#c9ff00"/><stop offset=".1378" stop-color="#b7d422"/><stop offset=".3708" stop-color="#9a9156"/><stop offset=".5819" stop-color="#835c7f"/><stop offset=".7638" stop-color="#73369d"/><stop offset=".9092" stop-color="#691faf"/><stop offset="1" stop-color="#6516b6"/></linearGradient><linearGradient id="c"><stop offset="0" stop-color="#c9ff00"/><stop offset=".03554" stop-color="#c2ee0d"/><stop offset=".2015" stop-color="#a1a249"/><stop offset=".3497" stop-color="#876678"/><stop offset=".4748" stop-color="#753b99"/><stop offset=".5719" stop-color="#6920ae"/><stop offset=".6292" stop-color="#6516b6"/></linearGradient><linearGradient id="d" gradientTransform="matrix(-1 0 0 -1 -9242.9893 494)" gradientUnits="userSpaceOnUse" x1="-9654.4453" x2="-9651.3496" xlink:href="#c" y1="378.842" y2="378.842"/><linearGradient id="e" gradientTransform="matrix(-1 0 0 -1 -9242.9883 494.0002)" gradientUnits="userSpaceOnUse" x1="-9739.3652" x2="-9708.3154" xlink:href="#c" y1="378.3266" y2="378.3266"/><linearGradient id="f" gradientTransform="matrix(-1 0 0 -1 -9242.9893 494)" gradientUnits="userSpaceOnUse" x1="-9654.4453" x2="-9651.3496" xlink:href="#c" y1="385.5021" y2="385.5021"/><linearGradient id="g" gradientTransform="matrix(-1 0 0 -1 -9242.9893 494)" gradientUnits="userSpaceOnUse" x1="-9654.4453" x2="-9651.3496" xlink:href="#c" y1="393.2271" y2="393.2271"/><linearGradient id="h" gradientTransform="matrix(-1 0 0 -1 -9242.9893 494)" gradientUnits="userSpaceOnUse" x1="-9660.1084" x2="-9636.0479" xlink:href="#c" y1="366.1105" y2="328.6042"/><linearGradient id="i"><stop offset="0" stop-color="#c9ff00"/><stop offset=".1018" stop-color="#b0c52d"/><stop offset=".2078" stop-color="#999056"/><stop offset=".3118" stop-color="#876479"/><stop offset=".4115" stop-color="#784293"/><stop offset=".5057" stop-color="#6e2aa6"/><stop offset=".5922" stop-color="#671bb2"/><stop offset=".6638" stop-color="#6516b6"/></linearGradient><linearGradient id="j" gradientTransform="matrix(-1 0 0 -1 -9242.9883 494.0002)" gradientUnits="userSpaceOnUse" x1="-9744.4473" x2="-9725.2246" xlink:href="#i" y1="320.5097" y2="306.8047"/><linearGradient id="k" gradientTransform="matrix(-1 0 0 -1 -9242.9893 494)" gradientUnits="userSpaceOnUse" x1="-9793.0479" x2="-9721.3965" xlink:href="#i" y1="314.2502" y2="339.3724"/><linearGradient id="l" gradientTransform="matrix(-1 0 0 -1 -9242.9893 494)" gradientUnits="userSpaceOnUse" x1="-9670.0635" x2="-9652.0176" y1="192.9674" y2="215.2589"><stop offset="0" stop-color="#c9ff00"/><stop offset=".1534" stop-color="#b0c52d"/><stop offset=".313" stop-color="#999056"/><stop offset=".4697" stop-color="#876479"/><stop offset=".6199" stop-color="#784293"/><stop offset=".7618" stop-color="#6e2aa6"/><stop offset=".8921" stop-color="#671bb2"/><stop offset="1" stop-color="#6516b6"/></linearGradient><linearGradient id="m" gradientTransform="matrix(-.9997 .02261 -.02261 -.9997 -9185.5273 732.2241)" gradientUnits="userSpaceOnUse" x1="-9609.5713" x2="-9556.1143" xlink:href="#i" y1="273.8016" y2="233.3195"/><path d="m412.6 0h378.3v492.7h-378.3z" fill="url(#a)"/><path d="m590 112.7 9.4 8c1.7 1.4 1.9 3.9.5 5.6-1.4 1.7-3.9 1.9-5.6.5l-3-2.6 1.3 8.6-12.4 6.1-4.8-9.3z" fill="url(#b)"/><path d="m591.3 109.2c1.5 1.3 1.7 3.6.4 5.2l-9 10.6 2.7 6.7 13.5-7c1.9-1 4.3-.2 5.3 1.7v.1c.9 1.9.2 4.2-1.7 5.2l-30.3 16.1-5.7 6.8 2.5-24.5 17.1-20.4c1.3-1.6 3.7-1.8 5.2-.5z" fill="#c9ff00"/><path d="m587.9 108.4 18.4-6.6c1.8-.6 3.8.3 4.4 2.1.6 1.8-.3 3.8-2.1 4.4l-18.4 6.6c-1.8.6-3.8-.3-4.4-2.1-.6-1.8.3-3.8 2.1-4.4z" fill="#c9ff00"/><path d="m347 291.5-59.1 26.8-27.6 64c12.9 5.7 27.9-.1 33.6-13l9.1-20.6c2-4.5 5.5-8 10-10.1l43-19.6z" fill="#6516b6"/><path d="m109.6 246.8-34.9-22.3-74.7 17.2c4.7 13.7 18.7 21.8 32.9 19.1l18.7-3.6c4.9-.9 10 0 14.2 2.7l28.9 18.5z" fill="#6516b6"/><path d="m495.1 105.6 8.6 17.2-12.6 1.9z" fill="url(#d)"/><circle cx="474" cy="115.7" fill="url(#e)" r="23.5"/><path d="m484.8 104.9h.2c.9 0 1.6.7 1.6 1.6v3.9c0 .9-.7 1.6-1.6 1.6h-.2c-.9 0-1.6-.7-1.6-1.6v-3.9c0-.8.7-1.6 1.6-1.6z" fill="url(#f)"/><path d="m458.3 117.2c2.4-13.6 15.2-22.8 28.8-20.7-6-8.4-15.8-11.4-27.5-13.4-13.1-2.3-16.8 3.6-29.9 1.3s-12.1-7.6-25.2-9.9-14 3-27 .7c-11.5-2-18.8-10-27.8-10.3v51.6c9.4 5.7 10 6.2 22.3 8.3 13.1 2.3 14-3 27-.7 13.1 2.3 12.1 7.6 25.2 9.9s14-3 27-.7c3.9.7 7.8 1.8 11.5 3.1-3.9-5.4-5.5-12.4-4.4-19.2z" fill="url(#g)"/><circle cx="460" cy="116.1" fill="#6516b6" r="7"/><path d="m221.7 342.7c5.7-9.1 3-21.1-6-26.9l-121-78.3-20.8 32.9 121 78.3c9 5.8 21 3.1 26.8-6z" fill="#6516b6"/><path d="m323.5 201.8 1.7 1.5c7.5 6.8 8 18.4 1.2 25.9l-108 118.3c-6.8 7.5-18.4 8-25.9 1.2l-1.7-1.5c-7.5-6.8-8-18.4-1.2-25.9l108-118.3c6.9-7.5 18.5-8.1 25.9-1.2z" fill="#6516b6"/><path d="m392 146.2v1.8c0 8-6.5 14.5-14.5 14.5l-84.1.2c-8 0-14.5-6.5-14.5-14.5v-1.8c0-8 6.5-14.5 14.5-14.5l84.1-.2c8 0 14.5 6.5 14.5 14.5z" fill="#6516b6"/><path d="m235.9 187.3 14.1 30.2 54.5-59.5c5.7-6.3 5.3-16-.9-21.7-6.3-5.7-16-5.3-21.7.9z" fill="#6516b6"/><path d="m451.9 131.8h-78.2c-5.2 0-10.1 2.1-13.7 5.8l-60.8 63.4c-15.6 16.2-15 42 1.2 57.6 1.2 1.1 2.5 2.2 3.8 3.2 15.4 11.5 36.6 10.7 51.1-1.9l109-94.9c13.2-11.5 5.1-33.2-12.4-33.2z" fill="url(#h)"/><path d="m450.1 141.8 1.3-1.3c5.7-5.7 14.9-5.6 20.5 0l59.4 59.6c5.7 5.7 5.6 14.9 0 20.5l-1.3 1.3c-5.7 5.7-14.9 5.6-20.5 0l-59.4-59.6c-5.7-5.7-5.7-14.9 0-20.5z" fill="url(#j)"/><path d="m226.1 227.8-9.1-19.9 8.7-9.5c1.1-1.2 2.9-1.2 4-.2.3.3.5.6.7 1l6.6 15.4c.5 1.1.2 2.3-.6 3.2-3.1 3-10.3 10-10.3 10zm20.8-7 9.6-10.5-6.2-5.7-9.6 10.5c-1.1 1.2-1.4 3-.8 4.5.9 2.1 3.4 3.1 5.5 2.2.6-.2 1.1-.5 1.5-1z" fill="#6516b6"/><path d="m584.4 159.3-10.9-22.8-.5-1.1-3.1-6.5-61.1 72.1c-5.5 6.5-4.7 16.2 1.8 21.7 6.5 5.5 16.2 4.7 21.7-1.8z" fill="url(#k)"/><path d="m498.5 242.4c-4.5-9.7-16.1-14-25.8-9.5l-151.5 70 16.3 35.3 151.5-70c9.8-4.5 14-16 9.5-25.8z" fill="url(#l)"/><path d="m500.4 249.6v2.3c0 10.1-8.2 18.3-18.3 18.3h-157.5c-10.1 0-18.3-8.2-18.3-18.3v-2.3c0-10.1 8.2-18.3 18.3-18.3h157.4c10.1 0 18.4 8.2 18.4 18.3z" fill="url(#m)"/><g fill="#fff"><path d="m412.6 228.1v-25.1c4.8-1.6 9.8-2.5 14.8-2.5 16.5 0 27.1 6.9 34.2 16.7l-16.8 13c-4.6-5.6-9.9-9.4-17.6-9.4-5.7 0-11.1 2.7-14.6 7.3zm49.6 38.1-16.8-12c-4.8 5.9-9.8 9.8-18.2 9.8-5.7 0-11.1-2.6-14.6-7.2v25.3c4.5 1.5 9.3 2.3 14 2.3 17.8 0 28-7.7 35.6-18.2zm27.5-14h28.7v30.6h22.4v-80.6h-22.4v30.2h-28.7v-30.2h-22.4v80.6h22.4zm110.1-50.6 34.3 81.2h-24l-5.8-14.5h-31.2l-5.8 14.5h-23.3l34.2-81.2zm-2 49.3-9-22.8-9.1 22.8zm93.6-6.1-33.2-42.6h-20.9v80.6h22.1v-44.2l34.6 44.2h19.5v-80.6h-22.1zm70.9 7.2h15.8v9.8c-3.2 2.2-7.4 3.3-12.9 3.3-12.8 0-21.9-9.3-21.9-22.5v-.2c0-12.3 9-22 20.6-22 8.1 0 13.7 2.8 19.5 7.6l13.1-15.9c-8.5-7.4-18.5-11.6-32.7-11.6-24.9 0-43.3 18.4-43.3 41.9v.2c0 24.4 18.7 41.7 43.8 41.7 12.8.1 25.2-4.3 35-12.6v-36.2h-37zm71.4-50.2h-22.3v80.6h22.3zm64.1 42.6-33.2-42.6h-20.9v80.6h22.1v-44.2l34.6 44.2h19.5v-80.6h-22.1zm71 7.3h15.8v9.8c-3.2 2.2-7.4 3.3-12.9 3.3-12.8 0-21.9-9.3-21.9-22.5v-.2c0-12.3 9-22 20.6-22 8.1 0 13.7 2.8 19.5 7.6l13.1-15.9c-8.5-7.4-18.5-11.6-32.7-11.6-24.9 0-43.3 18.4-43.3 41.9v.2c0 24.4 18.7 41.7 43.8 41.7 12.8.1 25.2-4.3 35-12.6v-36.2h-37z"/><path d="m130.8 272.4h37v36.2c-9.8 8.2-22.2 12.7-35 12.6-25.1 0-43.8-17.3-43.8-41.7v-.2c0-23.5 18.4-41.9 43.3-41.9 14.2 0 24.2 4.3 32.7 11.6l-13.1 15.9c-5.8-4.8-11.4-7.6-19.5-7.6-11.6 0-20.6 9.7-20.6 22v.2c0 13.1 9.1 22.5 21.9 22.5 5.5 0 9.7-1.2 12.9-3.3v-9.8h-15.8zm94.3-34.1 34.3 81.2h-24l-5.8-14.5h-31.2l-5.8 14.5h-23.4l34.2-81.2zm-2 49.3-9-22.8-9.1 22.8zm82.4-17.5-19.2-31.2h-23.6v80.6h21.9v-46.2l20.5 31.5h.5l20.6-31.6v46.3h22.2v-80.6h-23.6zm74.6 30.4v-12.8h32.5v-17.6h-32.5v-12.3h32.5v-18.9h-54.6v80.6h54.6v-19z"/><path d="m412.6 316.4h10.8c8.7 0 14.7 6 14.7 13.7v.1c0 7.8-6 13.8-14.7 13.8h-10.8zm6.1 5.5v16.6h4.7c5 0 8.3-3.4 8.3-8.2v-.1c.2-4.4-3.1-8.1-7.5-8.3-.3 0-.5 0-.8 0z"/><path d="m441 333.6c0-6.1 4.3-11.1 10.5-11.1 7.1 0 10.3 5.5 10.3 11.5 0 .5 0 1-.1 1.6h-14.7c.4 2.5 2.6 4.3 5.2 4.1 1.9 0 3.8-.8 5.1-2.2l3.4 3c-2.1 2.6-5.3 4.1-8.6 3.9-6.4.1-11.1-4.4-11.1-10.8zm14.9-1.8c-.4-2.7-1.9-4.5-4.5-4.5-2.5 0-4.1 1.8-4.6 4.5z"/><path d="m462.5 322.9h6.4l4.7 14.2 4.8-14.2h6.2l-8.3 21.3h-5.4z"/><path d="m485.1 333.6c0-6.1 4.3-11.1 10.5-11.1 7.1 0 10.3 5.5 10.3 11.5 0 .5 0 1-.1 1.6h-14.7c.4 2.5 2.6 4.3 5.2 4.1 1.9 0 3.8-.8 5.1-2.2l3.4 3c-2.1 2.6-5.3 4.1-8.6 3.9-6.4.1-11.1-4.4-11.1-10.8zm14.9-1.8c-.4-2.7-1.9-4.5-4.5-4.5-2.5 0-4.1 1.8-4.6 4.5z"/><path d="m509.8 315.2h6v28.8h-6z"/><path d="m519.6 333.6c0-6.2 4.9-11.1 11.5-11.1 6.5 0 11.4 4.9 11.4 10.9v.1c0 6.1-4.9 11-11.5 11-6.5 0-11.4-4.9-11.4-10.9zm17 0c.1-3.2-2.3-5.8-5.4-5.9-.1 0-.1 0-.2 0-3.4 0-5.5 2.6-5.5 5.8v.1c-.1 3.1 2.3 5.7 5.4 5.8h.2c3.4-.1 5.5-2.7 5.5-5.8z"/><path d="m546.1 322.9h6v3c1.5-2.2 4-3.5 6.6-3.4 4.9 0 9.6 3.9 9.6 10.9v.1c0 7.1-4.6 10.9-9.6 10.9-2.6.1-5-1.1-6.6-3.2v9.1h-6zm16.2 10.6c0-3.6-2.4-5.9-5.2-5.9s-5.1 2.3-5.1 5.8v.1c0 3.5 2.3 5.8 5.1 5.8s5.2-2.3 5.2-5.8z"/><path d="m571.9 322.9h6v3c1.4-2.1 3.7-3.4 6.2-3.4 2.5-.1 4.8 1.2 6 3.4 1.7-2.1 4.2-3.4 6.9-3.4 4.5 0 7.1 2.7 7.1 7.8v13.7h-6v-11.8c0-2.8-1.3-4.3-3.5-4.3s-3.6 1.5-3.6 4.3v11.8h-6v-11.8c0-2.8-1.3-4.3-3.5-4.3s-3.6 1.5-3.6 4.3v11.8h-6z"/><path d="m607.6 333.6c0-6.1 4.3-11.1 10.5-11.1 7.1 0 10.3 5.5 10.3 11.5 0 .5 0 1-.1 1.6h-14.7c.4 2.5 2.6 4.3 5.2 4.1 1.9 0 3.8-.8 5.1-2.2l3.4 3c-2.1 2.6-5.3 4.1-8.6 3.9-6.4.1-11.1-4.4-11.1-10.8zm14.9-1.8c-.4-2.7-1.9-4.5-4.5-4.5-2.5 0-4.1 1.8-4.6 4.5z"/><path d="m632 322.9h6v3c1.4-1.8 3.2-3.4 6.2-3.4 4.5 0 7.2 3 7.2 7.8v13.7h-6v-11.8c0-2.8-1.3-4.3-3.6-4.3s-3.7 1.5-3.7 4.3v11.8h-6v-21.1z"/><path d="m656.8 338v-10h-2.5v-5.1h2.5v-5.4h6v5.4h5v5.1h-5v9c0 1.4.6 2.1 1.9 2.1 1 0 2.1-.3 3-.7v4.8c-1.4.8-3.1 1.3-4.7 1.2-3.8 0-6.2-1.5-6.2-6.4z"/><path d="m689.5 322h-8.4v-5.6h22.9v5.6h-8.4v22h-6.1z"/><path d="m702 333.6c0-6.2 4.9-11.1 11.5-11.1 6.5 0 11.4 4.9 11.4 10.9v.1c0 6.1-4.9 11-11.5 11-6.5 0-11.4-4.9-11.4-10.9zm17 0c.1-3.2-2.3-5.8-5.4-5.9-.1 0-.1 0-.2 0-3.4 0-5.5 2.6-5.5 5.8v.1c-.1 3.1 2.3 5.7 5.4 5.8h.2c3.4-.1 5.5-2.7 5.5-5.8z"/><path d="m727.4 333.6c0-6.2 4.9-11.1 11.5-11.1 6.5 0 11.4 4.9 11.4 10.9v.1c0 6.1-4.9 11-11.5 11-6.5 0-11.4-4.9-11.4-10.9zm17 0c.1-3.2-2.3-5.8-5.4-5.9-.1 0-.1 0-.2 0-3.4 0-5.5 2.6-5.5 5.8v.1c-.1 3.1 2.3 5.7 5.4 5.8h.2c3.4-.1 5.5-2.7 5.5-5.8z"/><path d="m754.1 315.2h6v28.8h-6z"/><path d="m763.3 341.2 2.6-3.9c1.9 1.5 4.2 2.4 6.7 2.5 1.7 0 2.5-.6 2.5-1.6v-.1c0-1.3-2.1-1.7-4.4-2.4-3-.9-6.3-2.2-6.3-6.4v-.1c0-4.3 3.5-6.7 7.7-6.7 2.8 0 5.5.9 7.9 2.4l-2.3 4.1c-1.7-1.1-3.7-1.8-5.7-2-1.5 0-2.2.6-2.2 1.5v.1c0 1.2 2 1.7 4.3 2.5 3 1 6.4 2.4 6.4 6.3v.1c0 4.7-3.5 6.8-8.1 6.8-3.3.1-6.5-1-9.1-3.1z"/></g></svg>