<?xml version="1.0" encoding="UTF-8"?>
<svg width="32px" height="45px" viewBox="0 0 32 45" version="1.1" xmlns="http://www.w3.org/2000/svg" xmlns:xlink="http://www.w3.org/1999/xlink">
    <!-- Generator: Sketch 49 (51002) - http://www.bohemiancoding.com/sketch -->
    <title>Menu_Hero</title>
    <desc>Created with Sketch.</desc>
    <defs>
        <polygon id="path-1" points="6.57883333 8 0.767277778 8 0.767277778 0.125236364 6.57883333 0.125236364 6.57883333 8"></polygon>
    </defs>
    <g id="Symbols" stroke="none" stroke-width="1" fill="none" fill-rule="evenodd">
        <g id="Menu-chel">
            <g id="Page-1">
                <path d="M25.0105728,16.4519561 C24.8995164,15.3566386 25.6761851,14.3662798 26.7366646,14.2508254 L28.9556144,14.0109201 C30.0160938,13.8962154 30.9742272,14.6983986 31.0860094,15.793716 L31.9156658,23.9662384 L31.89389,23.9684875 C31.8967935,24.0022242 31.9062296,24.0337118 31.9069555,24.0674484 L31.9802672,26.2026052 L31.9817189,26.2026052 L31.9984137,26.3308045 C32.0463203,27.7087603 31.0032615,28.8655535 29.6691334,28.9142842 L27.0589458,28.9990008 C26.2176757,29.0297386 25.5128669,28.3475081 25.4881877,27.4778515 L25.4518948,26.4095235 C25.4293932,25.7595302 25.9062823,25.306709 25.9062823,25.306709 L25.0105728,16.4519561 Z" id="Fill-1" fill="#6516B5"></path>
                <path d="M6.98942722,16.4519561 C7.10048359,15.3566386 6.32381487,14.3662798 5.26333544,14.2508254 L3.04438565,14.0109201 C1.98390621,13.8962154 1.02577284,14.6983986 0.913990614,15.793716 L0.0843342169,23.9662384 L0.106109975,23.9684875 C0.103206541,24.0022242 0.0937703789,24.0337118 0.0930445203,24.0674484 L0.0197328002,26.2026052 L0.018281083,26.2026052 L0.00158633483,26.3308045 C-0.0463203338,27.7087603 0.996738496,28.8655535 2.33086663,28.9142842 L4.94105421,28.9990008 C5.78232435,29.0297386 6.48713306,28.3475081 6.51181225,27.4778515 L6.54810518,26.4095235 C6.5706068,25.7595302 6.09371769,25.306709 6.09371769,25.306709 L6.98942722,16.4519561 Z" id="Fill-3" fill="#6516B5"></path>
                <path d="M21,32 C19.3498394,32 18,30.7572959 18,29.2397488 L18,25.9785741 C18,24.8902844 18.9676124,24 20.1496253,24 L21.8503747,24 C23.0323876,24 24,24.8902844 24,25.9785741 L24,29.2397488 C24,30.7572959 22.6501606,32 21,32" id="Fill-5" fill="#6516B5"></path>
                <path d="M24,16.1979572 C24,15.5397554 23.4845878,15 22.8544803,15 L19.1455197,15 C18.5154122,15 18,15.5397554 18,16.1979572 L18,29.0089022 C18,30.1041559 18.8551971,31 19.902509,31 L22.0939068,31 C23.1412186,31 24,30.1041559 24,29.0089022 L24,16.1979572 Z" id="Fill-7" fill="#6516B5"></path>
                <g id="Group-11" transform="translate(9.000000, 37.000000)">
                    <mask id="mask-2" fill="white">
                        <use xlink:href="#path-1"></use>
                    </mask>
                    <g id="Clip-10"></g>
                    <path d="M3.67305556,8.00014545 C5.27138889,8.00014545 6.57883333,6.77687273 6.57883333,5.28305455 L6.57883333,2.07287273 C6.57883333,1.0016 5.64161111,0.125236364 4.49672222,0.125236364 L2.84938889,0.125236364 C1.7045,0.125236364 0.767277778,1.0016 0.767277778,2.07287273 L0.767277778,5.28305455 C0.767277778,6.77687273 2.07472222,8.00014545 3.67305556,8.00014545" id="Fill-9" fill="#6516B5" mask="url(#mask-2)"></path>
                </g>
                <path d="M13.8544803,21 L10.1448029,21 C9.51469534,21 9,21.5363728 9,22.1904496 L9,39.0206355 C9,40.1090252 9.85663082,41 10.9039427,41 L13.0953405,41 C14.1426523,41 15,40.1090252 15,39.0206355 L15,22.1904496 C15,21.5363728 14.4845878,21 13.8544803,21" id="Fill-12" fill="#6516B5"></path>
                <path d="M25.8113554,11 L6.18791094,11 C4.4343765,11 3,12.4666205 3,14.2603236 L3,18.0112712 C3,19.8042241 4.4343765,21.2708446 6.18791094,21.2708446 L8.29948923,21.2708446 C9.78962666,24.3211152 13.15069,26.2228456 16.5983294,25.979034 C19.6094195,25.7667304 22.218444,23.9212642 23.5493693,21.2708446 L25.8113554,21.2708446 C27.5648898,21.2708446 29,19.8042241 29,18.0112712 L29,14.2603236 C29,12.4666205 27.5648898,11 25.8113554,11" id="Fill-14" fill="#C8FF00"></path>
                <path d="M22,15.8657095 C22,15.0576962 21.3784021,14.4032053 20.6079017,14.3907179 C19.9434592,12.4176962 18.1496049,11 16.0347673,11 C13.9192274,11 12.1246708,12.4191653 11.4609306,14.3943907 C11.4447761,14.3936561 11.429324,14.3885142 11.4124671,14.3885142 C10.6321335,14.3885142 10,15.0503506 10,15.8657095 C10,16.6560935 10.5942054,17.2951586 11.3401229,17.3355593 C11.7805092,19.1315526 13.1332748,20.5404341 14.8547849,20.9914524 L16.0312555,22 L17.2105356,20.992187 C18.9362599,20.5419032 20.2932397,19.1293489 20.7315189,17.3274791 C21.4430202,17.2518197 22,16.630384 22,15.8657095" id="Fill-16" fill="#6516B5"></path>
                <path d="M22,16 L11,16 L11,4.89762592 C11,2.19321056 13.4627818,0 16.5003986,0 C19.5372182,0 22,2.19321056 22,4.89762592 L22,16 Z" id="Fill-18" fill="#C8FF00"></path>
            </g>
        </g>
    </g>
</svg>