<?xml version="1.0" encoding="UTF-8"?>
<svg width="74px" height="39px" viewBox="0 0 74 39" version="1.1" xmlns="http://www.w3.org/2000/svg" xmlns:xlink="http://www.w3.org/1999/xlink">
    <!-- Generator: Sketch 49 (51002) - http://www.bohemiancoding.com/sketch -->
    <title>Refactoring</title>
    <desc>Created with Sketch.</desc>
    <defs></defs>
    <g id="Page" stroke="none" stroke-width="1" fill="none" fill-rule="evenodd">
        <g id="GameDev1" transform="translate(-570.000000, -881.000000)" fill-rule="nonzero">
            <g id="game_achieve13" transform="translate(570.000000, 881.000000)">
                <path d="M9.67669173,36.5253989 L11.5338346,31.9910141 C10.0902256,31.0540987 8.81203008,29.8811663 7.7593985,28.5437374 L3.06766917,30.5033926 L0.187969925,24.2596736 L4.87969925,22.3000183 C4.55639098,20.6622043 4.51879699,18.9743261 4.76691729,17.322208 L0,15.5556574 L2.60150376,9.20465799 L7.36842105,10.9712085 C8.35338346,9.59801944 9.58646617,8.38217495 10.9924812,7.38089125 L8.93233083,2.91802677 L15.4962406,0.17880066 L17.556391,4.64166514 C18.5338346,4.46286448 19.518797,4.37704016 20.5112782,4.37704016 C21.2706767,4.37704016 22.0300752,4.42710435 22.7894737,4.53438474 L24.6466165,0 L31.3233083,2.47460114 L29.4661654,7.00898588 C30.9097744,7.94590134 32.1879699,9.11883367 33.2406015,10.4562626 L37.9323308,8.49660737 L40.8120301,14.7403264 L36.1203008,16.6999817 C36.443609,18.3377957 36.481203,20.0256739 36.2330827,21.677792 L41,23.4443426 L38.3984962,29.795342 L33.6315789,28.0287915 C32.6466165,29.4019806 31.4135338,30.6178251 30.0075188,31.6191087 L32.0676692,36.0819732 L25.5037594,38.8211993 L23.443609,34.3583349 C22.4661654,34.5371355 21.481203,34.6229598 20.4887218,34.6229598 C19.7293233,34.6229598 18.9699248,34.5728957 18.2105263,34.4656153 L16.3533835,39 L9.67669173,36.5253989 Z" id="Shape" fill="#6516B5"></path>
                <path d="M49.9368959,38.9928871 L49.9368959,34.149006 C48.2394674,33.7720226 46.609338,33.1318621 45.1287616,32.2498632 L41.5245304,35.6782783 L36.4845887,30.8841875 L40.08882,27.4557724 C39.1615904,26.0474193 38.4886011,24.4968083 38.0922852,22.8821813 L33,22.8821813 L33,16.1035929 L38.0922852,16.1035929 C38.4886011,14.4889659 39.1615904,12.9383549 40.08882,11.5300018 L36.4845887,8.10158672 L41.5245304,3.3074959 L45.1287616,6.735911 C46.609338,5.85391209 48.2394674,5.2137516 49.9368959,4.83676819 L49.9368959,0 L57.0631041,0 L57.0631041,4.84388109 C58.7605326,5.22086449 60.390662,5.86102499 61.8712384,6.74302389 L65.4754696,3.31460879 L70.5154113,8.10869962 L66.91118,11.5371147 C67.8384096,12.9454678 68.5113989,14.4960788 68.9077148,16.1107058 L74,16.1107058 L74,22.8892942 L68.9077148,22.8892942 C68.5113989,24.5039212 67.8384096,26.0545322 66.91118,27.4628853 L70.5154113,30.8913004 L65.4754696,35.6853912 L61.8712384,32.2569761 C60.390662,33.138975 58.7605326,33.7791355 57.0631041,34.1561189 L57.0631041,39 L49.9368959,39 L49.9368959,38.9928871 Z" id="Shape" fill="#6516B5"></path>
                <path d="M48.0970372,14.7622625 C45.5520647,12.4220062 41.4155233,12.4220062 38.8705508,14.7622625 L35.5028833,17.8590367 L35.4875058,17.8448962 L30.8742626,22.0870526 C29.0212766,23.7909854 26.0149798,23.7909854 24.1619938,22.0870526 C22.3090078,20.3831198 22.3090078,17.6186478 24.1619938,15.914715 C26.0149798,14.2107821 29.0212766,14.2107821 30.8742626,15.914715 L31.5047392,16.4944764 L32.7656923,15.3349536 L32.1352157,14.7551922 C29.5902433,12.4149359 25.4537019,12.4149359 22.9087294,14.7551922 C20.3637569,17.0954485 20.3637569,20.8992488 22.9087294,23.2395051 C24.1773712,24.4060981 25.8535163,24.9929297 27.5219726,24.9929297 C29.1904288,24.9929297 30.8665739,24.4060981 32.1352157,23.2395051 L35.5028833,20.1427309 L35.5182608,20.1568714 L40.1315039,15.914715 C41.98449,14.2107821 44.9907868,14.2107821 46.8437728,15.914715 C48.6967588,17.6186478 48.6967588,20.3831198 46.8437728,22.0870526 C44.9907868,23.7909854 41.98449,23.7909854 40.1315039,22.0870526 L39.5010274,21.5072912 L38.2400742,22.666814 L38.8705508,23.2465753 C40.1391927,24.4131684 41.8153377,25 43.483794,25 C45.1522503,25 46.8283953,24.4131684 48.0970372,23.2465753 C50.6343209,20.906319 50.6343209,17.0954485 48.0970372,14.7622625 Z" id="Shape" fill="#FFFFFF"></path>
            </g>
        </g>
    </g>
</svg>