<?xml version="1.0" encoding="UTF-8"?>
<svg width="114px" height="44px" viewBox="0 0 114 44" version="1.1" xmlns="http://www.w3.org/2000/svg" xmlns:xlink="http://www.w3.org/1999/xlink">
    <!-- Generator: Sketch 49.1 (51147) - http://www.bohemiancoding.com/sketch -->
    <title>UnityTextLogo</title>
    <desc>Created with Sketch.</desc>
    <defs>
        <polygon id="path-1" points="0 41 111.778 41 111.778 0.527 0 0.527"></polygon>
    </defs>
    <g id="Page" stroke="none" stroke-width="1" fill="none" fill-rule="evenodd">
        <g id="GameDev1" transform="translate(-649.000000, -520.000000)">
            <g id="Page-1" transform="translate(650.000000, 519.000000)">
                <path d="M36.045,1.0002 L19.513,5.3072 L17.066,9.5072 L12.1,9.4702 L0,21.2392 L12.1,33.0052 L17.064,32.9692 L19.516,37.1662 L36.045,41.4732 L40.473,25.4022 L37.958,21.2392 L40.473,17.0772 L36.045,1.0002 Z M17.464,10.1832 L30.11,7.0212 L22.851,19.2502 L8.33,19.2502 L17.464,10.1832 Z M26.388,21.2392 L33.649,9.0072 L37.156,21.2392 L33.649,33.4662 L26.388,21.2392 Z M17.464,32.2932 L8.33,23.2252 L22.851,23.2252 L30.11,35.4542 L17.464,32.2932 Z" id="Fill-1" fill="#FEFEFE"></path>
                <g id="Group-11" transform="translate(0.000000, 0.473200)">
                    <path d="M73.5442,12.4514 C71.3352,12.4514 69.8522,13.3664 68.7472,15.1024 L68.6522,15.1024 L68.6522,12.8924 L64.7862,12.8924 L64.7862,29.0824 L68.7472,29.0824 L68.7472,19.8984 C68.7472,17.6894 70.1362,16.1754 72.0292,16.1754 C73.8282,16.1754 75.1692,17.2414 75.1692,19.1414 L75.1692,29.0824 L79.1302,29.0824 L79.1302,18.5104 C79.1302,14.9754 76.8892,12.4514 73.5442,12.4514" id="Fill-2" fill="#FEFEFE"></path>
                    <path d="M58.761,22.2268 C58.761,24.3728 57.531,25.8868 55.511,25.8868 C53.68,25.8868 52.529,24.8458 52.529,22.9528 L52.529,12.8858 L48.568,12.8858 L48.568,23.6778 C48.568,27.2128 50.587,29.5168 54.185,29.5168 C56.457,29.5168 57.72,28.6638 58.824,27.1818 L58.919,27.1818 L58.919,29.0748 L62.727,29.0748 L62.727,12.8858 L58.761,12.8858 L58.761,22.2268 Z" id="Fill-4" fill="#FEFEFE"></path>
                    <mask id="mask-2" fill="white">
                        <use xlink:href="#path-1"></use>
                    </mask>
                    <g id="Clip-7"></g>
                    <polygon id="Fill-6" fill="#FEFEFE" mask="url(#mask-2)" points="81.206 29.082 85.167 29.082 85.167 12.893 81.206 12.893"></polygon>
                    <polygon id="Fill-8" fill="#FEFEFE" mask="url(#mask-2)" points="81.206 11.098 85.167 11.098 85.167 7.844 81.206 7.844"></polygon>
                    <path d="M107.5539,12.8929 L105.1999,20.1829 C104.6959,21.6659 104.2539,23.7169 104.2539,23.7169 L104.1539,23.7169 C104.1539,23.7169 103.6169,21.6659 103.1129,20.1829 L100.4539,12.8929 L96.2199,12.8929 L100.5749,24.4119 C101.4899,26.8729 101.8049,27.9139 101.8049,28.7979 C101.8049,30.1229 101.1119,31.0069 99.4079,31.0069 L97.8929,31.0069 L97.8929,34.3839 L100.4169,34.3839 C103.6999,34.3839 104.8379,33.0899 106.0699,29.4929 L111.7779,12.8929 L107.5539,12.8929 Z" id="Fill-9" fill="#FEFEFE" mask="url(#mask-2)"></path>
                    <path d="M92.5481,24.3172 L92.5481,15.7332 L95.0721,15.7332 L95.0721,12.8932 L92.5481,12.8932 L92.5481,7.8432 L88.6131,7.8432 L88.6131,12.8932 L86.3731,12.8932 L86.3731,15.7332 L88.6131,15.7332 L88.6131,25.2322 C88.6131,28.2932 90.9171,29.1132 93.0001,29.1132 C94.7041,29.1132 95.1671,29.0502 95.1671,29.0502 L95.1671,25.9212 C95.1671,25.9212 94.6941,25.9262 94.1561,25.9262 C93.2101,25.9262 92.5481,25.5162 92.5481,24.3172" id="Fill-10" fill="#FEFEFE" mask="url(#mask-2)"></path>
                </g>
            </g>
        </g>
    </g>
</svg>