<?xml version="1.0" encoding="UTF-8"?>
<svg width="147px" height="52px" viewBox="0 0 147 52" version="1.1" xmlns="http://www.w3.org/2000/svg" xmlns:xlink="http://www.w3.org/1999/xlink">
    <!-- Generator: Sketch 49.1 (51147) - http://www.bohemiancoding.com/sketch -->
    <title>UnrealTextLogo</title>
    <desc>Created with Sketch.</desc>
    <defs>
        <path d="M4.202,10.033 C-0.893,15.874 0.074,20.697 0.074,20.697 C0.074,20.697 1.479,17.378 4.861,13.882 C6.463,12.226 7.661,11.673 8.479,11.671 C9.387,11.668 9.825,12.348 9.825,12.953 L9.825,24.813 C9.825,25.982 9.071,26.237 8.376,26.225 C7.783,26.214 7.233,26.008 7.233,26.008 C10.703,31.051 19.005,31.76 19.005,31.76 L22.651,27.865 L22.736,27.939 L26.077,30.786 C32.183,27.157 35.126,20.432 35.126,20.432 C32.401,23.316 30.664,23.988 29.634,23.983 C28.719,23.978 28.361,23.441 28.361,23.441 C28.311,23.191 28.226,19.583 28.196,15.973 C28.165,12.232 28.192,8.49 28.379,8.479 C29.434,6.5 32.797,2.51 32.797,2.51 C26.516,3.748 23.091,7.865 23.091,7.865 C22.08,7.067 20.016,7.2 20.016,7.2 C20.981,7.732 21.948,9.281 21.948,10.563 L21.948,23.176 C21.948,23.176 19.839,25.033 18.215,25.033 C17.253,25.033 16.661,24.508 16.337,24.077 C16.113,23.779 16.018,23.528 16.018,23.528 L16.018,7.953 C15.818,8.097 15.535,8.218 15.244,8.215 C14.899,8.214 14.542,8.041 14.299,7.532 C14.116,7.148 13.998,6.574 13.998,5.74 C13.998,2.864 17.248,0.961 17.248,0.961 C13.119,2.067 9.298,4.191 4.202,10.033 Z" id="path-1"></path>
        <path d="M0.166,26.404 C0.166,40.523 11.514,51.969 25.514,51.969 C39.515,51.969 50.864,40.523 50.864,26.404 C50.864,12.286 39.515,0.84 25.514,0.84 C11.514,0.84 0.166,12.286 0.166,26.404 Z M8.379,43.686 C3.803,39.07 1.281,32.932 1.281,26.404 C1.281,19.876 3.803,13.739 8.379,9.123 C12.956,4.507 19.042,1.965 25.514,1.965 C31.988,1.965 38.073,4.507 42.65,9.123 C47.227,13.739 49.748,19.876 49.748,26.404 C49.748,32.932 47.227,39.07 42.65,43.686 C38.073,48.301 31.988,50.844 25.514,50.844 C19.042,50.844 12.956,48.301 8.379,43.686 Z" id="path-3"></path>
    </defs>
    <g id="Page" stroke="none" stroke-width="1" fill="none" fill-rule="evenodd">
        <g id="GameDev1" transform="translate(-796.000000, -516.000000)">
            <g id="Page-1" transform="translate(797.000000, 515.000000)">
                <path d="M36.6336,34.3998 C35.7196,34.3958 35.3616,33.8578 35.3616,33.8578 C35.3116,33.6078 35.2266,29.9998 35.1966,26.3898 C35.1646,22.6498 35.1926,18.9068 35.3796,18.8958 C36.4346,16.9178 39.7976,12.9268 39.7976,12.9268 C33.5166,14.1658 30.0906,18.2818 30.0906,18.2818 C29.0796,17.4838 27.0156,17.6168 27.0156,17.6168 C27.9816,18.1488 28.9476,19.6978 28.9476,20.9808 L28.9476,33.5918 C28.9476,33.5918 26.8396,35.4508 25.2146,35.4508 C24.2536,35.4508 23.6606,34.9248 23.3376,34.4948 C23.1126,34.1968 23.0176,33.9458 23.0176,33.9458 L23.0176,18.3698 C22.8186,18.5138 22.5346,18.6338 22.2436,18.6318 C21.8996,18.6308 21.5416,18.4578 21.2986,17.9488 C21.1156,17.5658 20.9976,16.9918 20.9976,16.1568 C20.9976,13.2808 24.2476,11.3778 24.2476,11.3778 C20.1186,12.4838 16.2976,14.6078 11.2016,20.4498 C6.1076,26.2908 7.0736,31.1138 7.0736,31.1138 C7.0736,31.1138 8.4796,27.7948 11.8616,24.2988 C13.4636,22.6438 14.6606,22.0898 15.4786,22.0878 C16.3866,22.0858 16.8246,22.7648 16.8246,23.3698 L16.8246,35.2298 C16.8246,36.3988 16.0716,36.6548 15.3756,36.6418 C14.7826,36.6308 14.2336,36.4248 14.2336,36.4248 C17.7026,41.4688 26.0046,42.1768 26.0046,42.1768 L29.6516,38.2828 L29.7366,38.3568 L33.0766,41.2028 C39.1826,37.5748 42.1256,30.8488 42.1256,30.8488 C39.4016,33.7328 37.6646,34.4048 36.6336,34.3998" id="Fill-1" fill="#FEFEFE"></path>
                <g id="Group-6" transform="translate(7.000000, 10.417000)">
                    <mask id="mask-2" fill="white">
                        <use xlink:href="#path-1"></use>
                    </mask>
                    <g id="Clip-4"></g>
                    <polygon id="Fill-3" fill="#FEFEFE" mask="url(#mask-2)" points="-31 105 184.126 105 184.126 -38.417 -31 -38.417"></polygon>
                    <polygon id="Fill-5" fill="#FEFEFE" mask="url(#mask-2)" points="-0.358 32.118 35.484 32.118 35.484 0.602 -0.358 0.602"></polygon>
                </g>
                <path d="M25.5144,1.2573 C11.5144,1.2573 0.1654,12.7023 0.1654,26.8213 C0.1654,40.9403 11.5144,52.3853 25.5144,52.3853 C39.5144,52.3853 50.8644,40.9403 50.8644,26.8213 C50.8644,12.7023 39.5144,1.2573 25.5144,1.2573 M25.5144,2.3823 C31.9884,2.3823 38.0734,4.9243 42.6504,9.5403 C47.2274,14.1563 49.7474,20.2933 49.7474,26.8213 C49.7474,33.3493 47.2274,39.4863 42.6504,44.1023 C38.0734,48.7183 31.9884,51.2603 25.5144,51.2603 C19.0414,51.2603 12.9554,48.7183 8.3794,44.1023 C3.8024,39.4863 1.2814,33.3493 1.2814,26.8213 C1.2814,20.2933 3.8024,14.1563 8.3794,9.5403 C12.9554,4.9243 19.0414,2.3823 25.5144,2.3823" id="Fill-7" fill="#FEFEFE"></path>
                <g id="Group-12" transform="translate(0.000000, 0.417000)">
                    <mask id="mask-4" fill="white">
                        <use xlink:href="#path-3"></use>
                    </mask>
                    <g id="Clip-10"></g>
                    <polygon id="Fill-9" fill="#FEFEFE" mask="url(#mask-4)" points="-24 115 191.126 115 191.126 -28.417 -24 -28.417"></polygon>
                    <polygon id="Fill-11" fill="#FEFEFE" mask="url(#mask-4)" points="-0.193 52.326 51.222 52.326 51.222 0.481 -0.193 0.481"></polygon>
                </g>
                <path d="M105.028,36.85 L106.855,36.85 L106.855,30.669 L105.028,30.669 L105.028,36.85 Z M144.921,24.64 L137.628,24.64 L137.628,16.28 L134.423,16.28 L134.423,27.173 L144.921,27.173 L144.921,24.64 Z M123.136,22.943 L125.343,18.571 L125.42,18.571 L127.641,22.943 L123.136,22.943 Z M127.371,16.28 L123.437,16.28 L117.585,27.173 L121.014,27.173 L121.998,25.218 L128.795,25.218 L129.794,27.173 L133.254,27.173 L127.371,16.28 Z M116.888,24.694 L108.218,24.694 L108.218,22.817 L116.254,22.817 L116.254,20.542 L108.218,20.542 L108.218,18.688 L116.702,18.688 L116.702,16.28 L105.044,16.28 L105.044,27.173 L116.888,27.173 L116.888,24.694 Z M93.253,21.777 L93.253,18.688 L97.248,18.688 C97.795,18.688 98.232,18.705 98.559,18.739 C98.887,18.773 99.137,18.841 99.31,18.943 C99.484,19.044 99.595,19.19 99.647,19.38 C99.699,19.571 99.725,19.82 99.725,20.127 L99.725,20.315 C99.725,20.628 99.699,20.879 99.647,21.07 C99.595,21.26 99.485,21.409 99.314,21.516 C99.144,21.622 98.895,21.693 98.567,21.726 C98.24,21.761 97.8,21.777 97.248,21.777 L93.253,21.777 Z M102.953,25.508 C102.953,25.028 102.928,24.635 102.876,24.327 C102.824,24.019 102.728,23.77 102.59,23.58 C102.45,23.39 102.258,23.247 102.012,23.15 C101.767,23.054 101.454,22.974 101.072,22.911 L101.072,22.849 C101.418,22.77 101.71,22.656 101.947,22.505 C102.184,22.353 102.378,22.162 102.527,21.93 C102.678,21.698 102.786,21.422 102.852,21.101 C102.92,20.78 102.953,20.406 102.953,19.979 L102.953,19.596 C102.953,18.97 102.89,18.445 102.763,18.019 C102.637,17.595 102.409,17.253 102.079,16.995 C101.748,16.737 101.297,16.554 100.723,16.444 C100.151,16.334 99.421,16.28 98.533,16.28 L90.079,16.28 L90.079,27.173 L93.253,27.173 L93.253,24.147 L96.458,24.147 C96.954,24.147 97.381,24.156 97.739,24.174 C98.097,24.193 98.4,24.228 98.645,24.28 C98.89,24.332 99.088,24.406 99.237,24.503 C99.387,24.599 99.503,24.727 99.586,24.886 C99.668,25.045 99.722,25.239 99.748,25.469 C99.774,25.698 99.787,25.972 99.787,26.289 L99.787,27.173 L102.953,27.173 L102.953,25.508 Z M87.865,16.28 L84.721,16.28 L84.721,24.436 L84.66,24.436 L78.428,16.28 L73.558,16.28 L73.558,27.173 L76.701,27.173 L76.701,19.025 L76.763,19.025 L83.073,27.173 L87.865,27.173 L87.865,16.28 Z M64.856,27.299 C65.75,27.299 66.531,27.275 67.202,27.228 C67.873,27.181 68.45,27.101 68.932,26.986 C69.415,26.871 69.813,26.716 70.129,26.52 C70.443,26.325 70.694,26.08 70.88,25.785 C71.065,25.491 71.194,25.139 71.266,24.729 C71.339,24.32 71.375,23.847 71.375,23.31 L71.375,16.28 L68.17,16.28 L68.17,22.27 C68.17,22.635 68.157,22.952 68.132,23.22 C68.105,23.489 68.053,23.716 67.972,23.9 C67.892,24.086 67.778,24.237 67.628,24.354 C67.478,24.472 67.28,24.561 67.032,24.624 C66.784,24.686 66.479,24.729 66.118,24.753 C65.757,24.776 65.326,24.788 64.826,24.788 L64.554,24.788 C64.053,24.788 63.623,24.778 63.262,24.757 C62.9,24.736 62.595,24.693 62.348,24.628 C62.1,24.563 61.902,24.473 61.752,24.358 C61.602,24.244 61.487,24.092 61.408,23.904 C61.328,23.717 61.274,23.49 61.249,23.224 C61.223,22.958 61.21,22.64 61.21,22.27 L61.21,16.28 L58.005,16.28 L58.005,23.31 C58.005,23.852 58.044,24.327 58.121,24.733 C58.199,25.14 58.332,25.491 58.52,25.785 C58.709,26.08 58.962,26.325 59.279,26.52 C59.596,26.716 59.996,26.871 60.478,26.986 C60.961,27.101 61.535,27.181 62.201,27.228 C62.867,27.275 63.641,27.299 64.523,27.299 L64.856,27.299 Z M100.203,36.92 C100.691,36.92 101.12,36.908 101.487,36.881 C101.854,36.854 102.17,36.809 102.433,36.746 C102.697,36.682 102.915,36.596 103.086,36.488 C103.258,36.38 103.393,36.244 103.494,36.08 C103.595,35.915 103.666,35.721 103.705,35.494 C103.745,35.268 103.764,35.005 103.764,34.706 L103.764,33.322 L99.636,33.322 L99.636,34.525 L102.021,34.525 L102.021,34.698 C102.021,34.807 102.013,34.903 101.999,34.984 C101.984,35.065 101.954,35.136 101.909,35.197 C101.864,35.258 101.8,35.308 101.716,35.348 C101.633,35.388 101.521,35.419 101.383,35.441 C101.244,35.463 101.072,35.479 100.869,35.49 C100.666,35.5 100.424,35.505 100.143,35.505 L99.989,35.505 C99.644,35.505 99.349,35.499 99.105,35.488 C98.861,35.476 98.658,35.45 98.495,35.41 C98.333,35.37 98.204,35.313 98.109,35.239 C98.014,35.165 97.943,35.065 97.896,34.939 C97.849,34.814 97.819,34.659 97.806,34.476 C97.793,34.292 97.787,34.072 97.787,33.815 L97.787,33.704 C97.787,33.441 97.793,33.215 97.806,33.027 C97.819,32.84 97.849,32.682 97.896,32.555 C97.943,32.428 98.014,32.327 98.109,32.253 C98.204,32.179 98.333,32.122 98.495,32.082 C98.658,32.042 98.861,32.017 99.105,32.004 C99.349,31.993 99.644,31.987 99.989,31.987 L100.143,31.987 C100.523,31.987 100.83,31.998 101.062,32.022 C101.295,32.046 101.475,32.086 101.604,32.144 C101.732,32.202 101.819,32.279 101.863,32.375 C101.907,32.471 101.928,32.59 101.928,32.732 L101.928,32.808 L103.694,32.808 L103.694,32.568 C103.694,32.296 103.676,32.058 103.637,31.853 C103.599,31.649 103.531,31.475 103.433,31.328 C103.335,31.182 103.202,31.061 103.033,30.966 C102.865,30.872 102.651,30.797 102.392,30.742 C102.133,30.687 101.823,30.65 101.463,30.629 C101.103,30.608 100.682,30.598 100.203,30.598 L99.926,30.598 C99.354,30.598 98.86,30.611 98.441,30.638 C98.022,30.664 97.667,30.717 97.374,30.795 C97.081,30.874 96.843,30.983 96.66,31.124 C96.477,31.264 96.334,31.449 96.231,31.676 C96.13,31.904 96.059,32.181 96.023,32.508 C95.986,32.835 95.969,33.222 95.969,33.668 L95.969,33.85 C95.969,34.294 95.986,34.678 96.021,35.002 C96.056,35.326 96.124,35.601 96.225,35.829 C96.326,36.057 96.469,36.242 96.651,36.384 C96.834,36.526 97.072,36.637 97.365,36.717 C97.658,36.796 98.013,36.85 98.432,36.878 C98.851,36.907 99.348,36.92 99.926,36.92 L100.203,36.92 Z M116.575,30.621 L114.772,30.621 L114.772,35.285 L114.737,35.285 L111.164,30.621 L108.371,30.621 L108.371,36.85 L110.174,36.85 L110.174,32.19 L110.209,32.19 L113.827,36.85 L116.575,36.85 L116.575,30.621 Z M94.622,30.621 L92.82,30.621 L92.82,35.285 L92.785,35.285 L89.211,30.621 L86.419,30.621 L86.419,36.85 L88.221,36.85 L88.221,32.19 L88.257,32.19 L91.875,36.85 L94.622,36.85 L94.622,30.621 Z M124.721,35.432 L119.75,35.432 L119.75,34.359 L124.358,34.359 L124.358,33.058 L119.75,33.058 L119.75,31.997 L124.615,31.997 L124.615,30.621 L117.929,30.621 L117.929,36.85 L124.721,36.85 L124.721,35.432 Z M85.398,36.85 L78.606,36.85 L78.606,30.621 L85.292,30.621 L85.292,31.997 L80.427,31.997 L80.427,33.058 L85.034,33.058 L85.034,34.359 L80.427,34.359 L80.427,35.432 L85.398,35.432 L85.398,36.85 Z" id="Fill-13" fill="#FEFEFE"></path>
            </g>
        </g>
    </g>
</svg>