<?xml version="1.0" encoding="UTF-8"?>
<svg width="34px" height="34px" viewBox="0 0 34 34" version="1.1" xmlns="http://www.w3.org/2000/svg" xmlns:xlink="http://www.w3.org/1999/xlink">
    <!-- Generator: Sketch 49 (51002) - http://www.bohemiancoding.com/sketch -->
    <title>Casual</title>
    <desc>Created with Sketch.</desc>
    <defs></defs>
    <g id="Page" stroke="none" stroke-width="1" fill="none" fill-rule="evenodd">
        <path d="M30.3513514,16.5 C30.3513514,23.4025157 24.4513004,29 17.1756757,29 C9.90005099,29 4,23.4025157 4,16.5 C4,9.59748428 9.90005099,4 17.1756757,4 C24.4513004,4 30.3513514,9.59748428 30.3513514,16.5 Z M12.1081081,15.3933582 L12.1081081,11.5255608 C12.1081081,11.1054926 11.7569696,10.7567568 11.3340072,10.7567568 L10.855182,10.7567568 C10.4322196,10.7567568 10.0810811,11.1054926 10.0810811,11.5255608 L10.0810811,15.3933582 C10.0810811,15.8134263 10.4322196,16.1621622 10.855182,16.1621622 L11.3340072,16.1621622 C11.76495,16.1621622 12.1081081,15.8134263 12.1081081,15.3933582 Z M22.8204937,16.1621622 L22.3416684,16.1621622 C21.9187061,16.1621622 21.5675676,15.8134263 21.5675676,15.3933582 L21.5675676,11.5255608 C21.5675676,11.1054926 21.9187061,10.7567568 22.3416684,10.7567568 L22.8204937,10.7567568 C23.2434561,10.7567568 23.5945946,11.1054926 23.5945946,11.5255608 L23.5945946,15.3933582 C23.5866142,15.8134263 23.2434561,16.1621622 22.8204937,16.1621622 Z M11.9856811,20.8918919 C10.8973255,20.8918919 10.3450256,22.0552912 11.116621,22.733346 C12.6679339,24.0965931 14.812157,24.9459459 17.1756757,24.9459459 C19.5473164,24.9459459 21.6834174,24.1037305 23.2347304,22.733346 C24.0063258,22.0552912 23.4540259,20.8918919 22.3656702,20.8918919 L11.9856811,20.8918919 Z" id="Shape-Copy" fill="#FFFFFF"></path>
    </g>
</svg>