<svg id="Layer_1" data-name="Layer 1" xmlns="http://www.w3.org/2000/svg" xmlns:xlink="http://www.w3.org/1999/xlink" width="193.88532" height="271.72184" viewBox="0 0 193.88532 271.72184"><defs><linearGradient id="linear-gradient" x1="155.97548" y1="36.16582" x2="164.79659" y2="60.1204" gradientTransform="translate(33.70271 -64.12668) rotate(25.55981)" gradientUnits="userSpaceOnUse"><stop offset="0" stop-color="#999"/><stop offset="0.04097" stop-color="#909090"/><stop offset="0.21643" stop-color="#6e6e6e"/><stop offset="0.38335" stop-color="#565656"/><stop offset="0.53672" stop-color="#474747"/><stop offset="0.66383" stop-color="#424242"/></linearGradient><radialGradient id="radial-gradient" cx="-4792.24995" cy="49.2828" r="44.68826" gradientTransform="matrix(-1, 0, 0, 1, -4647.64743, 0)" gradientUnits="userSpaceOnUse"><stop offset="0" stop-color="#999"/><stop offset="0.06948" stop-color="#999" stop-opacity="0.90937"/><stop offset="0.38972" stop-color="#999" stop-opacity="0.52126"/><stop offset="0.66268" stop-color="#999" stop-opacity="0.23842"/><stop offset="0.87475" stop-color="#999" stop-opacity="0.06452"/><stop offset="1" stop-color="#999" stop-opacity="0"/></radialGradient><linearGradient id="linear-gradient-2" x1="18029.78689" y1="2882.55385" x2="18004.87575" y2="2882.7394" gradientTransform="translate(-17882.11264 -2789.59738)" gradientUnits="userSpaceOnUse"><stop offset="0" stop-color="#999"/><stop offset="0.47056" stop-color="#424242"/></linearGradient><linearGradient id="linear-gradient-3" x1="-2501.45681" y1="-1693.62159" x2="-2486.99848" y2="-1670.90135" gradientTransform="matrix(-0.60187, -0.79859, -0.79859, 0.60187, -2821.76584, -872.18217)" xlink:href="#linear-gradient"/><linearGradient id="linear-gradient-4" x1="-2492.79902" y1="-1698.29671" x2="-2473.73314" y2="-1672.87554" gradientTransform="matrix(0.60448, 0.79662, 0.79662, -0.60448, 2862.86404, 1055.76383)" xlink:href="#linear-gradient"/><linearGradient id="linear-gradient-5" x1="-1807.91579" y1="-2957.69965" x2="-1800.92495" y2="-2932.27841" gradientTransform="matrix(-0.60467, -0.79648, -0.79648, 0.60467, -3404.60568, 496.27336)" gradientUnits="userSpaceOnUse"><stop offset="0" stop-color="#999"/><stop offset="0.06172" stop-color="#909090"/><stop offset="0.32604" stop-color="#6e6e6e"/><stop offset="0.57748" stop-color="#565656"/><stop offset="0.80852" stop-color="#474747"/><stop offset="1" stop-color="#424242"/></linearGradient><linearGradient id="linear-gradient-6" x1="-4015.04595" y1="229.95252" x2="-4022.63989" y2="237.54646" gradientTransform="matrix(-1, 0, -0.5262, 1, -3822.55872, 0)" xlink:href="#linear-gradient-5"/><linearGradient id="linear-gradient-7" x1="-4822.4991" y1="69.13773" x2="-4832.6676" y2="82.80165" gradientTransform="matrix(-0.99985, 0.0175, 0.0175, 0.99985, -4714.34105, 214.86138)" xlink:href="#linear-gradient"/><linearGradient id="linear-gradient-8" x1="4091.98377" y1="-16795.49669" x2="4092.02092" y2="-16795.54871" gradientTransform="matrix(0, -1, -1, 0, -16756.30437, 4240.36556)" xlink:href="#linear-gradient"/><linearGradient id="linear-gradient-9" x1="43.49072" y1="105.5725" x2="62.89659" y2="116.24573" gradientTransform="translate(180.59012 151.43898) rotate(135)" xlink:href="#linear-gradient-5"/><linearGradient id="linear-gradient-10" x1="117.16279" y1="157.77845" x2="107.46558" y2="182.34471" gradientTransform="translate(32.37119 356.29661) rotate(-123.16564)" xlink:href="#linear-gradient-5"/><linearGradient id="linear-gradient-11" x1="42.65006" y1="133.51397" x2="51.40006" y2="166.01397" gradientTransform="translate(-102.04696 84.74822) rotate(-45)" xlink:href="#linear-gradient-5"/><linearGradient id="linear-gradient-12" x1="10607.15609" y1="13410.75187" x2="10593.97057" y2="13428.33256" gradientTransform="matrix(0.83239, 0.41877, -0.55419, 0.629, -1238.87838, -12761.9521)" xlink:href="#linear-gradient"/><linearGradient id="linear-gradient-13" x1="-4816.63418" y1="33.26762" x2="-4800.7459" y2="34.69757" gradientTransform="matrix(-1, 0, 0, 1, -4642.34967, 51.9815)" xlink:href="#linear-gradient"/><linearGradient id="linear-gradient-14" x1="94.84753" y1="91.21155" x2="87.70196" y2="108.28825" gradientTransform="translate(-7.43462 190.59802) rotate(-90)" xlink:href="#linear-gradient-5"/><linearGradient id="linear-gradient-15" x1="99.58629" y1="118.18498" x2="108.33629" y2="150.68498" gradientUnits="userSpaceOnUse"><stop offset="0" stop-color="#999"/><stop offset="0.0424" stop-color="#919191"/><stop offset="0.30403" stop-color="#666"/><stop offset="0.50844" stop-color="#4c4c4c"/><stop offset="0.62923" stop-color="#424242"/></linearGradient><linearGradient id="linear-gradient-16" x1="30.72429" y1="126.92624" x2="30.72429" y2="146.32129" gradientTransform="matrix(1, 0, 0, 1, 0, 0)" xlink:href="#linear-gradient"/><linearGradient id="linear-gradient-17" x1="140.52942" y1="32.48895" x2="166.81901" y2="49.79964" gradientTransform="translate(33.84274 -63.28713) rotate(25.55981)" xlink:href="#linear-gradient"/><linearGradient id="linear-gradient-18" x1="-6359.56794" y1="3529.21664" x2="-6373.95431" y2="3529.21664" gradientTransform="matrix(-0.42905, -0.90328, 0.90328, -0.42905, -5762.08627, -4190.96913)" xlink:href="#linear-gradient"/></defs><title>gd</title><rect x="153.45816" y="25.23104" width="9.49992" height="33.99545" rx="0.91106" ry="0.91106" transform="translate(-2.73675 72.39209) rotate(-25.55981)" fill="url(#linear-gradient)"/><circle cx="144.60252" cy="49.2828" r="49.2828" fill="url(#radial-gradient)"/><polygon points="144.234 85.506 151.186 90.574 146.55 93.939 144.234 85.506" fill="#999" fill-rule="evenodd"/><circle cx="137.46741" cy="93.03249" r="10.54599" transform="translate(-18.26295 35.58347) rotate(-13.83954)" fill="url(#linear-gradient-2)"/><path d="M142.25129,85.48647h0a.76542.76542,0,0,1,.76542.76542v1.67a.76543.76543,0,0,1-.76543.76543h0a.76542.76542,0,0,1-.76542-.76542v-1.67a.76543.76543,0,0,1,.76543-.76543Z" transform="translate(-13.55172 146.62665) rotate(-52.3894)" fill="#424242"/><path d="M138.16442,82.51555c.02788-.03136.0562-.06227.08363-.09532H94.09211a9.80176,9.80176,0,0,0-9.802,9.80159v.32081a9.80176,9.80176,0,0,0,9.802,9.80159H131.914C126.424,96.21413,128.51885,84.07736,138.16442,82.51555Z" fill="#999" fill-rule="evenodd"/><circle cx="128.87215" cy="94.20884" r="3.01531" transform="translate(-0.55307 0.76126) rotate(-0.33773)" fill="#424242"/><path d="M35.14476,119.14635l.34888-23.219L4.707,95.67011,4.71124,97.84a10.25066,10.25066,0,0,0,8.8751,10.13793l2.84712.38554c5.28.8529,5.7977,5.68595,5.77913,8.47907C22.18646,120.77171,35.14476,119.14635,35.14476,119.14635Z" fill-rule="evenodd" fill="url(#linear-gradient-3)"/><rect x="2.50277" y="94.17226" width="32.9416" height="4.52816" transform="translate(37.63181 192.93418) rotate(-179.81271)" fill="url(#linear-gradient-4)"/><path d="M26.42171,198.17812h0a8.76423,8.76423,0,0,0,8.76327-8.71375l.24109-74.94044-17.477-.04952L17.708,189.41485A8.76423,8.76423,0,0,0,26.42171,198.17812Z" fill-rule="evenodd" fill="url(#linear-gradient-5)"/><path d="M80.50454,220.75747l-.80314.47738A52.626,52.626,0,0,0,59.504,242.97024l-1.13013,2.26416,38.47692.3133.08292-2.16989a9.77851,9.77851,0,0,0-8.46728-10.15407l-5.46282-.39073c-4.82459-.86251-1.32149-4.91179.17189-7.70487C85.27629,221.199,80.50454,220.75747,80.50454,220.75747Z" fill-rule="evenodd" fill="url(#linear-gradient-6)"/><path d="M149.74957,184.11251v0a8.76423,8.76423,0,0,0-11.96477-3.0933L73.202,219.03483l8.87148,15.05809,64.58282-38.01563A8.76423,8.76423,0,0,0,149.74957,184.11251Z" fill-rule="evenodd" fill="url(#linear-gradient-7)"/><path d="M39.17859,148.36256h.07855C39.22642,148.39328,39.20047,148.39119,39.17859,148.36256Z" fill-rule="evenodd" fill="url(#linear-gradient-8)"/><path d="M52.01962,86.13194h13.8228a0,0,0,0,1,0,0v47.0666a6.91139,6.91139,0,0,1-6.91139,6.91139h0a6.91139,6.91139,0,0,1-6.91139-6.91139V86.13194a0,0,0,0,1,0,0Z" transform="translate(20.61296 234.78003) rotate(-135)" fill="url(#linear-gradient-9)"/><rect x="103.84052" y="124.50774" width="17.4771" height="89.76555" rx="8.73854" ry="8.73854" transform="translate(315.96227 167.81839) rotate(123.16564)" fill="url(#linear-gradient-10)"/><rect x="42.53812" y="121.36546" width="17.4771" height="88.38045" rx="8.73854" ry="8.73854" transform="translate(132.08414 12.23205) rotate(45)" fill="url(#linear-gradient-11)"/><path d="M149.38433,92.35181h0a6.91139,6.91139,0,0,1,6.91139,6.91139v36.96245a6.91139,6.91139,0,0,1-6.91139,6.91139h0a6.9114,6.9114,0,0,1-6.9114-6.9114V99.2632A6.91139,6.91139,0,0,1,149.38433,92.35181Z" transform="translate(139.37319 307.68971) rotate(-125.2281)" fill="url(#linear-gradient-12)"/><path d="M158.62076,59.99888h13.8228a0,0,0,0,1,0,0v45.75851a6.91139,6.91139,0,0,1-6.91139,6.91139h0a6.91139,6.91139,0,0,1-6.91139-6.91139V59.99888A0,0,0,0,1,158.62076,59.99888Z" transform="translate(0.96968 -1.83429) rotate(0.63676)" fill="url(#linear-gradient-13)"/><path d="M91.58169,73.6237h0A6.91139,6.91139,0,0,1,98.4931,80.5351v36.96244a6.9114,6.9114,0,0,1-6.9114,6.9114h0a6.91139,6.91139,0,0,1-6.91139-6.91139V80.5351a6.91139,6.91139,0,0,1,6.91139-6.91139Z" transform="translate(190.59802 7.43462) rotate(90)" fill="url(#linear-gradient-14)"/><path d="M73.55448,155.60771l0,0a19.37814,19.37814,0,0,1-1.20811-24.969l28.01729-34.13517c4.41852-5.57464,12.77624-5.838,17.118-.53932l20.25643,24.72068c4.16823,5.08685,2.5797,12.83591-3.3365,16.27592l-37.3404,21.71182A19.04425,19.04425,0,0,1,73.55448,155.60771Z" fill-rule="evenodd" fill="url(#linear-gradient-15)"/><path d="M22.52957,250.35175H134.85163a26.077,26.077,0,0,0,18.43922-7.63778l3.57067-3.57067a2.85975,2.85975,0,0,0,.00012-4.04418h0a2.85975,2.85975,0,0,0-4.04441-.00012l-2.7328,2.7328a23.21723,23.21723,0,0,1-16.41706,6.80017H22.52957a20.22432,20.22432,0,0,1-14.39487-5.96253l-3.25229-3.25272a2.85975,2.85975,0,0,0-4.04431-.00025l-.00038.00038a2.85975,2.85975,0,0,0-.00016,4.04436L4.09017,242.714A25.90775,25.90775,0,0,0,22.52957,250.35175Z" fill="#424242"/><circle cx="128.77906" cy="263.49961" r="7.74553" fill="#424242"/><circle cx="26.53704" cy="263.9763" r="7.74553" fill="#424242"/><path d="M67.37175,136.20163l.2346-.92444c30.61767,7.76834,53.88965,4.355,71.14441-10.436l.62.72335c-11.46,9.82435-25.50953,14.7086-42.5269,14.7086A120.46308,120.46308,0,0,1,67.37175,136.20163Zm28.24374-3.762c15.60185,0,28.4816-4.47742,38.98881-13.4858l-.62-.72335c-15.79782,13.543-37.10828,16.66733-65.14768,9.55345l-.2346.92444A110.43515,110.43515,0,0,0,95.61548,132.43965Zm-1.22839-7.833c14.18541,0,25.89634-4.07153,35.45118-12.263l-.62-.72335c-14.34181,12.29417-33.69028,15.13079-59.15094,8.67044l-.2346.92444A100.37143,100.37143,0,0,0,94.38709,124.6066ZM93.15916,116.774c12.769,0,23.31108-3.6661,31.91309-11.04111l-.62-.72335c-12.8858,11.04623-30.27322,13.59379-53.15466,7.78789l-.2346.92444A90.32865,90.32865,0,0,0,93.15916,116.774Zm-1.22886-7.83351c11.352,0,20.72629-3.25973,28.37593-9.81784l-.62-.72335c-11.42978,9.79736-26.85522,12.05678-47.15793,6.90488l-.2346.92444A80.26527,80.26527,0,0,0,91.9303,108.94051Z" fill="none"/><path d="M69.95505,136.90178c.09391-.30623.19736-.61.30733-.912,29.68253,7.15147,52.353,3.58475,69.249-10.89873l.62.72335c-11.46,9.82435-25.50953,14.7086-42.5269,14.7086A118.29354,118.29354,0,0,1,69.95505,136.90178Z" fill="#999"/><path d="M125.21286,105.25936l.62.72335c-8.602,7.375-19.14413,11.04111-31.91309,11.04111a75.71351,75.71351,0,0,1-8.96689-.568l.71579-.872C101.99592,117.41474,115.01566,114.00084,125.21286,105.25936Z" fill="#999"/><path d="M120.92535,99.48835c-7.624,6.47833-16.95139,9.702-28.23443,9.702-.576,0-1.16166-.01591-1.74787-.0327l.76844-.93622c11.49931.18657,20.94978-2.95508,28.61071-9.46911Z" fill="#999"/><path d="M129.97888,111.87006l.62.72335c-9.55484,8.19146-21.26578,12.263-35.45118,12.263a90.42457,90.42457,0,0,1-15.85-1.51062l.688-.83815C100.99206,126.15439,117.40891,122.64539,129.97888,111.87006Z" fill="#999"/><path d="M73.825,130.01362l.6789-.82715c25.63428,5.55195,45.37823,2.03527,60.241-10.70617l.62.72335c-10.50721,9.00837-23.387,13.4858-38.98881,13.4858A105.18976,105.18976,0,0,1,73.825,130.01362Z" fill="#999"/><polygon points="17.727 144.211 23.896 148.653 36.071 148.324 43.64 140.345 43.722 135.656 35.309 126.393 35.309 133.085 17.922 133.085 17.727 144.211" fill-rule="evenodd" fill="url(#linear-gradient-16)"/><rect x="151.67751" y="25.95949" width="9.49992" height="33.99545" rx="0.91106" ry="0.91106" transform="translate(-3.2253 71.69511) rotate(-25.55981)" fill="url(#linear-gradient-17)"/><path d="M161.33671,33.6875l5.02971,10.26623L161.93573,49.039a1.49033,1.49033,0,0,1-2.4795-.36035l-3.63341-7.96277a1.48741,1.48741,0,0,1,.28379-1.654C157.68183,37.43533,161.33671,33.6875,161.33671,33.6875ZM145.9783,42.138l2.83035,6.03446a4.36787,4.36787,0,0,0,5.82854,2.09063h0L149.943,40.25484a2.19461,2.19461,0,0,0-2.04242-1.25219h0A2.19461,2.19461,0,0,0,145.9783,42.138Z" fill-rule="evenodd" fill="url(#linear-gradient-18)"/></svg>