<svg id="Layer_1" data-name="Layer 1" xmlns="http://www.w3.org/2000/svg" xmlns:xlink="http://www.w3.org/1999/xlink" width="198.76905" height="252.77591" viewBox="0 0 198.76905 252.77591"><defs><radialGradient id="radial-gradient" cx="82.94536" cy="120.72192" r="75.21252" gradientUnits="userSpaceOnUse"><stop offset="0" stop-color="#999"/><stop offset="0.06948" stop-color="#999" stop-opacity="0.90937"/><stop offset="0.38972" stop-color="#999" stop-opacity="0.52126"/><stop offset="0.66268" stop-color="#999" stop-opacity="0.23842"/><stop offset="0.87475" stop-color="#999" stop-opacity="0.06452"/><stop offset="1" stop-color="#999" stop-opacity="0"/></radialGradient><linearGradient id="linear-gradient" x1="3716.66859" y1="-5818.98606" x2="3717.28787" y2="-5837.68847" gradientTransform="translate(6449.36005 -2768.46479) rotate(-147.16219)" gradientUnits="userSpaceOnUse"><stop offset="0" stop-color="#999"/><stop offset="0.06172" stop-color="#909090"/><stop offset="0.32604" stop-color="#6e6e6e"/><stop offset="0.57748" stop-color="#565656"/><stop offset="0.80852" stop-color="#474747"/><stop offset="1" stop-color="#424242"/></linearGradient><linearGradient id="linear-gradient-2" x1="-2340.84921" y1="-6812.32651" x2="-2357.34912" y2="-6810.70887" gradientTransform="matrix(-0.92958, -0.44604, 0.36862, -1.12481, 453.16701, -8602.21097)" xlink:href="#linear-gradient"/><linearGradient id="linear-gradient-3" x1="63.32084" y1="122.38636" x2="62.51926" y2="136.2805" gradientTransform="translate(-42.12051 228.83112) rotate(-107.4632)" xlink:href="#linear-gradient"/><linearGradient id="linear-gradient-4" x1="105.99717" y1="111.36153" x2="108.15352" y2="139.66369" gradientTransform="matrix(1, 0, 0, 1, 0, 0)" xlink:href="#linear-gradient"/><linearGradient id="linear-gradient-5" x1="149.40848" y1="-8.07269" x2="120.13236" y2="-3.39544" gradientTransform="matrix(1, -0.00011, -0.00011, 1.12984, -0.09656, 111.39374)" gradientUnits="userSpaceOnUse"><stop offset="0" stop-color="#999"/><stop offset="0.04097" stop-color="#909090"/><stop offset="0.21643" stop-color="#6e6e6e"/><stop offset="0.38335" stop-color="#565656"/><stop offset="0.53672" stop-color="#474747"/><stop offset="0.66383" stop-color="#424242"/></linearGradient><linearGradient id="linear-gradient-6" x1="-7498.29288" y1="1441.35956" x2="-7497.52265" y2="1418.09869" gradientTransform="matrix(-0.57927, -0.82346, -0.83392, 0.62961, -3052.9155, -6862.57962)" xlink:href="#linear-gradient"/><linearGradient id="linear-gradient-7" x1="85.88329" y1="117.82142" x2="108.00457" y2="105.35109" gradientTransform="matrix(1, 0, 0, 1, 0, 0)" xlink:href="#linear-gradient"/><linearGradient id="linear-gradient-8" x1="91.60507" y1="127.97136" x2="113.72635" y2="115.50103" gradientTransform="matrix(1, 0, 0, 1, 0, 0)" xlink:href="#linear-gradient"/><linearGradient id="linear-gradient-9" x1="88.98624" y1="123.32579" x2="111.10752" y2="110.85546" gradientTransform="matrix(1, 0, 0, 1, 0, 0)" xlink:href="#linear-gradient"/><linearGradient id="linear-gradient-10" x1="93.60123" y1="120.19038" x2="115.72251" y2="107.72005" gradientTransform="matrix(1, 0, 0, 1, 0, 0)" xlink:href="#linear-gradient"/><linearGradient id="linear-gradient-11" x1="43.93052" y1="98.47789" x2="62.20915" y2="103.04755" gradientTransform="matrix(1, 0, 0, 1, 0, 0)" xlink:href="#linear-gradient"/><linearGradient id="linear-gradient-12" x1="123.18735" y1="236.83181" x2="140.13962" y2="238.65744" gradientTransform="translate(259.26802 -6.96378) rotate(56.77446)" xlink:href="#linear-gradient"/><linearGradient id="linear-gradient-13" x1="-1934.41275" y1="1622.52498" x2="-1842.40296" y2="1629.54268" gradientTransform="translate(-237.62801 -2452.38381) rotate(-56.98274)" xlink:href="#linear-gradient-5"/><linearGradient id="linear-gradient-14" x1="-1915.43476" y1="1635.51016" x2="-1886.79946" y2="1661.30154" gradientTransform="translate(-237.62801 -2452.38381) rotate(-56.98274)" xlink:href="#linear-gradient-5"/><linearGradient id="linear-gradient-15" x1="-1908.47144" y1="1640.72272" x2="-1815.9752" y2="1647.77752" gradientTransform="translate(-237.62801 -2452.38381) rotate(-56.98274)" xlink:href="#linear-gradient-5"/><linearGradient id="linear-gradient-16" x1="-1956.13742" y1="1618.20509" x2="-1876.89463" y2="1617.43657" gradientTransform="translate(-237.62801 -2452.38381) rotate(-56.98274)" xlink:href="#linear-gradient-5"/><linearGradient id="linear-gradient-17" x1="-1956.54447" y1="1622.55389" x2="-1877.30168" y2="1621.78538" gradientTransform="translate(-237.62801 -2452.38381) rotate(-56.98274)" xlink:href="#linear-gradient-5"/><linearGradient id="linear-gradient-18" x1="-1973.66052" y1="1657.59626" x2="-1989.62864" y2="1657.59626" gradientTransform="translate(-250.6656 -2487.77064) rotate(-57.30436)" xlink:href="#linear-gradient-5"/></defs><title>gd</title><circle cx="82.94536" cy="120.72192" r="82.94536" fill="url(#radial-gradient)"/><path d="M189.63654,139.17921l-12.35318,9.002L140.67188,97.11857a7.1449,7.1449,0,0,1,1.5619-9.953l.83829-.61088a7.1449,7.1449,0,0,1,9.953,1.5619Z" fill-rule="evenodd" fill="url(#linear-gradient)"/><path d="M126.818,73.58447h0a7.64256,7.64256,0,0,1,7.64256,7.64256v52.66739A7.64255,7.64255,0,0,1,126.818,141.537h0a7.64256,7.64256,0,0,1-7.64256-7.64256V81.227a7.64255,7.64255,0,0,1,7.64255-7.64255Z" transform="translate(138.94655 -58.28561) rotate(53.87971)" fill="url(#linear-gradient-2)"/><rect x="55.24662" y="101.78897" width="15.28518" height="56.15803" rx="7.64258" ry="7.64258" transform="matrix(-0.30009, 0.95391, -0.95391, -0.30009, 205.64419, 108.84985)" fill="url(#linear-gradient-3)"/><path d="M131.53582,190.14106h0c9.41008-4.19235,15.02423-15.07793,12.15134-25.37789L129.518,117.11983c-2.15109-7.71214-10.70722-11.63312-17.5244-8.03083L80.18822,125.89544c-6.5447,3.45831-8.27875,12.19122-3.64216,18.34238l29.26407,38.82335A21.43544,21.43544,0,0,0,131.53582,190.14106Z" fill-rule="evenodd" fill="url(#linear-gradient-4)"/><path d="M108.96953,108.966l-2.15741-1.1095,2.4259-4.71676c2.206-4.28915,2.67425-6.93656-2.095-14.28375-4.9821-7.67451-3.87536-16.30691,3.28942-25.65713l1.92524,1.47512c-6.56422,8.56725-7.60423,16.04513-3.17965,22.86087,5.16214,7.95288,4.85614,11.58383,2.21742,16.71438Z" fill="#424242"/><path d="M189.28555,137.4423l-9.39674.39924-2.03214,5.12961-.06.63485a19.64536,19.64536,0,0,0,3.76588,13.5351h0l2.8559-2.449,2.90263,3.70892,11.448-8.824Z" fill="#424242" fill-rule="evenodd"/><path d="M134.35985,182.58179h0c5.31467.00461,9.66654-4.03777,9.67083-8.98307L144.13705,28.904,124.811,28.88723,124.70462,173.582C124.70033,178.52726,129.04518,182.57718,134.35985,182.58179Z" fill-rule="evenodd" fill="url(#linear-gradient-5)"/><rect x="84.77549" y="152.04971" width="19.32608" height="66.81465" rx="9.66303" ry="9.66303" transform="translate(270.80982 74.97574) rotate(84.92256)" fill="#424242"/><path d="M133.942,240.80471l10.39552-16.12294L75.69639,180.53793a9.62006,9.62006,0,0,0-13.25922,2.8637v0a9.62006,9.62006,0,0,0,2.86371,13.25922Z" fill-rule="evenodd" fill="url(#linear-gradient-6)"/><path d="M111.41927,117.77771c-4.66671-6.17683-20.74609-5.58856-25.06007,0l0-12.22642a12.53,12.53,0,0,1,12.53-12.53h0a12.53,12.53,0,0,1,12.53,12.53Z" fill="#999" fill-rule="evenodd"/><circle cx="86.87394" cy="117.26297" r="3.65218" fill="url(#linear-gradient-7)"/><circle cx="110.60083" cy="117.26297" r="3.65218" fill="url(#linear-gradient-8)"/><circle cx="98.82753" cy="117.778" r="12.54744" fill="url(#linear-gradient-9)"/><rect x="102.38402" y="112.14792" width="1.74361" height="3.32708" rx="0.8718" ry="0.8718" transform="translate(206.51166 227.62292) rotate(-180)" fill="#424242"/><rect x="93.10788" y="112.14792" width="1.74361" height="3.32708" rx="0.8718" ry="0.8718" transform="translate(187.95936 227.62292) rotate(180)" fill="#424242"/><polygon points="98.737 113.436 95.728 118.695 98.819 121.108 101.882 118.641 98.737 113.436" fill-rule="evenodd" fill="url(#linear-gradient-10)"/><path d="M80.05353,79.15256l-12.85214-8.274L36.10176,119.894a7.1449,7.1449,0,0,0,2.13374,9.84626l.87215.56148A7.1449,7.1449,0,0,0,48.9539,128.168Z" fill-rule="evenodd" fill="url(#linear-gradient-11)"/><rect x="124.7374" y="11.78474" width="19.59514" height="35.43614" rx="9.79756" ry="9.79756" fill="#424242"/><path d="M133.489,228.40015h6.46752a10.45866,10.45866,0,0,1,10.45866,10.45866v5.539a0,0,0,0,1,0,0H121.739a0,0,0,0,1,0,0v-4.24765A11.75,11.75,0,0,1,133.489,228.40015Z" transform="translate(-136.23698 220.69863) rotate(-56.77446)" fill="url(#linear-gradient-12)"/><polygon points="107.839 7.21 86.79 39.601 82.071 31.756 102.707 0 107.839 7.21" fill-rule="evenodd" fill="url(#linear-gradient-13)"/><path d="M54.14029,54.91472l-.31192-11.66951A7.53524,7.53524,0,0,1,55.048,38.91894L74.57052,8.87672a3.75239,3.75239,0,0,1,6.197-.14056l3.7269,5.2036-3.28665,2.354-3.47894-4.85693L58.43813,41.12215A3.51019,3.51019,0,0,0,57.87,43.137l.31192,11.66951Z" fill="#999"/><polygon points="101.964 18.906 49.176 100.137 37.354 80.481 89.106 0.842 101.964 18.906" fill-rule="evenodd" fill="url(#linear-gradient-14)"/><polygon points="83.678 81.134 79.243 87.96 65.521 64.493 69.956 57.667 83.678 81.134" fill-rule="evenodd" fill="url(#linear-gradient-15)"/><path d="M53.12642,70.66545,52.38487,68.889l35.339-54.38144,2.952-1.318S53.13208,70.42641,53.12642,70.66545Z" fill-rule="evenodd" fill="url(#linear-gradient-16)"/><path d="M56.55112,73.3764,55.80957,71.6l35.339-54.38144,2.952-1.318S56.55678,73.13735,56.55112,73.3764Z" fill-rule="evenodd" fill="url(#linear-gradient-17)"/><path d="M78.03769,64.23514l6.33272,9.22417-3.56576,5.55517a1.4586,1.4586,0,0,1-2.45221.0043l-4.65255-7.19266a1.45575,1.45575,0,0,1,.03917-1.64194C75.03261,68.3848,78.03769,64.23514,78.03769,64.23514Zm-9.86322,5.31873-3.93914,6.13687,3.61513,2.32048,3.93914-6.13687a2.14789,2.14789,0,0,0-.01575-2.34467h0A2.14789,2.14789,0,0,0,68.17446,69.55387Z" fill-rule="evenodd" fill="url(#linear-gradient-18)"/><path d="M86.35924,118.4891a12.53,12.53,0,0,1,12.53-12.53h0a12.53,12.53,0,0,1,12.53,12.53v-2.4255a12.53,12.53,0,0,0-12.53-12.53h0a12.53,12.53,0,0,0-12.53,12.53Z" fill="#424242" fill-rule="evenodd"/><path d="M108.16564,175.45756l-4.92642-30.56381c-1.20387-.89273-9.35219-7.76059-9.54566-15.69372l.82127.26533c.19466,7.98723,9.242,14.80612,9.33205,14.87087l.1374.09792,4.97973,30.89468Z" fill="#999"/><path d="M76.34584,144.26082l-.48013-.80863c1.86917-2.45946,4.98368-9.028,4.24829-18.04285l.80232-.10029C81.93718,136.60249,76.88164,143.556,76.34584,144.26082Z" fill="#999"/><path d="M125.84935,158.176l-11.797-18.84639.05765-.17926a18.044,18.044,0,0,0-3.64148-16.65529l.33693-.90971a20.2255,20.2255,0,0,1,4.12819,17.627L125.7538,156.4448Z" fill="#999"/><path d="M124.771,118.6416c-.18044-.04659-4.44235-1.24928-6.49355-10.6832l.79047-.17215c1.93077,8.88312,5.64866,9.94034,5.68854,9.9514Z" fill="#999"/></svg>