<svg id="Layer_1" data-name="Layer 1" xmlns="http://www.w3.org/2000/svg" xmlns:xlink="http://www.w3.org/1999/xlink" width="188.63441" height="238.33108" viewBox="0 0 188.63441 238.33108"><defs><linearGradient id="linear-gradient" x1="51.65534" y1="135.70018" x2="52.15534" y2="152.95018" gradientTransform="translate(189.16812 73.84802) rotate(81.79926)" gradientUnits="userSpaceOnUse"><stop offset="0" stop-color="#c8ff00"/><stop offset="0.10183" stop-color="#afc52d"/><stop offset="0.20779" stop-color="#999056"/><stop offset="0.31183" stop-color="#866478"/><stop offset="0.41151" stop-color="#784293"/><stop offset="0.50569" stop-color="#6d2aa6"/><stop offset="0.59219" stop-color="#671bb1"/><stop offset="0.66383" stop-color="#6516b5"/></linearGradient><linearGradient id="linear-gradient-2" x1="17.93539" y1="221.11453" x2="52.18539" y2="224.73953" gradientTransform="matrix(1, 0, 0, 1, 0, 0)" xlink:href="#linear-gradient"/><linearGradient id="linear-gradient-3" x1="-5.46191" y1="149.11083" x2="36.78809" y2="186.86083" gradientTransform="matrix(1, 0, 0, 1, 0, 0)" xlink:href="#linear-gradient"/><linearGradient id="linear-gradient-4" x1="9641.11095" y1="-4398.85415" x2="9662.77172" y2="-4392.24191" gradientTransform="translate(-10537.40686 -339.42633) rotate(26.44093)" xlink:href="#linear-gradient"/><radialGradient id="radial-gradient" cx="-9050.40854" cy="93.08423" r="71.94587" gradientTransform="matrix(-1, 0, 0, 1, -8941.11698, 0)" gradientUnits="userSpaceOnUse"><stop offset="0" stop-color="#c8ff00"/><stop offset="0.11858" stop-color="#c8ff00" stop-opacity="0.8466"/><stop offset="0.3648" stop-color="#c8ff00" stop-opacity="0.54951"/><stop offset="0.58487" stop-color="#c8ff00" stop-opacity="0.31352"/><stop offset="0.77067" stop-color="#c8ff00" stop-opacity="0.14331"/><stop offset="0.91488" stop-color="#c8ff00" stop-opacity="0.03876"/><stop offset="1" stop-color="#c8ff00" stop-opacity="0"/></radialGradient><linearGradient id="linear-gradient-5" x1="7931.07366" y1="-5503.45818" x2="7912.03765" y2="-5503.45818" gradientTransform="translate(-7840.63202 4593.03013) scale(1 0.80066)" xlink:href="#linear-gradient"/><linearGradient id="linear-gradient-6" x1="9469.39155" y1="-6712.90513" x2="9481.75438" y2="-6703.95834" gradientTransform="translate(-9964.57302 -5594.76355) rotate(65.28087)" xlink:href="#linear-gradient"/><linearGradient id="linear-gradient-7" x1="9881.32275" y1="-4304.34153" x2="9897.07072" y2="-4279.59471" gradientTransform="matrix(0.79118, 0.61158, -0.61158, 0.79118, -10304.15238, -2436.37388)" xlink:href="#linear-gradient"/><linearGradient id="linear-gradient-8" x1="9890.76588" y1="-4309.41464" x2="9911.53243" y2="-4281.7259" gradientTransform="matrix(0.60448, -0.79662, 0.79662, 0.60448, -2406.46944, 10704.4218)" xlink:href="#linear-gradient"/><linearGradient id="linear-gradient-9" x1="11439.32633" y1="-4665.82739" x2="11472.03366" y2="-4619.27568" gradientTransform="matrix(0.65052, 0.75949, -0.75949, 0.65052, -10885.14308, -5566.28271)" gradientUnits="userSpaceOnUse"><stop offset="0" stop-color="#c8ff00"/><stop offset="0.03554" stop-color="#c1ee0d"/><stop offset="0.20145" stop-color="#a1a248"/><stop offset="0.34966" stop-color="#876677"/><stop offset="0.47478" stop-color="#753b99"/><stop offset="0.5719" stop-color="#6920ad"/><stop offset="0.62923" stop-color="#6516b5"/></linearGradient><linearGradient id="linear-gradient-10" x1="2312.17401" y1="-8990.65677" x2="2297.78834" y2="-8971.47587" gradientTransform="matrix(0.83239, -0.41877, -0.55418, -0.629, -6843.88751, -4602.78883)" xlink:href="#linear-gradient"/><linearGradient id="linear-gradient-11" x1="9641.36728" y1="-4357.67094" x2="9657.85257" y2="-4356.18726" gradientTransform="translate(9693.86939 -4299.66374) rotate(180)" xlink:href="#linear-gradient"/><linearGradient id="linear-gradient-12" x1="-3788.94436" y1="-16153.78212" x2="-3840.29324" y2="-16101.16013" gradientTransform="matrix(-0.88702, -0.46173, -0.46173, 0.88702, -10712.40197, 12706.90182)" gradientUnits="userSpaceOnUse"><stop offset="0" stop-color="#c8ff00"/><stop offset="0.1534" stop-color="#afc52d"/><stop offset="0.31301" stop-color="#999056"/><stop offset="0.46974" stop-color="#866478"/><stop offset="0.6199" stop-color="#784293"/><stop offset="0.76178" stop-color="#6d2aa6"/><stop offset="0.89208" stop-color="#671bb1"/><stop offset="1" stop-color="#6516b5"/></linearGradient><linearGradient id="linear-gradient-13" x1="11078.3796" y1="108.22445" x2="11103.14745" y2="110.45356" gradientTransform="translate(-11074.97087)" xlink:href="#linear-gradient"/><linearGradient id="linear-gradient-14" x1="-6398.28593" y1="9337.79633" x2="-6412.67161" y2="9356.97723" gradientTransform="matrix(0.83239, -0.41877, -0.55418, -0.629, 10630.49929, 3314.34655)" xlink:href="#linear-gradient"/><linearGradient id="linear-gradient-15" x1="-8529.94283" y1="6259.06935" x2="-8517.80051" y2="6262.77595" gradientTransform="translate(-10267.3532 2268.64315) rotate(-155.08584)" xlink:href="#linear-gradient"/><linearGradient id="linear-gradient-16" x1="-8836.60405" y1="7271.87558" x2="-8820.11876" y2="7273.35926" gradientTransform="translate(-8714.65768 7428.75323) rotate(180)" xlink:href="#linear-gradient"/><linearGradient id="linear-gradient-17" x1="3891.20859" y1="8737.20173" x2="3864.07546" y2="8737.40384" gradientTransform="matrix(-1, 0, 0, 1, 3947.30812, -8639.55417)" gradientUnits="userSpaceOnUse"><stop offset="0" stop-color="#c8ff00"/><stop offset="0.47056" stop-color="#6516b5"/></linearGradient><linearGradient id="linear-gradient-18" x1="-9081.47518" y1="221.25329" x2="-9096.61747" y2="229.55992" gradientTransform="matrix(-1, 0, 0, 1, -8941.11698, 0)" xlink:href="#linear-gradient"/><linearGradient id="linear-gradient-19" x1="-9086.00768" y1="212.99094" x2="-9101.14996" y2="221.29756" gradientTransform="matrix(-1, 0, 0, 1, -8941.11698, 0)" xlink:href="#linear-gradient"/><linearGradient id="linear-gradient-20" x1="-9080.71993" y1="222.63005" x2="-9095.86221" y2="230.93668" gradientTransform="matrix(-1, 0, 0, 1, -8941.11698, 0)" xlink:href="#linear-gradient"/></defs><title>gd</title><path d="M51.85429,93.73442h.20594a9.415,9.415,0,0,1,9.415,9.415v85.93362a9.415,9.415,0,0,1-9.415,9.415h-.20594a9.415,9.415,0,0,1-9.415-9.415V103.14946a9.415,9.415,0,0,1,9.415-9.415Z" transform="translate(-100.07616 176.69994) rotate(-81.79926)" fill="url(#linear-gradient)"/><path d="M47.633,209.5485l.66358,25.28419-33.52747.65623-.02189-2.36334a11.165,11.165,0,0,1,9.54229-11.14991l3.09617-.45468c5.74019-.99341,6.245-6.26354,6.19065-9.30538C33.49984,207.93655,47.633,209.5485,47.633,209.5485Z" fill-rule="evenodd" fill="url(#linear-gradient-2)"/><path d="M26.03237,229.56484a17.13,17.13,0,0,1-2.24754-7.82535l1.5317-.29556a12.65671,12.65671,0,0,0,2.03293,6.261Z" fill="#6516b5"/><path d="M30.16816,225.15953c-.02561.01879-.14575.11729-.30289.248,5.66478-4.21493,14.66657-5.00649,18.30724-5.14819l.08251,2.12c-10.70917.41681-22.02863,4.04909-21.68051,12.99352l-1.60787.06258a11.17123,11.17123,0,0,1,3.70656-9.0329,15.57832,15.57832,0,0,1-1.758-5.16759l.74627-.30572a1.53972,1.53972,0,0,0,.74553-.21377A11.74043,11.74043,0,0,0,30.16816,225.15953Z" fill="#6516b5"/><path d="M24.0497,233.71646c-2.18914-2.80475-3.65466-8.55461-3.75167-10.48479,0,0,1.2133-.63133,1.45922-.7203a26.16792,26.16792,0,0,0,3.28786,9.48547C24.94672,232.04651,24.19464,233.58356,24.0497,233.71646Z" fill="#6516b5"/><path d="M6.068,131.13268h0a9.546,9.546,0,0,1,12.46772,5.07351l31.7348,75.20371L32.7293,218.80411.99451,143.60039A9.546,9.546,0,0,1,6.068,131.13268Z" fill-rule="evenodd" fill="url(#linear-gradient-3)"/><path d="M75.75689,21.77667l-5.9734,1.61823-.01552-.00772L77.1176,8.608a2.16318,2.16318,0,0,0-3.87379-1.92642l-3.70734,7.455-6.80125-3.38223,3.794-7.62927A2.16319,2.16319,0,0,0,62.6554,1.19862l-5.08559,10.2265a2.126,2.126,0,0,0-.115.30527c-.11186.18544-.222.3725-.32016.5698L55.77827,15.0277l.00272.00135-1.7627,3.54459-3.84321,7.72823L45.00263,36.703l10.63359,5.288L60.80866,31.5899l.05811.0289,7.09122-2.176c.16824-.05166.32617-.11107.48845-.16718a2.02818,2.02818,0,0,0,.39076-.08844l8.45465-2.83863C81.36766,24.98029,79.83262,20.4082,75.75689,21.77667Z" fill-rule="evenodd" fill="url(#linear-gradient-4)"/><circle cx="109.29156" cy="93.08423" r="79.34285" fill="url(#radial-gradient)"/><path d="M80.8199,137.73182h.20594a9.415,9.415,0,0,1,9.415,9.415v78.9423a9.415,9.415,0,0,1-9.415,9.415H80.8199a9.415,9.415,0,0,1-9.415-9.415V147.14685a9.415,9.415,0,0,1,9.415-9.415Z" transform="translate(168.58936 3.07134) rotate(48.97324)" fill="url(#linear-gradient-5)"/><path d="M42.10533,212.32022v0a9.546,9.546,0,0,1,9.46985-9.5659l85.79206-.58779.096,19.03577-85.79206.58779A9.546,9.546,0,0,1,42.10533,212.32022Z" fill-rule="evenodd" fill="url(#linear-gradient-6)"/><path d="M132.02089,202.45524l25.29279-.071-.12955,33.53364-2.36321-.03349a11.165,11.165,0,0,1-10.92326-9.80093l-.382-3.106c-.85864-5.76189-6.11549-6.39-9.15777-6.407C130.07821,216.5467,132.02089,202.45524,132.02089,202.45524Z" fill-rule="evenodd" fill="url(#linear-gradient-7)"/><rect x="138.59955" y="217.90375" width="35.87989" height="4.93206" transform="translate(378.30155 65.80898) rotate(90.51283)" fill="url(#linear-gradient-8)"/><path d="M94.55216,162.41861h0a21.10662,21.10662,0,0,0,21.51122-16.6923l8.38622-47.36313c1.4808-7.605-4.22319-14.70538-11.68274-14.54271l-34.80235.75893c-7.16139.15617-12.44612,6.9608-11.09992,14.29229l8.49662,46.273A20.74294,20.74294,0,0,0,94.55216,162.41861Z" fill-rule="evenodd" fill="url(#linear-gradient-9)"/><path d="M53.3099,53.75632h.16288a7.44644,7.44644,0,0,1,7.44644,7.44644V101.625a7.44643,7.44643,0,0,1-7.44643,7.44643h-.16288a7.44644,7.44644,0,0,1-7.44644-7.44644V61.20275a7.44644,7.44644,0,0,1,7.44644-7.44644Z" transform="translate(-43.81082 86.94519) rotate(-59.99999)" fill="url(#linear-gradient-10)"/><path d="M43.32876,33.37713h.16288a7.44644,7.44644,0,0,1,7.44644,7.44644V80.36072a0,0,0,0,1,0,0H35.88232a0,0,0,0,1,0,0V40.82357A7.44644,7.44644,0,0,1,43.32876,33.37713Z" transform="translate(56.95711 127.11849) rotate(-153.55907)" fill="url(#linear-gradient-11)"/><path d="M109.69777,130.13449c.04537.02361.08836.05.13358.07389l.04513-.08669L154.46493,153.049a3.23219,3.23219,0,0,1-.33734,5.86714l-21.53972,6.792c-2.68557.90378-3.09481,2.73056-2.50669,5.05805L136.74,191.88372a3.17121,3.17121,0,0,1-4.52223,3.65274L87.73223,172.66273l.00179-.00343c-.04552-.02332-.09178-.04342-.13715-.067a23.93279,23.93279,0,0,1,22.1009-42.45778Z" fill-rule="evenodd" fill="url(#linear-gradient-12)"/><circle cx="146.64825" cy="156.05639" r="2.2525" transform="translate(-59.48877 214.08081) rotate(-62.5013)" fill="#c8ff00"/><circle cx="139.01375" cy="157.00242" r="2.2525" transform="translate(-64.43735 207.81808) rotate(-62.5013)" fill="#c8ff00"/><polygon points="2.986 105.442 7.659 96.789 31.021 105.183 21.936 121.709 2.986 105.442" fill-rule="evenodd" fill="url(#linear-gradient-13)"/><rect x="2.9294" y="132.95759" width="115.34605" height="1.06964" transform="translate(68.48405 -12.90007) rotate(27.49871)" fill="#c8ff00"/><rect x="4.15474" y="130.71492" width="115.34605" height="1.06964" transform="translate(67.58698 -13.71922) rotate(27.49871)" fill="#c8ff00"/><rect x="5.35407" y="128.46327" width="115.34605" height="1.06964" transform="translate(66.68283 -14.52737) rotate(27.49871)" fill="#c8ff00"/><path d="M119.81387,90.01277h.16288a7.44644,7.44644,0,0,1,7.44644,7.44644v40.42226a7.44643,7.44643,0,0,1-7.44643,7.44643h-.16288a7.44644,7.44644,0,0,1-7.44644-7.44644V97.4592A7.44644,7.44644,0,0,1,119.81387,90.01277Z" transform="translate(246.74936 227.80318) rotate(176.50064)" fill="url(#linear-gradient-14)"/><path d="M98.3447,189.33618a6.20175,6.20175,0,0,0,8.23717-3.01207l.10412-.30471-.00215-.001,3.97907-8.56664a.37205.37205,0,0,0-.1807-.49416l-7.973-3.70334a.37205.37205,0,0,0-.27532-.01522l-5.19067,1.74547A8.12661,8.12661,0,0,0,92.263,179.2641l-1.11869,2.40865a3.892,3.892,0,0,0,1.88,5.19439Z" fill-rule="evenodd" fill="url(#linear-gradient-15)"/><path d="M112.773,132.24759h.16288a7.44644,7.44644,0,0,1,7.44644,7.44644v39.53715a0,0,0,0,1,0,0H105.32659a0,0,0,0,1,0,0V139.694A7.44643,7.44643,0,0,1,112.773,132.24759Z" transform="translate(78.76902 -33.5463) rotate(25.72038)" fill="url(#linear-gradient-16)"/><circle cx="68.16296" cy="95.44305" r="3.28427" transform="translate(-48.84907 103.42745) rotate(-58.37012)" fill="#6516b5"/><path d="M51.70871,60.509h50.7635a11.32072,11.32072,0,0,1,11.32072,11.32072v.24763A11.32072,11.32072,0,0,1,102.47222,83.398H51.70871a0,0,0,0,1,0,0V60.509a0,0,0,0,1,0,0Z" transform="translate(-21.71654 105.29376) rotate(-58.70785)" fill="#c8ff00"/><polygon points="57.618 103.956 62.602 111.892 66.607 107.107 57.618 103.956" fill="#c8ff00" fill-rule="evenodd"/><circle cx="67.21679" cy="97.73038" r="11.48666" transform="translate(-49.36857 75.886) rotate(-44.86831)" fill="url(#linear-gradient-17)"/><rect x="60.58305" y="98.66256" width="1.6674" height="3.48638" rx="0.82468" ry="0.82468" transform="translate(175.779 128.23754) rotate(135.13143)" fill="#6516b5"/><path d="M78.03233,93.881c-5.02291-4.9061-7.5149.46725-7.5149.46725l-6.33774-3.56792a5.54057,5.54057,0,0,0-7.27528,1.63979c-.0675.09777-.091.142-.05662.11552C57.123,92.32347,64.91046,82.044,64.91046,82.044l12.61568,4.9061Z" fill="#c8ff00" fill-rule="evenodd"/><path d="M149.63266,224.11734a10.22251,10.22251,0,0,1-5.8045,1.87924l-.17308-1.4926a7.65177,7.65177,0,0,0,4.65086-1.73057Z" fill="url(#linear-gradient-18)"/><path d="M146.5192,219.95136c.01306.02548.08188.14538.1733.3023-2.93015-5.63767-3.25381-14.374-3.25381-17.90064h1.55749c0,10.37365,2.34131,21.45861,8.91248,21.45861v1.55749c-2.90125,0-4.9987-1.57739-6.52032-3.925a9.50643,9.50643,0,0,1-3.84091,1.50578l-.203-.73331a1.8828,1.8828,0,0,0-.13553-.72912A7.35657,7.35657,0,0,0,146.5192,219.95136Z" fill="url(#linear-gradient-19)"/><path d="M152.6215,226.19127a15.19693,15.19693,0,0,1-7.7983,3.23394s-.42848-1.19727-.48672-1.43847a16.004,16.004,0,0,0,7.052-2.823C151.42211,225.26081,152.52815,226.04608,152.6215,226.19127Z" fill="url(#linear-gradient-20)"/><path d="M72.4246,126.25611,98.383,115.48346a.51949.51949,0,0,0,.0616-.92882l-10.44825-6.81925,9.33058.77282a.51883.51883,0,0,0,.59395-.57291L95.3251,85.48146l-1.03123.11965,2.51774,21.778-10.87743-.8007a.51916.51916,0,0,0-.33893.96228l11.42118,7.38557-24.98933,10.3706Z" fill="#c8ff00"/></svg>