<svg id="Layer_1" data-name="Layer 1" xmlns="http://www.w3.org/2000/svg" xmlns:xlink="http://www.w3.org/1999/xlink" width="174.39753" height="254.19992" viewBox="0 0 174.39753 254.19992"><defs><linearGradient id="linear-gradient" x1="87.36229" y1="315.91714" x2="87.36229" y2="-41.68919" gradientUnits="userSpaceOnUse"><stop offset="0" stop-color="#c8ff00"/><stop offset="0.1922" stop-color="#c8ff00" stop-opacity="0.7454"/><stop offset="0.41032" stop-color="#c8ff00" stop-opacity="0.48331"/><stop offset="0.60823" stop-color="#c8ff00" stop-opacity="0.27526"/><stop offset="0.77867" stop-color="#c8ff00" stop-opacity="0.12542"/><stop offset="0.91493" stop-color="#c8ff00" stop-opacity="0.03363"/><stop offset="1" stop-color="#c8ff00" stop-opacity="0"/></linearGradient><linearGradient id="linear-gradient-2" x1="87.68437" y1="263.9668" x2="87.68437" y2="-5.06294" xlink:href="#linear-gradient"/><linearGradient id="linear-gradient-3" x1="-3553.10185" y1="1408.35766" x2="-3552.54542" y2="1391.55364" gradientTransform="matrix(-0.35968, 0.93307, 0.93307, 0.35968, -2551.385, 2934.4873)" gradientUnits="userSpaceOnUse"><stop offset="0" stop-color="#c8ff00"/><stop offset="0.1534" stop-color="#afc52d"/><stop offset="0.31301" stop-color="#999056"/><stop offset="0.46974" stop-color="#866478"/><stop offset="0.6199" stop-color="#784293"/><stop offset="0.76178" stop-color="#6d2aa6"/><stop offset="0.89208" stop-color="#671bb1"/><stop offset="1" stop-color="#6516b5"/></linearGradient><linearGradient id="linear-gradient-4" x1="4491.2607" y1="-5085.58285" x2="4491.81712" y2="-5102.38687" gradientTransform="matrix(-0.35968, -0.93307, 0.93307, -0.35968, 6516.92381, 2480.63219)" xlink:href="#linear-gradient-3"/><linearGradient id="linear-gradient-5" x1="-904.53702" y1="-6126.14777" x2="-921.11423" y2="-6124.52255" gradientTransform="matrix(-0.92958, -0.36862, 0.36862, -0.92958, 1522.55246, -5921.77092)" xlink:href="#linear-gradient-3"/><linearGradient id="linear-gradient-6" x1="787.11218" y1="4055.35473" x2="770.53497" y2="4056.97995" gradientTransform="matrix(-0.92958, 0.36862, 0.36862, 0.92958, -711.12522, -3948.16602)" xlink:href="#linear-gradient-3"/><linearGradient id="linear-gradient-7" x1="5644.45169" y1="-4192.93108" x2="5673.68476" y2="-4151.32422" gradientTransform="matrix(-0.63986, 0.88328, 0.76887, 0.71811, 6918.40766, -1867.33215)" gradientUnits="userSpaceOnUse"><stop offset="0" stop-color="#c8ff00"/><stop offset="0.03554" stop-color="#c1ee0d"/><stop offset="0.20145" stop-color="#a1a248"/><stop offset="0.34966" stop-color="#876677"/><stop offset="0.47478" stop-color="#753b99"/><stop offset="0.5719" stop-color="#6920ad"/><stop offset="0.62923" stop-color="#6516b5"/></linearGradient><linearGradient id="linear-gradient-8" x1="64.38373" y1="162.4894" x2="108.58964" y2="162.4894" gradientTransform="matrix(1, 0, 0, 1, 0, 0)" xlink:href="#linear-gradient-3"/><linearGradient id="linear-gradient-9" x1="7293.99545" y1="87.8624" x2="7315.4881" y2="126.11202" gradientTransform="matrix(-1, 0.00007, -0.00007, 1.07695, 7419.33142, 75.43159)" gradientUnits="userSpaceOnUse"><stop offset="0" stop-color="#c8ff00"/><stop offset="0.10183" stop-color="#afc52d"/><stop offset="0.20779" stop-color="#999056"/><stop offset="0.31183" stop-color="#866478"/><stop offset="0.41151" stop-color="#784293"/><stop offset="0.50569" stop-color="#6d2aa6"/><stop offset="0.59219" stop-color="#671bb1"/><stop offset="0.66383" stop-color="#6516b5"/></linearGradient><linearGradient id="linear-gradient-10" x1="7308.13539" y1="231.95458" x2="7308.13539" y2="260.97466" gradientTransform="matrix(-1, 0, 0, 1, 7419.39694, 0)" xlink:href="#linear-gradient-9"/><linearGradient id="linear-gradient-11" x1="64.46565" y1="108.26482" x2="64.46565" y2="171.47183" gradientTransform="matrix(1, 0, 0, 1, 0, 0)" xlink:href="#linear-gradient-3"/><linearGradient id="linear-gradient-12" x1="-8993.97768" y1="108.26482" x2="-8993.97768" y2="171.47183" gradientTransform="matrix(-1, 0, 0, 1, -8884.4421, 0)" xlink:href="#linear-gradient-3"/><linearGradient id="linear-gradient-13" x1="74.29255" y1="115.3393" x2="96.97572" y2="102.55221" gradientTransform="matrix(1, 0, 0, 1, 0, 0)" xlink:href="#linear-gradient-3"/><linearGradient id="linear-gradient-14" x1="80.15966" y1="125.74705" x2="102.84284" y2="112.95997" gradientTransform="matrix(1, 0, 0, 1, 0, 0)" xlink:href="#linear-gradient-3"/><linearGradient id="linear-gradient-15" x1="77.47431" y1="120.98348" x2="100.15749" y2="108.19639" gradientTransform="matrix(1, 0, 0, 1, 0, 0)" xlink:href="#linear-gradient-3"/><linearGradient id="linear-gradient-16" x1="82.20653" y1="129.37801" x2="104.88971" y2="116.59092" gradientTransform="matrix(1, 0, 0, 1, 0, 0)" xlink:href="#linear-gradient-3"/></defs><title>gd</title><rect x="36.36229" width="102" height="106.18034" fill="url(#linear-gradient)"/><rect x="83.89681" y="166.82173" width="27.13808" height="17.45211" fill="#6516b5"/><path d="M7.55037,2.30013V157.27275h9.25324c1.36386-3.06258,2.75363-6.11153,4.19194-9.13369a188.5345,188.5345,0,0,1,11.754-21.61945,48.07367,48.07367,0,0,1,6.16272-8.247c1.98092-1.944-.478-8.77789,2.05478-9.66387,11.83423-4.13934,29.1542,6.39938,41.154,6.28456a107.83372,107.83372,0,0,0,25.93817-3.29313c5.904-1.529,12.18952-4.61751,18.21683-2.07394,4.70732,1.98657,8.63953,5.92141,12.00695,9.90434a98.04134,98.04134,0,0,1,10.51373,15.46629,84.94848,84.94848,0,0,1,6.57838,14.25747,71.93223,71.93223,0,0,1,2.25263,8.11841h10.19064V2.30013Z" fill="url(#linear-gradient-2)"/><path d="M21.82519,93.1712H37.49862a0,0,0,0,1,0,0V145.056a7.83671,7.83671,0,0,1-7.83671,7.83671h0a7.83671,7.83671,0,0,1-7.83671-7.83671V93.1712a0,0,0,0,1,0,0Z" transform="translate(-6.1661 244.41169) rotate(-150)" fill="url(#linear-gradient-3)"/><path d="M145.21754,92.00022h0a7.83671,7.83671,0,0,1,7.83671,7.83671v51.88477a0,0,0,0,1,0,0H137.38084a0,0,0,0,1,0,0V99.83693A7.8367,7.8367,0,0,1,145.21754,92.00022Z" transform="translate(-41.47502 88.93505) rotate(-30)" fill="url(#linear-gradient-4)"/><path d="M72.22119,139.13926h4.22771a7.79464,7.79464,0,0,1,7.79464,7.79464v92.55188a4.68782,4.68782,0,0,1-4.68782,4.68782H69.11437a4.68782,4.68782,0,0,1-4.68782-4.68782V146.9339a7.79464,7.79464,0,0,1,7.79464-7.79464Z" transform="translate(148.67008 383.31286) rotate(-180)" fill="#6516b5"/><rect x="106.17851" y="80.15488" width="15.67343" height="57.58449" rx="7.83671" ry="7.83671" transform="translate(184.19518 -32.27512) rotate(72.72709)" fill="url(#linear-gradient-5)"/><rect x="53.11485" y="80.41531" width="15.67343" height="57.58449" rx="7.83671" ry="7.83671" transform="translate(183.41689 83.83774) rotate(107.46322)" fill="url(#linear-gradient-6)"/><path d="M88.6058,184.22741h0c-10.36193.71612-20.44138-6.01787-22.66073-16.12708l-1.45992-16.34566-8.01873-30.81729A12.29591,12.29591,0,0,1,68.40111,106.076l36.24819-.1685A11.89106,11.89106,0,0,1,116.43193,119.911l-7.28106,32.22568-.8359,14.29671A21.58328,21.58328,0,0,1,88.6058,184.22741Z" fill-rule="evenodd" fill="url(#linear-gradient-7)"/><path d="M64.38373,158.64219c0,13.94634,44.2059,13.94634,44.2059,0v-2.76533c-4.50268,10.27817-39.39068,8.644-44.2059,0Z" fill-rule="evenodd" fill="url(#linear-gradient-8)"/><path d="M109.46352,156.53559h0c-5.44966-.00473-9.91166,3.66354-9.91556,8.15171L99.45368,239.067l19.817.01719.09427-74.37974C119.36882,160.21632,114.91319,156.54032,109.46352,156.53559Z" fill-rule="evenodd" fill="url(#linear-gradient-9)"/><path d="M119.04342,246.94179l4.80489.69167v-4.12356c0-6.31507-4.54074-11.43445-10.142-11.43445h-4.88948c-5.60128,0-10.142,5.11938-10.142,11.43445v4.12356Z" fill-rule="evenodd" fill="url(#linear-gradient-10)"/><ellipse cx="111.31463" cy="247.42819" rx="12.62252" ry="6.77174" fill="#6516b5"/><path d="M166.0461,142.40606l-9.62457-.61371-2.62927,5.00955-.13019.64079a20.14437,20.14437,0,0,0,2.36945,14.20989h0l3.178-2.1868,2.55669,4.09705,12.63131-7.75359Z" fill="#6516b5" fill-rule="evenodd"/><path d="M8.70537,143.35321l10.03246-.63972,2.7407,5.22185.1357.66794a20.9981,20.9981,0,0,1-2.46987,14.81211h0l-3.31268-2.27948-2.665,4.27068L0,157.32442Z" fill="#6516b5" fill-rule="evenodd"/><path d="M51.78976,98.37908v29.14275a12.67588,12.67588,0,0,0,6.92791,11.29773l18.42388,9.37355V105.70391Z" fill-rule="evenodd" fill="url(#linear-gradient-11)"/><path d="M122.21148,98.37908v29.14275a12.67588,12.67588,0,0,1-6.92791,11.29773l-18.42388,9.37355V105.70391Z" fill-rule="evenodd" fill="url(#linear-gradient-12)"/><circle cx="75.30835" cy="114.76666" r="3.74494" fill="url(#linear-gradient-13)"/><circle cx="99.63793" cy="114.76666" r="3.74494" fill="url(#linear-gradient-14)"/><circle cx="87.56558" cy="115.29477" r="12.86616" fill="url(#linear-gradient-15)"/><path d="M100.47716,115.29447c-4.78525-6.33373-21.27306-5.73052-25.69662,0l0-29.1221a12.8483,12.8483,0,0,1,12.8483-12.8483h0a12.8483,12.8483,0,0,1,12.8483,12.8483Z" fill="#c8ff00" fill-rule="evenodd"/><rect x="91.21241" y="118.6435" width="1.7879" height="3.41159" rx="0.89395" ry="0.89395" transform="translate(184.21272 240.69859) rotate(-180)" fill="#6516b5"/><rect x="81.70064" y="118.6435" width="1.7879" height="3.41159" rx="0.89395" ry="0.89395" transform="translate(165.18918 240.69859) rotate(-180)" fill="#6516b5"/><polygon points="87.473 122.452 84.388 127.845 87.557 130.319 90.698 127.789 87.473 122.452" fill-rule="evenodd" fill="url(#linear-gradient-16)"/></svg>