<?xml version="1.0" encoding="UTF-8"?>
<svg width="34px" height="34px" viewBox="0 0 34 34" version="1.1" xmlns="http://www.w3.org/2000/svg" xmlns:xlink="http://www.w3.org/1999/xlink">
    <!-- Generator: Sketch 49 (51002) - http://www.bohemiancoding.com/sketch -->
    <title>Mobile</title>
    <desc>Created with Sketch.</desc>
    <defs></defs>
    <g id="Page" stroke="none" stroke-width="1" fill="none" fill-rule="evenodd">
        <g id="game_mobile-copy" transform="translate(8.000000, 2.000000)" fill="#FFFFFF">
            <path d="M13.9077273,29.68125 L4.63909091,29.68125 C2.08090909,29.68125 0,27.646875 0,25.125 L0,4.55625 C0,2.04375 2.08090909,0 4.63909091,0 L13.9077273,0 C16.4659091,0 18.5468182,2.04375 18.5468182,4.55625 L18.5468182,25.125 C18.5468182,27.646875 16.4659091,29.68125 13.9077273,29.68125 Z M15.9695455,2.86875 L2.57727273,2.86875 L2.57727273,22.434375 L15.9695455,22.434375 L15.9695455,2.86875 Z M9.26863636,24.43125 C8.36181818,24.43125 7.61727273,25.153125 7.61727273,26.053125 C7.61727273,26.94375 8.35227273,27.675 9.26863636,27.675 C10.1754545,27.675 10.92,26.953125 10.92,26.053125 C10.92,25.153125 10.185,24.43125 9.26863636,24.43125 Z" id="Shape"></path>
        </g>
    </g>
</svg>