<?xml version="1.0" encoding="UTF-8"?>
<svg width="34px" height="34px" viewBox="0 0 34 34" version="1.1" xmlns="http://www.w3.org/2000/svg" xmlns:xlink="http://www.w3.org/1999/xlink">
    <!-- Generator: Sketch 49 (51002) - http://www.bohemiancoding.com/sketch -->
    <title>Unity</title>
    <desc>Created with Sketch.</desc>
    <defs></defs>
    <g id="Page" stroke="none" stroke-width="1" fill="none" fill-rule="evenodd">
        <g id="game_unity-copy" transform="translate(2.000000, 2.000000)" fill="#FFFFFF" fill-rule="nonzero">
            <path d="M24.9290323,24.0483871 L19.5483871,14.9903226 L24.9290323,5.93225806 L27.5225806,14.9903226 L24.9290323,24.0483871 Z M12.9387097,23.1774194 L6.17419355,16.4612903 L16.9258065,16.4612903 L22.3064516,25.5193548 L12.9387097,23.1774194 Z M12.9387097,6.80322581 L22.3064516,4.46129032 L16.9258065,13.5193548 L6.17419355,13.5193548 L12.9387097,6.80322581 Z M26.7,0 L14.4580645,3.19354839 L12.6483871,6.3 L8.97096774,6.27096774 L0,14.9903226 L8.96129032,23.7096774 L12.6387097,23.6806452 L14.4580645,26.7870968 L26.7,29.9806452 L29.9806452,18.0774194 L28.1129032,14.9903226 L29.9806452,11.9032258 L26.7,0 Z" id="Shape"></path>
        </g>
    </g>
</svg>