<?xml version="1.0" encoding="UTF-8"?>
<svg width="34px" height="34px" viewBox="0 0 34 34" version="1.1" xmlns="http://www.w3.org/2000/svg" xmlns:xlink="http://www.w3.org/1999/xlink">
    <!-- Generator: Sketch 49 (51002) - http://www.bohemiancoding.com/sketch -->
    <title>Unreal</title>
    <desc>Created with Sketch.</desc>
    <defs></defs>
    <g id="Page" stroke="none" stroke-width="1" fill="none" fill-rule="evenodd">
        <g id="game_unreal-copy" transform="translate(0.000000, 2.000000)" fill="#FFFFFF" fill-rule="nonzero">
            <path d="M19.728669,5.6585733 C20.552232,5.83609717 21.3870767,6.03581152 22.2219213,6.1911449 C22.3911466,6.22443063 22.6506253,6.1911449 22.7521605,6.08019248 C25.166441,3.66142978 28.1222423,2.24123884 31.4164942,1.42019095 C31.5067477,1.39800046 31.6082829,1.38690522 31.6985364,1.36471474 C31.7323814,1.36471474 31.7549448,1.38690522 31.8451982,1.4090957 C31.6082829,1.69757199 31.3826492,1.95276255 31.1795789,2.23014359 C30.2657624,3.40623922 29.3745093,4.60452533 28.4381295,5.76952572 C27.7950735,6.56838312 27.5243131,7.43381198 27.5355947,8.45457422 C27.6032849,12.5598137 27.6145665,16.6761484 27.6484116,20.7813878 C27.6596933,21.4138166 28.2689042,21.846531 29.0473405,21.7133881 C29.4986079,21.6357214 29.9611569,21.4914833 30.3785793,21.2917689 C31.675973,20.6926259 32.747733,19.8161018 33.7292396,18.7953395 C33.819493,18.7065776 33.8984648,18.6067204 34,18.540149 C32.1949305,22.6564837 29.171439,25.7076752 25.4146381,28.1930093 C24.3203146,27.2721042 23.2372729,26.3511992 22.3234565,25.5856275 C21.2629781,26.5398183 20.1912181,27.4163424 19.2209932,28.4038189 C18.7245991,28.9031048 18.2958951,29.0917239 17.585149,28.958581 C14.9113897,28.4925808 12.3504473,27.7713901 10.037702,26.3290087 C9.04491376,25.7076752 8.15366068,24.9753892 7.43163287,24.0544841 C7.36394276,23.9657222 7.30753434,23.8769603 7.23984423,23.7771031 C7.69111161,23.7771031 8.10853394,23.7992936 8.52595627,23.7771031 C9.13516723,23.7438174 9.43977272,23.4775316 9.55258956,22.8894838 C9.5977163,22.6897694 9.60899799,22.4789598 9.60899799,22.2681502 C9.60899799,18.6621966 9.60899799,15.0673383 9.60899799,11.4613847 C9.63156136,10.4850035 8.84184344,9.80819372 7.89418193,10.09667 C7.25112591,10.2852891 6.60806989,10.6403368 6.0891124,11.061956 C3.71995865,12.9814329 1.96001586,15.4001956 0.425706756,17.9853869 C0.335453279,18.1185298 0.267763172,18.2516727 0.109819588,18.5290537 C0.0646928499,18.1851012 0.0195661117,17.9631964 0.00828442714,17.7523868 C-0.0819690493,15.6886718 0.572368655,13.8024808 1.62156532,12.0827183 C4.82556373,6.79028796 9.24798408,2.82928665 15.0467699,0.44380967 C15.5318824,0.244095319 16.0508399,0.110952418 16.5923607,0 C16.2539102,0.266285802 15.904178,0.521476363 15.5770091,0.809952649 C14.2119253,1.98604828 13.5124608,3.43952495 13.7268128,5.25914459 C13.7606579,5.5254304 13.8170663,5.7917162 13.9186015,6.04690676 C14.1442352,6.61276409 14.5616575,6.8013832 15.1595868,6.65714506 C15.2836853,6.62385933 15.4077838,6.59057361 15.5882908,6.5350974 C15.5882908,6.75700223 15.5882908,6.94562134 15.5882908,7.12314521 C15.5882908,11.5834324 15.5882908,16.0437196 15.5882908,20.515102 C15.5882908,21.7466739 16.5246706,22.7008646 17.799501,22.6786742 C18.2846134,22.6675789 18.7697258,22.4678646 19.2435566,22.3347217 C19.4127819,22.2903407 19.5594438,22.1793883 19.7173873,22.1017216 C21.3983583,21.1475308 21.3983583,21.1475308 21.3983583,19.2391492 C21.3983583,15.8883862 21.3870767,12.5487184 21.40964,9.19795542 C21.4209217,7.9441931 20.8906825,6.96781183 19.9881478,6.13566869 C19.8866126,6.03581152 19.7737958,5.95814483 19.6609789,5.86938289 C19.694824,5.7917162 19.7173873,5.72514475 19.728669,5.6585733 Z" id="Shape"></path>
        </g>
    </g>
</svg>