<svg id="bioware-mono" xmlns="http://www.w3.org/2000/svg" width="300" height="67" viewBox="0 0 300 67">
  <title>bioware-mono</title>
   <path d="M207.7077,47.54939c-6.43579.10715-11.20555,4.17876-11.12609,9.25619.07607,4.92881,4.66614,8.91055,10.74244,9.03844a16.36543,16.36543,0,0,0,4.97711-.81224V59.09715a8.15807,8.15807,0,0,1-3.74326.98507c-2.48859.08643-4.33428-1.6072-4.25824-3.55315.07948-2.10147,1.97361-3.34233,4.23061-3.32158a8.14759,8.14759,0,0,1,3.77092.79152V48.32364A12.45578,12.45578,0,0,0,207.7077,47.54939Z"/>
    <path d="M228.04857,47.85011h-.00005c-5.92425.02072-10.77008,4.05087-10.84956,9.0004-.07252,4.75975,4.33226,8.75587,9.90274,9.17323h2.09673c5.472-.40683,9.85178-4.03941,9.85178-9.111C239.05021,51.92172,234.02467,47.82937,228.04857,47.85011ZM228.17641,60.3a3.40241,3.40241,0,0,1-3.61539-3.28012,3.47141,3.47141,0,0,1,3.53935-3.51169,3.39655,3.39655,0,1,1,.076,6.79181Z"/>
    <path d="M258.69968,58.39206c0-.02419,4.46221-.60142,4.36195-4.77673-.10371-4.03012-3.8193-5.16383-7.61444-5.16383l-13.02707-.01383,2.53695,2.43677V65.43963h7.0787V59.74l3.66374,5.6996h8.10523l-5.10509-7.04757Zm-5.02555-2.46441H251.984V53.01394h1.59c.97468,0,1.89754.30069,1.97358,1.35145C255.59936,55.37117,254.70073,55.92765,253.67413,55.92765Z"/>
    <path d="M281.53245,48.4515h.00006l-13.71495-.01383,2.53006,2.4333V65.43963h7.18579V60.31726h3.53587c3.999.02075,7.46232-1.5208,7.35862-6.059C288.32764,50.24884,285.32408,48.4515,281.53245,48.4515ZM279.196,55.90691h-1.66253V52.86186h1.61071c.9989,0,1.87338.27994,1.95286,1.45859C281.19729,55.39192,280.22252,55.90691,279.196,55.90691Z"/>
    <polygon points="185.888 8.675 172.404 40.792 186.987 40.792 193.329 22.038 199.274 40.792 214.109 40.792 201.324 8.675 185.888 8.675"/>
    <path d="M37.45336,19.31078h0c4.082-1.43788,7.63165-4.83547,7.452-9.10758C44.61149,3.61881,38.1619.01727,31.18.01727L0,0V.04832L5.91391,5.95879v34.861H28.51517c8.93819,0,18.6403-2.00816,18.6403-11.68254C47.0967,23.63471,43.60579,20.7521,37.45336,19.31078ZM22.00678,9.69169v0H25.0242c1.95287,0,3.43218,1.13024,3.49091,2.72708.05877,1.54155-1.47931,2.77549-3.25242,2.77549H22.00678ZM26.2685,31.14541h-4.203v-6.4807h3.90573c2.19135,0,4.26172.871,4.37922,3.08654C30.40924,29.70756,28.45638,31.14541,26.2685,31.14541Z"/>
    <polygon points="163.352 2.748 158.091 22.242 152.724 2.748 138.826 2.748 133.237 22.529 128.363 2.748 109.139 2.737 114.697 8.292 124.82 40.92 139.99 40.92 145.749 22.242 151.393 40.92 167.005 40.92 179.241 2.748 163.352 2.748"/>
    <path d="M217.95937,40.79213h13.78749V30.01861l7.14436,10.77355H254.673l-9.94059-13.32435h.00006c0-.0415,8.69279-1.13716,8.49233-9.035-.197-7.61441-7.44158-9.75737-14.83474-9.75737l-25.44935-.01383,5.01863,4.67994Zm13.68723-23.493h3.0969c1.89754,0,3.69838.56684,3.847,2.55081.09679,1.90445-1.64869,2.95865-3.64646,2.95865H231.6466Z"/>
    <polygon points="260.183 40.792 287.156 40.792 287.156 32.448 274.419 32.448 274.419 32.448 274.419 28.843 285.459 28.843 285.459 20.5 274.419 20.5 274.419 17.016 286.759 17.016 286.759 8.675 255.14 8.651 260.183 13.355 260.183 40.792"/>
    <rect x="52.02196" y="8.6824" width="14.38546" height="7.13052"/>
    <polygon points="52.022 23.337 52.022 40.799 66.411 40.799 66.411 18.73 47.055 18.702 52.022 23.337"/>
    <path d="M91.96044,7.54525c-11.54085.04146-20.98025,7.65587-21.12886,17.01231-.15211,9.43591,9.29076,17.29571,20.87652,17.41669,11.78969.20046,21.67843-6.968,21.67843-17.29574C113.38653,15.24261,103.59808,7.50723,91.96044,7.54525Zm.2489,23.5345h-.00006a6.5471,6.5471,0,0,1-7.04409-6.1973c-.14861-3.363,2.64763-6.52219,6.892-6.64317a6.42743,6.42743,0,1,1,.15211,12.84047Z"/>
    <path d="M299.3156,3.85037a5.20531,5.20531,0,0,0-9.71244,2.59922,5.20375,5.20375,0,0,0,5.20188,5.19493,5.20078,5.20078,0,0,0,4.51056-2.59574A5.06591,5.06591,0,0,0,300,6.66672V6.23307A5.08783,5.08783,0,0,0,299.3156,3.85037ZM297.76713,9.4186a4.20139,4.20139,0,0,1-5.94149,0,4.05044,4.05044,0,0,1-1.23049-2.969,4.05821,4.05821,0,0,1,1.23049-2.97251,4.20139,4.20139,0,0,1,5.94149,0A4.06139,4.06139,0,0,1,299.001,6.44959,4.05352,4.05352,0,0,1,297.76713,9.4186Z"/>
    <path d="M295.90408,7.051a1.466,1.466,0,0,0-.47349-.25923,2.135,2.135,0,0,0,1.151-.59106,1.38821,1.38821,0,0,0,.36638-.96432,1.46076,1.46076,0,0,0-.4735-1.14063,2.28359,2.28359,0,0,0-1.53116-.42167h-2.4886l-.00008,0v5.551h1.37908V7.04065a1.36431,1.36431,0,0,1,.17283-.0173.73693.73693,0,0,1,.53923.30763,12.43586,12.43586,0,0,1,1.06114,1.8941h1.64523q-.89177-1.58129-.90556-1.60723A2.605,2.605,0,0,0,295.90408,7.051Zm-.629-1.23741a1.36975,1.36975,0,0,1-.84337.19354h-.59792V4.64534h.65671a1.27175,1.27175,0,0,1,.795.1901.61058.61058,0,0,1,.23848.4908A.595.595,0,0,1,295.27512,5.8136Z"/>
</svg>
