<svg id="blizzard-mono" xmlns="http://www.w3.org/2000/svg" width="340" height="179" viewBox="0 0 340 179">
  <title>blizzard-mono</title>
  <path d="M.4351,165.83323h8.929v2.4046H3.86214v2.596H9.05563v2.44251H3.86214v2.931H9.571v2.47841H.4351Zm315.61976,0h9.79195v2.5681h-3.18225v10.28439H319.2371V168.40133h-3.18224Zm-29.0966,0h4.27885l3.72458,7.70631c.12559.25921.27516.6201.44462,1.08066.16946.46257.35493,1.02688.5623,1.69481-.11166-.634-.18942-1.21429-.24126-1.74464-.05185-.53237-.07777-1.01489-.07777-1.4575v-7.27964h3.0945v12.85255h-4.2609l-3.86812-7.98749a10.26331,10.26331,0,0,1-.50048-1.19835c-.14755-.43068-.28714-.90122-.41474-1.40766q.18246,1.14848.26719,2.11149c.0578.642.08573,1.21027.08573,1.69876v6.78319h-3.0945V165.83323Zm-24.90549,0h8.93057v2.4046h-5.50311v2.596h5.19407v2.44251h-5.19407v2.931h5.70848v2.47841h-9.13594Zm-31.01472,0h4.97873l2.23513,7.72426a7.71857,7.71857,0,0,1,.21334,1.03484c.05586.3828.09571.79553.12163,1.23419.04187-.47456.09572-.91321.15553-1.316a9.64657,9.64657,0,0,1,.21534-1.02687l2.2391-7.65052h4.89895v12.85256h-3.06456v-8.6295c0-.41073.012-.83344.0359-1.27611.02391-.44067.05586-.9092.10168-1.40967-.07777.3848-.1635.75567-.24924,1.10859-.08573.35091-.17944.68588-.27716,1.001l-2.75357,9.20574h-2.927l-2.69375-9.05617c-.0917-.31106-.18145-.66-.26719-1.04282s-.16751-.78756-.24126-1.21623c.04186.60811.07375,1.15843.09967,1.643s.03791.85139.03791,1.09861v8.57365h-2.8592V165.83323Zm-27.81057,0h4.27885l3.72458,7.70631c.12559.25921.27516.6201.44462,1.08066.16946.46257.35493,1.02688.5623,1.69481-.11166-.634-.18942-1.21429-.24127-1.74464s-.07776-1.01489-.07776-1.4575v-7.27964h3.0945v12.85255h-4.2609l-3.86812-7.98749a10.77626,10.77626,0,0,1-.50048-1.19835c-.14957-.43068-.28714-.90122-.41474-1.40766.12163.76565.20938,1.47149.26517,2.11149.05781.642.08775,1.21228.08775,1.69876v6.78319h-3.0945V165.83323Zm-20.09788,0h3.42707v12.85255H183.1296Zm-21.60322,2.86717-1.6639,4.82118H163.135Zm-2.00066-2.86717H163.66l4.86585,12.85255h-3.66175l-.91379-2.72363h-4.94919l-.95726,2.72363h-3.393Zm-28.10648,0h9.79331v2.5681h-3.18321v10.28439h-3.42707V168.40133h-3.183Zm-21.65249,2.25905v3.2939h1.20392a2.835,2.835,0,0,0,1.66748-.40075,1.399,1.399,0,0,0,.5557-1.21027,1.41686,1.41686,0,0,0-.62068-1.2741,3.62768,3.62768,0,0,0-1.95758-.40872h-.84881Zm-3.35629-2.25905h5.1097a6.8779,6.8779,0,0,1,3.78518.82747,2.82311,2.82311,0,0,1,1.23522,2.51827,3.15231,3.15231,0,0,1-.65141,2.05369,3.22808,3.22808,0,0,1-1.88063,1.07865,3.15441,3.15441,0,0,1,1.6272,2.10353v.01l1.53788,4.2609h-3.57243l-1.12992-3.51922a2.22119,2.22119,0,0,0-.74114-1.17638,2.6133,2.6133,0,0,0-1.4665-.325h-.49689v5.02059h-3.35629V165.83316Zm-25.50726,0H89.832v2.4046H84.3303v2.596h5.19325v2.44251H84.3303v2.931h5.70887v2.47841H80.90323V165.83323Zm-25.796,0h9.79352v2.5681H61.71754v10.28439H58.29047V168.40133H55.10726v-2.5681Zm-29.16481,0h4.27906l3.72355,7.70631q.1902.38882.44464,1.08066c.16989.46257.35533,1.02688.56188,1.69481-.11087-.634-.18842-1.21429-.24047-1.74464-.05264-.53237-.07737-1.01489-.07737-1.4575v-7.27964h3.0937v12.85255H33.46652L29.598,170.69829a10.39446,10.39446,0,0,1-.5-1.19835c-.14835-.43068-.28693-.90122-.41374-1.40766q.18063,1.14848.26539,2.11149c.05881.642.08652,1.21027.08652,1.69876v6.78319h-3.0937V165.83323Z" stroke="#000" stroke-width="0.43205"/>
  <path d="M332.3428,60.43873a66.44714,66.44714,0,0,0-.01593-15.21027c-.14362-1.33068-1.5094-2.73181-1.6709-4.06012-.52838-4.34881.28509-8.83166-.49445-13.14263-.28918-1.60187-1.5094-2.84028-2.05572-4.34784-.70185-1.939-.81751-4.11975-1.92206-5.89887-.78162-1.26074-2.51428-2.10333-3.563-3.15253-3.5611-3.56042-2.75751-2.06164-7.25372-2.95892-.92713-.18463-1.49933-1.25452-2.40461-1.52527-1.60705-.48114-4.15326-1.20233-5.58483-1.5592-1.23218-.30768-1.99781.59332-3.23005.2857-.52844-.1322-5.08044-1.43518-5.34558-1.55944-1.47345-.69068-1.93-1.8722-3.34173-2.68537a62.00442,62.00442,0,0,0-5.79023-2.88348c-1.20422-.37586-1.97387.21655-3.15026-.23969-.48853-.18921-1.45954-1.0791-1.976-1.15985a27.51552,27.51552,0,0,0-4.879-.332c-1.24811.0365-2.3667.123-1.68879,1.11377a13.71407,13.71407,0,0,0,3.60492,3.62946c1.16242.85833,2.56409,2.38983,3.82026,3.332,1.42364,1.06653,2.66381,1.58154,3.15429,3.23486.67993,2.28259.34894,4.95239.12763,7.61963-.02991.36883-.78754,1.22839-.79553,1.59827-.0738,3.20593.20135,4.47363.33294,7.66107.02789.70263-1.38977.68573-1.44757,1.387-.333,4.15961-.07776,7.93561-.02191,12.113.05188,3.92395-.11163,8.24987.02191,12.16742.02191.66375.57221,1.1184.57221,1.78216,0,1.78034.21142,3.08948.21734,4.62158.006,1.73609-.18139,3.69208.008,5.7005.06378.68146.6101.80988.72973,1.484.23328,3.583-.17547,7.29236.15949,10.91486.04785.523,1.34387,1.1557,1.43158,1.67285.45068,2.63873-.29706,5.68695.44665,8.25848a26.29431,26.29431,0,0,0,2.34278,4.49341c1.00488,1.84851,1.9779,3.16608,2.11151,4.97669.27112,3.63623-.5683,4.48205-.70587,8.03076-.16352,4.232-1.43763,8.67236-1.298,13.0708.05188,1.64893,1.47748,3.597,2.25708,5.04852.4466.83344.53241,2.5083,1.11261,3.62683.54431,1.05078,1.6131.90924,1.29206,1.7367a3.29513,3.29513,0,0,1-1.67487,1.637c-1.46753.652-3.32977.75372-3.4494,1.57715-.339,1.288.59613,1.99188,1.16638,3.34174a8.51794,8.51794,0,0,1,.5603,4.28881,27.38183,27.38183,0,0,1-.997,2.87714,6.46625,6.46625,0,0,1-2.16333,3.603c-.62609.62408-1.56713.85736-1.1903,2.05371l-.00031-.00006c.29114.93115,1.10462.46655,2.13544.49249a24.62592,24.62592,0,0,0,5.18207-.668c.78967-.1535.52044-.72974,1.25817-1.04675a4.23874,4.23874,0,0,1,3.34174,0c.66.313.48456.50244,1.05078.967a1.40793,1.40793,0,0,0,1.55927,0c.73578-.52637.19543-.53235,1.00091-.95105,1.34394-.69586,2.98688-.51642,4.45435-.88929,2.32287-.59216,4.49023-.87133,6.506-2.16534a13.75348,13.75348,0,0,0,5.1402-5.96765c1.35388-3.49725,1.57117-8.03131,1.79846-11.13782.12164-.56824.979-1.23816,1.03485-1.8164.327-3.39954-.1076-6.8689.3988-10.24653.18348-1.22222,1.20838-1.89416,1.3678-3.1184.45465-3.53516.08972-6.73169-.06378-10.293-.21735-5.05249-.321-8.97443-.17352-14.02991.47461-2.64868.21734-5.99084,1.24023-8.4353.3888-.93115,1.60108-1.24121,2.13147-2.10132a9.51665,9.51665,0,0,0,1.59113-4.00952c.20331-2.88971-.652-5.82306-.22333-8.6875C330.68984,62.85017,332.13338,62.1529,332.3428,60.43873Zm-13.21729,3.32062a10.96254,10.96254,0,0,0-1.42963,4.35205c-.43267,3.943-1.55126,3.32733-2.68975,6.31341a12.46578,12.46578,0,0,0-.26917,3.74006q-.14951,10.29646-.30109,20.59381c-.06384,4.38592-.88928,6.47845-2.6618,10.52826a9.987,9.987,0,0,0-1.5871,5.38147c0,2.604-.53235,3.80432-1.5672,6.177q-.94518,2.1654-1.89221,4.33471c-.74768,1.71271-1.43359,2.32685-1.93,2.09754-.49646-.2273-.80359-1.302-.79553-2.96491q.06582-12.57037.13159-25.13873.14364-13.36422.28717-26.7279c-.11164-1.91333-.03986-2.33722-1.296-3.75629-.11762-2.88416-.674-4.18872-1.5871-6.93469-1.15247-2.16516-1.02087-3.74469-1.04877-6.21991q-.10776-9.28794-.21734-18.57691c-.04389-3.79974.81549-2.50073,4.3825-2.68915h-.00012c2.23719-.11846,2.67584-.23986,4.66767.83,2.05969,1.10443,2.49035,1.83295,3.74853,3.82868q.97494.939,1.94605,1.87823c2.64587,2.55377,3.894,6.15808,4.97467,9.53546C320.16824,54.00831,320.95589,60.4322,319.12551,63.75935Z"/>
  <path d="M57.49941,104.93946c.04846-3.60254-.09851-7.40924-.12585-11.199-.02606-3.56049.07739-7.108-.2121-10.45929-.23846-1.551-2.69214-1.60608-2.95532-3.15253-.8233-4.82977,1.30078-9.90814.33813-14.71063-.373-1.86066-3.516-2.03754-4.06012-3.85254-.60931-2.03516,1.41071-4.15124.32062-5.95728-1.13409-1.87866-6.67749-.30352-6.1449-2.44909.51538-2.07562,2.70569-3.76544,3.93628-5.58545a93.88151,93.88151,0,0,0,5.76233-9.3385,16.48972,16.48972,0,0,0,2.05408-7.49262c.03546-3.23864-.68909-8.01416-1.05-12.2304-.29413-3.43567-1.95679-5.47736-4.27429-7.95575-1.44574-1.54688-4.20386-1.35267-6.09009-2.259-1.376-.66119-1.87366-3.3244-3.38318-3.47394-9.43078-.93432-19.17029.01172-28.635.42865-1.2135.05347-1.97155.76624-3.16949.9726C7.583,6.609,3.7961,5.56336,1.76022,6.57484.53139,7.18513-.40354,10.009.17611,11.28517c1.49554,3.29028,4.73865,4.83929,7.31952,7.30535.4223.40357,1.86188-.28912,2.11908.24341a4.31259,4.31259,0,0,1,0,3.15216c-.26837.778-1.63916.92835-1.69177,1.75141.243,9.23681-.10151,18.53344-.29352,27.77411-.07831,3.80786,1.09845,1.61718,1.91235,3.51318a5.78964,5.78964,0,0,1,0,3.8526c-.9989,3.25238-1.26233,3.22284-1.15149,6.81262.075,2.41162-.21472,6.68988.74378,7.78412.66076,1.14032.04046,2.57507.03845,3.49707a5.37638,5.37638,0,0,1-1.036,3.81506c0,2.80219-.69489,24.91132-.01795,31.56727,1.12751,4.31872.78955,17.15728-.33856,26.84753-1.174,2.29694-.57727,5.11627-1.561,6.33453a7.295,7.295,0,0,1-2.5083,1.75263c-.65339.305-2.10669.28912-2.65033.72577-.90595.72772-.42774,1.96191,2.1228,2.48632l.00134-.00006c4.26465.87336,11.0835-.20733,14.58673.11567,3.44861.319,1.18341.9591,4.22046-1.48542a1.66953,1.66953,0,0,1,2.03,0c.89862.75965.53955,1.71674,1.69177,1.86426,1.45911.18945,1.58954-.971,2.97327-1.48541,1.50061-.5603,4.061.15948,5.27124-.91718.95245-.08374,2.93317-2.72564,6.03143-5.03058a31.205,31.205,0,0,1,8.16254-4.31872c1.62762-1.964,1.34149-6.5379,2.35-9.67029,1.16443-3.61688,4.1493-6.23883,4.98572-9.95142.79376-3.5252-.44147-7.58471-.01794-11.17968C55.62832,107.09168,57.40627,106.29749,57.49941,104.93946ZM27.94881,21.889c-.04547-1.64679,1.2815-1.54364,2.85944-1.85254,1.57953.09076,4.60046-.09729,4.9209.726.32.82385.2857,2.02258,3.05517,1.71368,2.76972-.309,1.97059,1.58655.81153,2.71888-1.15924,1.13214-.47693,1.956.24023,2.77905a3.36571,3.36571,0,0,1-.09887,3.60278c-.67493.72034.09094,3.29407.46276,5.97046.37146,2.67633-.7146,2.88208-.7146,2.88208a27.518,27.518,0,0,1-3.15789.617c-1.23182.183-2.717,2.61639-3.71979,4.56359-.77637,1.506-1.07367,2.11512-1.606,2.33484-.53223.2193-1.29986.04944-3.01636-.001v-.00019s-.21038-14.82251-.23309-15.64593S27.9949,23.53572,27.94881,21.889Zm12.69336,80.91522a10.76611,10.76611,0,0,1-.012,6.17963q-1.03089,4.13625-2.062,8.27258c-.07739,2.08563-.2674,4.17322-.41553,6.2608-.22412,3.18018-.648,3.262-2.85943,5.535-2.009,2.06568-4.59467,3.83222-6.533,5.67859-2.14222.81739-3.8089.89325-5.9513,1.71039l-.00018.00037H22.808l.001-.00037q1.18424-2.2759,2.36872-4.55365-.33912-7.52791-.67713-15.05975,1.0157-1.40268,2.03021-2.80341v-15.17c0-2.299-.32043-4.59766-.32043-6.89563-2.37512-1.9646-1.23938-1.936.67651-4.20288,0-2.218.53492-4.00751.53492-6.22608q-.33912-2.80151-.67713-5.604.50821-1.40058,1.01532-2.802c0-2.80921.32044-5.0824.32044-7.892,0-2.63788.07635-3.52154.55865-3.35626.4823.165,1.37116,1.38037,2.994,2.94055q1.84945,1.7786,3.70026,3.55743c2.27838,2.18946,4.49694,2.38868,3.5736,5.97626-.863,3.35626,1.61719,4.28742.84638,7.618-.58881,2.54395-1.36279,4.09943-1.19135,5.67658a5.599,5.599,0,0,0,1.57178,3.08014c.94849,1.09021,1.26453,1.02221.69763,2.36413-.87909,2.07941-1.62835,3.29206-1.71631,4.54047C39.00185,99.23316,39.87576,99.97053,40.64217,102.80421Z"/>
  <path d="M150.80978,146.85151c-.99158-5.13818,1.99029-14.86633-.75965-14.95807-4.82165-.52637-13.13031-.19934-19.62494-.16345-6.86871.03589-13.18609-.52637-19.9934.38879-1.57258.20935-2.462,1.83435-3.99311,2.24714a18.98486,18.98486,0,0,1-8.13183.13555c-2.00568-.35888-3.50287-1.69879-5.532-1.50738-1.68438.15955-2.37671,2.45245-4.01245,2.88312a18.36327,18.36327,0,0,1-9.30084.13562c-.86237-.25128.19879-1.89423-.22394-2.68781-.26758-.50043-1.60827-.10565-1.568-.67193.07159-1.01288,1.62182-1.46351,1.79187-2.46442.45062-2.64984-.39819-5.4054,0-8.06323.07959-.53235,1.26831-.36292,1.34411-.89527.25342-1.78051-.75311-3.60492-.448-5.3775.10888-.632,1.25653-.55829,1.568-1.11853a3.24474,3.24474,0,0,0,.195-2.63995c-.18763-.67786-.7804-.36286-1.11042-.983a2.7526,2.7526,0,0,1,.34076-2.44446c.597-.8454,2.47919-1.49146,2.415-2.52484a33.63469,33.63469,0,0,1-.29187-5.35376c.05481-.79035-1.53888-1.53608-1.6557-2.31946a32.62907,32.62907,0,0,1-.06921-4.1806c-.01935-1.04493-.34113-1.991.17645-2.93793A8.88654,8.88654,0,0,0,82.997,87.94081c.3288-7.98188,1.09845-16.0232.25305-23.96778-.15155-1.42523-2.40722-1.93323-2.55175-3.36a157.776,157.776,0,0,1-.22394-25.31165c.03967-.66577,1.28961-.24847,1.45111-.89606a10.14831,10.14831,0,0,0-.22388-5.51269c-.25024-.72534-1.291-.387-1.67529-1.05158a4.07548,4.07548,0,0,1-.448-3.06781c.16071-.57916,1.30957-.29767,1.3634-.89581.16077-1.77838-.1242-3.55127-.09808-5.30194.02972-1.98407.32544-3.94129-.34949-5.84882-.535-1.51074-1.438-1.98571-2.48541-3.05261-.81488-.82983-1.69177-2.31592-2.7254-3.01434-.70423-.47577-2.09912.20379-2.873-.14777-1.15686-.525-1.223-2.09253-2.464-2.36554-2.84692-.62567-5.71246.64527-8.59961.2431-.66-.09155-.64837-1.34149-1.23681-1.65533a2.33078,2.33078,0,0,0-2.39606,0A2.89029,2.89029,0,0,0,56.779,5.91938c.8169,1.44635,2.2461,2.18665,3.30646,3.16907,1.12793,1.046,1.90338,2.32281,3.24823,3.47131.52258.446,1.79071.11646,2.22015.653.62153.77759.41114,1.554.87653,2.43371.25122.47535,1.15527.98719,1.27606,1.51093a10.53863,10.53863,0,0,1,0,4.92786c-.22387.87036-1.171,1.39294-1.51953,2.221a2.45061,2.45061,0,0,0-.27234,2.03492c.337.718,1.34546.59021,1.51892,1.36322.53992,2.40423.17072,5.0487.22412,7.3919.0351,1.53766-3.28253,1.57917-3.311,3.11689-.03693,2.004.21435,4.54541.24463,7.27185.02734,2.60138,1.49963,1.76056,1.54724,2.3601.50848,6.40119-.36688,12.45276.13617,18.85389.04425.56646,1.18915.56848,1.43182,1.0819a5.30242,5.30242,0,0,1,.10071,3.584c-.19641.72-1.36481.60193-1.44476,1.344-.47113,4.38062.83679,8.85346.22412,13.21582-.116.82612-1.37641.38147-1.763,1.12-.55451,1.05994-.04187,1.503.04883,2.69592.05926.77643-.178,2.356-.078,3.128a6.15887,6.15887,0,0,1,0,2.91205c-.17541.46839-1.30334.44721-1.34381.94531-.22,2.68555-.03894,5.32886-.08575,7.96454a41.713,41.713,0,0,0,.1535,7.64691c.23108,1.35584,2.30512,1.33789,3.06818,2.48236a2.05332,2.05332,0,0,1,0,2.01581c-.34912.61212-1.60944.44068-1.79212,1.12055-.40734,1.51538.41535,2.63995.02,4.15728-.21234.8155-1.33569.48853-1.47729,2.03376a35.86883,35.86883,0,0,0,.10669,7.32147c.30639,2.7157.79834.81354,1.57513,1.72076a1.47035,1.47035,0,0,1,0,1.56714c-.32342.55432-1.41687.49646-1.568,1.12055-.49225,2.0318.58081,4.38653-.56488,6.13519-1.948,2.97284-6.1543,3.32776-8.2879,6.173-.54615.72974.83062,2.46247,1.70434,2.71766.80029.23529,2.15656-.41871,2.98981-.43665,2.70325-.0578,5.67895.83545,8.22949-.05981h-.00024c3.40911-1.19837,3.39874-4.09546,6.67108-5.62677,1.75586-.82349,5.08935-.6081,6.95343-.06977,1.31738.38282,1.50659,1.10657,3.58221,1.22028,9.68964.52832,18.965-.48853,28.645.2193.94647.06976,1.07605,1.88818,2.016,2.01776,4.14087.57226,8.32422-.46851,12.47547.02991,1.55682.18548,3.27594,1.647,4.80127,2.01587,1.01788.24517,2.16674-.62214,3.136-.22535.88446.36292.83844,2.20124,1.79212,2.24109,4.85382.20539,9.38055-.13952,13.85418-.11761,2.3783.00995,2.0232-.82941,1.10724-2.48035C151.98116,148.59614,151.02554,147.9701,150.80978,146.85151Z"/>
  <path d="M84.72475,9.63178c1.3758.86615,2.55,1.85834,4.12793,1.89142,1.92572.04,3.45862.67108,4.12812,2.59882q.25845,11.5514.5158,23.10284c.05768,5.67951.23273,11.3595.28956,17.038.05737,5.679-.002,11.359.05462,17.03827q.17195,10.01175.34418,20.02252s-.34418,2.50293-.86017,3.08057c-.51581.57739-.34393,5.58282-.34393,5.58282,1.905,1.65955,1.5,1.42725.17224,3.6582q-.17286,7.41267-.34412,14.82343-.6882,1.34884-1.3764,2.69574s-4.95142,2.90106-4.95142,5.40338c0,0,.69727,3.0686,2.41718,1.91211,1.71991-1.15442,2.41717-2.88709,4.13714-2.88709s8.88947-1.3479,10.60938,0,1.89221.19135,2.75214.19135a33.24733,33.24733,0,0,1,3.38623.44867c2.19885-.22931,1.75061-3.72455.16149-4.74744-2.29394-1.79645-5.38226-2.95093-7.67565-4.74939q-.34479-2.59908-.68805-5.19806.94565-1.34582,1.89221-2.69568v-8.66265q-.51627-1.15532-1.03223-2.31049-.1723-3.27219-.34418-6.54547-.42974-.57788-.86-1.15527V87.66548c.57349-.83381,1.73492-1.668,2.30872-2.50251.17187-1.60449-.59693-2.73681-.42487-4.34124-.40161-2.05329-.45044-4.57892-.85162-6.63245V66.68092c1.66369-.496,2.06689-1.2334,2.18573-1.97949.15271-.96027-.31763-2.09058-.80994-4.374-.22931-12.0003-.34076-24.473-.57007-36.47375.915-1.43421,2.01184-2.17615,2.035-3.23865.01795-.82727-.8703-1.517-1.98071-2.44989V15.66224s1.89221-3.85052,3.43988-3.85052a2.45627,2.45627,0,0,0,2.58026-2.30994c1.41248-2.80634-1.548-3.08051-1.548-3.08051-3.27637-.068-6.98737.09967-10.18335.03229-2.81934-.06-5.13342-.35687-7.87677-.4173q-1.80615.09687-3.61237.19239C82.96957,7.12727,83.59145,8.7342,84.72475,9.63178Z"/>
  <path d="M237.14541,93.22676c-.04389-4.00629-.22131-7.946-.35889-11.9477-.0379-1.07416-.85541-3.18164-1.05878-4.65973a63.44509,63.44509,0,0,1-.654-7.23376c-.06585-2.7414.42865-5.32465-.0459-8.02533-.29113-1.66571-2.06567-3.33557-2.44451-4.98352-.319-1.37921.8255-2.86145.44464-4.22461-.21729-.77167-1.12848-.58045-1.39771-1.33392a40.631,40.631,0,0,1-1.7287-5.2605c-.53033-2.5047-.69586-5.17468-1.38372-7.6355-.77765-2.77869-2.10358-5.43256-3.02875-8.16852-.74567-2.19708-1.11457-4.47229-1.64093-6.72833-.38684-1.65955.29706-3.93433-.335-5.5163-1.2143-3.034-3.40357-4.81036-4.66565-7.82415-.71979-1.71375-.14557-3.81226-.78162-5.55872a2.63916,2.63916,0,0,0-2.42456-1.51038A3.4621,3.4621,0,0,0,212.509,4.34864c-.77764,1.60108.51642,3.71723-.22332,5.33625-.91516,2.00421-3.3158,1.955-4.245,3.95245-.656,1.41064.44464,3.80487-.06775,5.27276-.68591,1.96875-1.97393,3.51679-2.931,5.36731-.656,1.26575-.9411,2.85267-1.625,4.10523-.54034.99194-1.39172,1.708-1.57715,2.8233-.20935,1.26074.70185,2.28894.331,3.5116a4.14843,4.14843,0,0,1-1.36981,1.87067,9.65935,9.65935,0,0,0-2.14142,4.15527c-.74774,2.86859-.10773,6.39691-.8255,9.2735-.30512,1.2193-2.281,1.47186-2.66785,2.668-.5722,1.76178.51245,3.77936,0,5.55847-.49048,1.69806-2.42255,3.001-2.89111,4.704a20.6778,20.6778,0,0,0-.21729,8.77069c.16547.9126,1.83039.42108,1.99585,1.33411.13556.75024-1.7666.386-2.00183,1.11175-.59021,1.835.335,3.93512-.22131,5.78088-.44666,1.47565-1.34784,1.1084-1.641,2.62171-.21332,1.108.25524,3.1438.30706,4.27087.09974,2.16675-.38678,3.76447-.44061,5.93317-.02191.916.70386,2.406.21735,3.18286-.84943,1.35919-3.15235,1.30878-4.00177,2.66815-.78955,1.26233.24725,3.579-.44464,4.89679-.949,1.80982-3.61029,1.70294-3.7746,3.74072-.16071,1.99189-.02612,5.23993,1.99609,5.29969h.00025c1.7586.05383,3.38366-.993,4.97278-1.7865a30.99417,30.99417,0,0,1,7.32348-2.947c2.39264-.50641,4.93878.37091,7.41522.2572a4.86986,4.86986,0,0,0,2.31488-.41669,3.278,3.278,0,0,0,1.86036-2.52563c.53234-2.04913-3.06263-2.60565-3.97382-4.51752-.8634-1.80945.3429-3.87671.10962-5.8692-.07977-.67731-.87933-1.2085-.87933-1.89179,0-.6831.71978-1.85491,1.33392-1.55639,4.18915,2.03674,9.62848,4.56573,12.99408,7.33148,1.611,1.32336,2.18725,2.24945,2.1474,4.37732a13.364,13.364,0,0,1-.95709,4.564c-.7995,1.96-1.63489,4.76934-2.919,6.49005-1.88019,2.51226-3.7265,4.52209-3.92389,7.61065-.20544,3.19214,4.5061,4.34064,5.9776,7.182.81744,1.57715.02594,4.68756.46851,6.40832.91125,3.54511,2.42254,5.74238,2.99682,9.35523.49048,3.0885-.38086,5.23791.04981,8.3324.10168.73779,1.88019.39288,2.5581.08978.95508-.43066,1.17237-.2851,1.48548-1.286.55627-1.76654-.1615-3.74451.22326-5.557.15357-.72577,1.12262-1.06866,1.33393-1.7785.40075-1.35785-.25525-2.85724.10968-4.225a34.74656,34.74656,0,0,1,1.75854-4.35266c.79151-1.76855,1.57916-2.8612,1.68878-4.76337.12958-2.20922-.59222-3.98974-.004-5.76031.2652-.79553,1.83039-1.41962,2.18134-2.18127a20.17678,20.17678,0,0,0,.88928-4.00171,43.79576,43.79576,0,0,1,2.24909-6.28467c.23932-.64008,1.05279-.989,1.08667-1.6709C237.21316,105.34114,237.21316,99.08174,237.14541,93.22676Zm-14.87653-7.25538c-.04382.88886-2.39264.95111-3.04858.452-1.26807-.96625-2.07166-2.08759-3.73053-2.48675-.6919-.1659-.658-1.26154-1.314-1.48005a16.12317,16.12317,0,0,0-4.81323-.60577,31.50751,31.50751,0,0,1-3.41351.22595c-.18146-.02276.002-.4032,0-.60278l.00006-.00006c-.02191-1.96137-.06982-3.8916-.0658-5.82068.004-1.70337.0459-3.40637.17945-5.13007.08777-1.12,1.11261-1.97455,1.24414-3.08954.22131-1.84368-.9112-4.05627-.39478-5.82928.2074-.71954,2.0318.002,2.44452-.60291.13556-.19818.41272-1.35229.87329-2.33642.27716-.59039.8534-1.12036.8534-1.34644a41.26173,41.26173,0,0,1,.22534-4.69818c.14355-1.17718.325-2.17132.50445-2.17908.17743-.008.35688.968.981,1.77991.71777.93415.96106,1.86066,1.58911,2.84863A3.46255,3.46255,0,0,0,215.765,56.5771c.77954.303,1.7127-.12342,2.48828.18957.5802.23389.7218,1.14453,1.2442,1.5072.3529.24543,1.16241-.22192,1.24414.22614.3689,2.01874.04987,4.72046.37091,6.74841.07776.48615,1.15247.26,1.17633.75354q.24527,5.29761.23334,10.60657Q222.50717,81.29072,222.26888,85.97138Z"/>
  <path d="M287.37118,116.15577c-.07373-1.46149-.0658-3.06055-1.02484-4.16717-.71979-.83142-2.84327.01794-3.12641-1.04279-.38885-1.45355,1.70874-2.66382,1.7367-4.16919a92.57877,92.57877,0,0,1-1.16846-11.69885c-.07776-4.7193-1.08862-2.34381-2.65381-4.19354A5.78042,5.78042,0,0,1,279.7466,87.324c-.43664-4.26391.18146-8.98217-.47058-13.218a10.58317,10.58317,0,0,0-2.43048-5.21082c-.45459-.525-1.288.256-1.59912-.365-.52038-1.04059,1.07868-1.753.46857-2.744-1.41766-2.30212-4.38458-4.05932-6.63367-5.5581-.67395-.44922-1.86029.573-2.43249,0a2.72293,2.72293,0,0,1,0-2.91822c4.00567-.58,6.06738-2.466,8.02331-4.72406C277.326,49.52448,278.624,46.112,279.95388,42.286c.61414-1.76361-.17145-3.82465.03394-5.68.38079-3.43323,2.18127-6.551,1.58111-9.95282-.87134-4.947-3.30981-9.38019-6.11322-13.548a16.77187,16.77187,0,0,0-6.496-5.5581c-2.10358-.99616-3.86414-.16272-6.09735-.8161-2.586-.75647-4.65766-2.20307-7.29553-2.74378-2.05372-.42108-4.20911.43585-6.25281-.03528-1.27613-.29431-1.4834-1.72869-2.77948-1.92767-.89325-.13757-1.80646,1.15686-2.7077,1.233-6.23084.52777-11.34516-.67914-17.54609.139-.92511.12225-.66192,1.154.10572,1.68481,1.14648.7934,2.88916.40161,4.16919.95526a16.59723,16.59723,0,0,1,5.76629,4.16864c1.40967,1.5177,1.98389,3.20594,3.264,5.55811.52637.96423,2.03973-.88727,3.12836-1.04224,1.37378-.19616,2.32885-.233,3.19622.85138.77955.97284-.83343,2.26929-1.75262,3.10852A38.39131,38.39131,0,0,1,239.3865,22.4c-1.12458.77063-3.1164,1.46253-3.95185,2.96784-1.8543,3.33978.34491,7.13788,1.05872,10.89075.26123,1.36877.5603,2.7069.8714,4.06451,1.00891,4.41425.66992,8.0882,1.28406,12.57458.1994,1.45014,1.22821,2.71363,1.38971,4.16858.1914,1.7295-.11963,3.0036.13958,4.72431a21.7836,21.7836,0,0,0,.90326,2.22339A49.15832,49.15832,0,0,1,242.818,74.47083c.35492,10.76337-.28315,21.308.25921,32.06452.04987.979,1.51935,1.36578,1.72077,2.3269.31305,1.48938-.67994,3.20014-1.18042,4.63776-2.05573,5.88586-4.46625,10.29034-5.73438,15.301h-.00012c-.54034,2.13349,1.1026,3.00476,3.04663,4.26093a72.38137,72.38137,0,0,1,6.29865,4.63177c3.577,2.931,6.01159,8.28052,8.33844,13.5484,1.1983-1.2741.3529-7.21185,1.02484-10.76892.14355-.76165.965-1.312,1.04284-2.08361a37.59669,37.59669,0,0,0,0-8.33637c-.12964-1.02887-1.12457-1.78058-1.38977-2.77948a5.41778,5.41778,0,0,1,0-2.43255c.19342-.969.95313-1.79444,1.04084-2.77942a36.14843,36.14843,0,0,0,0-8.68335c-.16352-1.08069-1.81836-1.6908-1.7367-2.77942.06983-.90125,2.01782-.83545,2.08563-1.7367.1894-2.58246-.70587-5.07464-1.0249-7.64294-.7218-5.77387-1.14246-11.58161-1.73865-17.36926-.21338-2.08576-1.04681-4.18592-.69384-6.25281,1.08667-2.81934,2.07959-5.71539,3.12634-7.98981.5105-.67035,1.18439.63922,1.70282,1.303,1.69275,2.16174,3.94183,4.837,4.4284,7.53845.5962,3.31244-1.19836,6.243-.81549,9.58734.11164.97583,1.615.80072,1.962,1.71955a75.68932,75.68932,0,0,1,3.82226,13.548,111.288,111.288,0,0,1,1.38971,15.98053,22.0478,22.0478,0,0,1-.69586,6.94659c-.94916,3.18427-2.927,5.72242-3.908,8.799-1.02685,3.21807-1.35779,4.17913,2.04773,4.17712a9.61122,9.61122,0,0,1,3.96185.57227c2.78748,1.39373,3.93793,4.60784,6.58381,6.2528.5722.35492,1.31988.84742,2.10754,1.288,3.75244,2.10156,4.16516.65,4.94678-2.63593,1.03082-4.34466,1.292-8.26257,1.96-12.54742a59.218,59.218,0,0,0,.36493-6.59973C287.29739,122.40461,287.53268,119.28816,287.37118,116.15577ZM265.86507,44.24134c-.22723,1.49262-1.31787,2.66858-1.95593,3.95429-.43268.87469-.26318,2.89691-1.39172,4.0683-1.64893,1.7113-3.88611,3.40472-5.53705,3.40472-3.4115,0-3.54907-.43225-3.78033-2.92743-.18146-1.94061.24517-6.43164.24517-8.76807,0-2.87439-.2193-6.121-.22924-9.06018-.01-2.76007.18939-5.21319.17944-7.95135-.006-2.12769-.22333-4.32929-.22736-6.36127l.00006-.00006c-.002-2.512-.04583-2.77783,2.84925-2.13123,1.58508.35413,2.58606,1.2179,3.92389,3.18665.72979,1.07532,2.44256,2.48419,3.87017,4.054,2.08759,2.29412,3.904,4.85827,3.904,6.58734,0,1.21313-.47657,6.72577-.981,7.21148C265.45437,40.73652,266.15621,42.32142,265.86507,44.24134Z"/>
  <path d="M153.1437,92.67561c-.76227.56146-.06921,2.55414-.58106,3.34991-.25317.39417-1.15466-.395-1.40563,0-.24665.38837.07214,1.02564.18518,1.52948.06781.30188.06164.55652-.18518.67951-1.317.65838-3.25605-.90381-4.41785,0-1.14032.8869.13995,2.603-.82471,3.67834-1.56378,1.74286-4.91467,2.76392-6.47229,4.51233-1.85211,2.07825-1.68677,4.19971-3.81506,5.9942-1.66608,1.40369-4.497,1.55121-6.51581,2.37073-2.34021.951-3.45776,2.70367-5.88849,3.38757-.73456.2074-1.63055-1.07666-1.4057-1.80645,1.82123-5.90387,4.18793-11.83942,6.1543-17.697,1.26111-3.75787,1.85333-6.1286,3.21594-9.85174,1.41028-3.85278,3.2522-8.61493,5.55475-12.01087.45337-.66919,1.96637-.2323,2.209-1.00415.60193-1.91552-.52459-4.08624,0-6.02429a7.39367,7.39367,0,0,1,3.14789-3.61468c.84424-.54273,2.1919.21356,2.56451-.71839.87037-2.17572.05726-4.48047.60535-6.75885.36951-1.53491,1.42365-2.47558,2.09479-3.90521.89007-1.89758.82507-3.54474,1.80725-5.39642.79956-1.50659,2.48181-3.6153,2.96631-5.25128.66534-2.24646.12-3.34913.33655-5.68232.058-.62811.97839-.97583,1.00409-1.60644.31164-7.55683.71167-15.14032.26818-22.69129-.03588-.61529-1.418-.5888-1.40564-1.20489.048-2.30756.328-4.34625.20075-6.42584-.02435-.40638.116-.73914-.2901-.75611-6.28809-.26379-12.49463-.1206-18.78687-.04724-5.154.05963-10.32092-.35351-15.46252,0a2.80478,2.80478,0,0,0-2.00824.75611,3.91466,3.91466,0,0,0-.73535,2.45678c.13537,3.3559-.06738,7.00952,0,11.04474.012.74768,1.48523.30023,1.73944,1.00409A15.06376,15.06376,0,0,1,117.6,27.211c-.051.66754-.86255,1.56634-.84674,2.23474.32257,2.32306.62347,3.96478,1.04754,6.19934.2439.86414.98737,1.53906,1.2049,2.40979.25964,1.04083-.68945,3.14337.38006,3.21295a6.552,6.552,0,0,0,2.23035,0c.81708-.29608-.30047-1.79407,0-2.61053.21295-.57886,1.308-.59619,1.4057-1.20471.531-3.30665-.3916-7.18134.13294-10.48957a3.84174,3.84174,0,0,1,1.6065-2.61041c.73908-.45758,2.07642.68652,2.61054,0,.74035-.95245.012-2.04968.4696-3.16589a11.64281,11.64281,0,0,1,3.01209-4.217c1.18536-1.05378,2.37134-2.31489,3.9483-2.479,3.52594-.36627,7.74359-.03747,12.51831-.243.44763-.0199.56806.66833.60236,1.11554.16888,2.20227.56982,5.19427,0,6.62683a25.75033,25.75033,0,0,1-4.59668,6.55926,45.57758,45.57758,0,0,0-3.61511,4.26331c-1.20148,1.77435.59381,4.19391-.02155,6.2464-.62964,2.09955-2.34955,4.3313-3.68243,6.07159-1.09345,1.42762-2.70075,2.15839-3.72559,3.63562a25.80515,25.80515,0,0,0-2.83331,5.75531,27.25612,27.25612,0,0,0-1.4057,5.42194c-.23725,1.455.458,3.09991-.20075,4.41785-.48273.96545-1.57178.78735-2.27405,1.60644a11.61254,11.61254,0,0,0-2.008,4.0163,20.00057,20.00057,0,0,1-1.45215,4.234c-.96222,1.73944-2.89368,3.41943-3.769,5.204-.95484,1.94641-1.06415,4.31158-1.54145,6.42608-.46161,2.04492-.84759,3.971-1.26989,6.0243a34.63063,34.63063,0,0,0-1.00415,7.63092c.01593.78039.84143,1.31774,1.20489,2.008.30689.58307,1.01148,1.18219.80335,1.80731-.28455.85419-1.88105.916-2.00824,1.80744a2.66431,2.66431,0,0,0,.7788,2.41034c.58759.55432,1.78711.31305,2.209,1.00293a2.90335,2.90335,0,0,1,0,2.61c-.30963.656-1.39691.49646-1.5387,1.2063-.57739,2.88916.13141,4.94684-.38,7.8479l.00012-.00012c-.12341.69989-1.72986.70386-1.60645,1.4057.17267.979.23688,2.5083,1.22345,2.63592,2.861.37085,6.78333-.76763,9.62043-.24322,1.12036.20734,1.18158,2.11749,2.2088,2.61.84381-.014,2.14288.01594,3.21313,0,.82386-.42871.60236-1.94006,1.4057-2.40863a4.21688,4.21688,0,0,1,3.4137-.40271c.57886.21332-.21112,1.73462.40155,1.80842,5.00507-.1894,9.47632.35888,14.21179,0,.94568-.15552-.01794-1.50934.75684-2.0716.88067-.64007,3.06439.4765,3.21295-.60217.769-5.57691-.43146-11.80377.09228-17.40753.16773-1.79407,1.889-2.85785,2.274-4.61866.128-.58636.83106-.59674.88684-1.17437a19.75685,19.75685,0,0,0-.34948-6.43042A4.23415,4.23415,0,0,0,153.1437,92.67561Z"/>
  <path d="M206.4656,114.01435c-2.2431-.58819-4.2251.3888-6.51007,0-.66388-.11371-.79553-1.65692-1.43158-1.43164-1.05475.37287-1.15637,1.98194-2.0437,2.65985a40.91337,40.91337,0,0,1-6.173,3.272c-3.42749,1.73468-6.93231,2.57611-9.98633,4.90893-.99914.7616.32581,3.16229-.81829,3.68067-2.48536,1.13049-6.03962.69384-8.18146.4107-1.77539-2.05365,1.481-4.548,1.72528-7.26568,1.0434-2.76948,3.12439-5.25782,3.85016-8.129.7525-2.9729-.19238-6.54157.35614-9.55988.42566-2.34259,2.50012-4.19171,2.86358-6.54529.81275-5.259-.93573-10.748.16852-15.95379.39118-1.84473,2.95374-2.55591,3.68189-4.29541.57818-1.38336-.384-3.04981,0-4.49976.26117-.9884,1.50537-1.489,1.84033-2.45447.77765-2.2351,1.20233-4.68621,1.87622-6.95422.28711-.96448,1.34589-1.65637,1.43359-2.65906.39881-4.61859-.61407-9.31317,0-13.90869.22528-1.693,1.47547-2.84985,1.92011-4.49975.80157-2.989.19739-6.28571,1.22626-9.20435.30505-.86237,2.1195-.37622,2.45446-1.22723.67591-1.71369-.44268-3.79792.20539-5.5224.4566-1.21906,2.83929-1.44379,3.3078-2.65906.76568-1.98029-.022-4.345.70386-6.3407.42663-1.17743,1.72271-1.90381,2.30291-3.015,1.09662-2.10254,2.68177-4.38391,2.51624-6.74988-.08173-1.17-1.605-1.60449-2.77545-1.68921-7.86188-.21533-15.76557.079-23.6496.11847-4.49359.0227-10.68976-.00757-14.59912.03265-2.32105.02356-2.94672-.326-2.98444,2.0318-.1073,6.71533.73334,13.69769.12183,20.72534-.04987.64142-1.47406.40033-1.63635,1.02265-.31147,1.19452.34887,2.44867.40893,3.68164.07636,1.5664-.3916,3.18646,0,4.70441a1.48866,1.48866,0,0,0,1.63635,1.01324c.771,0,1.0456-.51721,1.63636-1.01324,1.11657-.93818,3.4414-1.3158,4.01123-2.65906,1.44122-3.39679.56109-7.33509,1.71576-10.84052.77264-2.346.78839-4.08368,2.76507-5.56592,1.47351-1.10516,3.45264-1.05755,5.52246-.91674.96643.38061.96308,1.97711,1.93946,2.32946,1.9245.69483,4.85784-1.53534,6.13617.06257-.34693,1.681-.26722,4.33551-1.0492,6.34051-.8111,2.08106-2.61639,3.75092-3.65521,5.72723a43.81855,43.81855,0,0,0-4.0188,9.33674c-.51923,1.84191.04926,4.77893-.48114,6.61724-.55548,1.92652-2.82,3.01459-3.47711,4.90894-.55853,1.61005.55151,3.5011,0,5.11328-.40576,1.186-1.92731,1.15491-2.12488,2.39209-.16113,1.00989.98376,1.7514,1.30676,2.72144a3.90293,3.90293,0,0,1-.20459,2.45446c-.89642,2.532-1.38531,1.7544-2.38244,4.24775-1.59412,3.986-4.30854,10.56976-4.8559,14.82727a65.52316,65.52316,0,0,0,.28412,16.92382c.209,1.51,1.42145,2.59021,1.68921,4.09064a25.40422,25.40422,0,0,1,0,7.36377c-.06738.58228-.57965.85144-.66657,1.43164-.33374,2.22516.32538,4.56195-.20453,6.74927-.11224.46454-1.28729-.45459-1.43182,0-.45416,1.42963.63428,3.14032,0,4.50018-.465.99695-1.82678.77362-2.50751,1.637a2.11468,2.11468,0,0,0-.20434,2.24909c.29266.46057.63922-.24127.835.26721a3.18424,3.18424,0,0,1-.61371,2.65979c-.33118.51044-1.55-.05377-1.63617.55036-.18066,2.53418-.66254,5.212.02655,8.5816l.00006-.00006c.852,1.47546,3.45972,1.03485,5.11347.62207,1.192-.29706,2.11987-1.32788,3.335-1.51135,3.43786-.52039,7.37836.14758,10.78766-.53437,1.89184-.37683,2.04913-1.92407,3.92975-2.35473a11.46822,11.46822,0,0,1,5.88714.37286c.56024.23926.21137,1.31592.81946,1.36975,5.90784-.01794,11.36108-.45062,17.261-.17944.86731-.08972,1.3598-.999,1.45752-1.86627a63.64087,63.64087,0,0,0,0-12.47766c-.0658-.79157-.77363-1.2721-.96106-2.04572a5.12377,5.12377,0,0,1,0-3.06659c.18939-.45856,1.16436.008,1.43359-.4107.44659-.69587.0838-1.56122-.12561-2.36475C207.33492,115.45594,207.36288,114.24958,206.4656,114.01435Z"/>
  <path d="M333.62285,4.19508h-.30905V5.73755h.43068a1.05815,1.05815,0,0,0,.69787-.19919.723.723,0,0,0,.23725-.5842.66178.66178,0,0,0-.25325-.576,1.38462,1.38462,0,0,0-.80356-.183Zm.311-1.27209a3.81866,3.81866,0,0,1,2.11947.48848,1.60162,1.60162,0,0,1,.73176,1.42242,1.74646,1.74646,0,0,1-.34495,1.0811,1.987,1.987,0,0,1-.969.67173l1.42562,2.83668h-2.23313L333.5132,6.93085h-.1994V9.4234h-2.04572V2.923Zm4.7155,3.3852a4.72288,4.72288,0,0,0-.36089-1.82919,4.65732,4.65732,0,0,0-1.02882-1.54248,4.78,4.78,0,0,0-1.55522-1.05118,4.72945,4.72945,0,0,0-1.83239-.3549,4.82907,4.82907,0,0,0-1.84035.34675,4.45521,4.45521,0,0,0-1.51732,1.02663A4.88752,4.88752,0,0,0,329.45967,4.479a4.69819,4.69819,0,0,0-.36886,1.82919,4.62306,4.62306,0,0,0,.3629,1.8182,4.91823,4.91823,0,0,0,2.59408,2.59923,4.73031,4.73031,0,0,0,3.64883-.00539,4.91308,4.91308,0,0,0,1.57913-1.06192,4.47939,4.47939,0,0,0,1.02688-1.51534,4.76962,4.76962,0,0,0,.34695-1.83475ZM333.85614.29924A6.15579,6.15579,0,0,1,336.193.74687a5.868,5.868,0,0,1,1.954,1.305,5.95817,5.95817,0,0,1,1.28408,1.94124,6.11277,6.11277,0,0,1,.45064,2.32066,6.00506,6.00506,0,0,1-.44261,2.30713,5.59783,5.59783,0,0,1-1.29205,1.90017,6.47027,6.47027,0,0,1-1.9979,1.3323,5.869,5.869,0,0,1-2.29294.46677,5.8103,5.8103,0,0,1-2.27305-.45582,6.082,6.082,0,0,1-1.948-1.32692,5.95789,5.95789,0,0,1-1.31992-1.944,5.85736,5.85736,0,0,1-.4546-2.27959,5.95144,5.95144,0,0,1,.45861-2.31269,6.18,6.18,0,0,1,1.33191-1.98191A5.61507,5.61507,0,0,1,331.55334.73869a6.051,6.051,0,0,1,2.30292-.43945Z"/>

    <polygon points="84.546 173.492 89.739 173.492 89.739 170.618 84.546 170.618 84.546 168.454 90.048 168.454 90.048 165.618 80.688 165.618 80.688 178.902 90.255 178.902 90.255 175.992 84.546 175.992 84.546 173.492"/>
    <path d="M115.83936,174.34229a4.07925,4.07925,0,0,0-1.26563-1.96778,3.232,3.232,0,0,0,1.4834-1.00586,3.38313,3.38313,0,0,0,.69922-2.18945,3.04135,3.04135,0,0,0-1.33057-2.69824,7.10387,7.10387,0,0,0-3.90576-.86328h-5.3252v13.28418h3.7876v-5.02051h.28125a2.4401,2.4401,0,0,1,1.3418.28515,2.02464,2.02464,0,0,1,.66015,1.06641l1.17774,3.66895h4.03809l-1.62989-4.51563Zm-5.85694-6.03418h.6333a3.449,3.449,0,0,1,1.83936.374,1.20139,1.20139,0,0,1,.523,1.09277,1.18706,1.18706,0,0,1-.4668,1.03614,2.65623,2.65623,0,0,1-1.54053.35937h-.98828Z"/>
    <polygon points="131.204 168.617 134.386 168.617 134.386 178.902 138.245 178.902 138.245 168.617 141.428 168.617 141.428 165.618 131.204 165.618 131.204 168.617"/>
    <path d="M295.43359,173.11279c0,.33692.01465.69532.04493,1.08594-.11524-.2959-.22364-.54883-.32227-.75293l-3.7832-7.82812h-4.63086v13.28418h3.52636v-6.999c0-.46875-.02539-1.00879-.07714-1.60547.07421.17383.15039.33789.22949.49512l3.86816,7.98731.0586.12207H298.96V165.61768h-3.52637Z"/>
    <polygon points="4.078 173.492 9.271 173.492 9.271 170.618 4.078 170.618 4.078 168.454 9.58 168.454 9.58 165.618 0.219 165.618 0.219 178.902 9.787 178.902 9.787 175.992 4.078 175.992 4.078 173.492"/>
    <path d="M34.418,173.11279c0,.3418.01465.70508.04346,1.08692-.12061-.31153-.227-.56055-.32227-.75391l-3.78174-7.82812H25.72656v13.28418H29.252v-6.999c0-.47558-.02588-1.01562-.07715-1.60644.07374.17187.14991.33789.229.49609l3.92724,8.10938h4.61231V165.61768H34.418Z"/>
    <polygon points="54.892 168.617 58.075 168.617 58.075 178.902 61.934 178.902 61.934 168.617 65.117 168.617 65.117 165.618 54.892 165.618 54.892 168.617"/>
    <path d="M238.75,173.42529c-.05273.18653-.10156.40039-.15137.65821-.042-.21485-.08789-.40918-.13965-.58692l-2.23437-7.72265-.0459-.15625h-5.35644v13.28418h3.291v-8.79c0-.0752-.001-.16016-.00293-.25684l2.69043,9.04688h3.249l2.76954-9.25782c-.00293.13867-.00391.27637-.00391.41211v8.84571h3.49609V165.61768h-5.27636Z"/>
    <path d="M211.70312,173.11279c0,.33594.01465.7002.04395,1.08594-.11816-.30371-.22559-.55566-.32227-.75293l-3.7832-7.82812h-4.62988v13.28418h3.52637v-6.999c0-.458-.02637-1-.07911-1.61328.07032.165.14747.332.23047.50293l3.86817,7.98731.05859.12207h4.61328V165.61768h-3.52637Z"/>
    <polygon points="265.696 173.492 270.89 173.492 270.89 170.618 265.696 170.618 265.696 168.454 271.199 168.454 271.199 165.618 261.837 165.618 261.837 178.902 271.404 178.902 271.404 175.992 265.696 175.992 265.696 173.492"/>
    <rect x="182.91406" y="165.61768" width="3.8584" height="13.28418"/>
    <path d="M159.377,165.61768l-5.03906,13.28418h3.85889l.957-2.72364h4.64111l.91406,2.72364h4.12989l-5.0293-13.28418Zm3.4585,7.68847h-2.66992l1.35742-3.93359Z"/>
    <polygon points="315.839 165.618 315.839 168.617 319.021 168.617 319.021 178.902 322.881 178.902 322.881 168.617 326.063 168.617 326.063 165.618 315.839 165.618"/>

</svg>
