<svg id="svg2" xmlns="http://www.w3.org/2000/svg" xmlns:xlink="http://www.w3.org/1999/xlink" width="250" height="73" viewBox="0 0 250 73">
  <title>bungie-mono</title>
  <path d="M53.33872,61.08754C59.85059,31.643,87.56481,4.8372,127.54636,5.13265c24.08937.1777,46.05344,11.58659,58.69829,26.78055a9.08363,9.08363,0,0,1,5.81257-5.4315A83.82518,83.82518,0,0,0,128.56609.034C75.99879,1.53326,56.16823,41.02837,53.33872,61.08754Z"/>
  <path d="M1.14409,71.94741A1.14525,1.14525,0,0,1,0,70.80509V31.75077a1.146,1.146,0,0,1,1.14409-1.14323l12.84468-.00241,8.21364-.00159c6.10711.01442,13.31693,3.44317,13.32178,11.335,0,4.39735-3.13334,6.73027-4.66448,8.19923a11.6459,11.6459,0,0,1,1.40922,18.74865,16.023,16.023,0,0,1-10.06652,3.061H1.14409ZM7.39237,54.02728A1.15034,1.15034,0,0,0,6.24919,55.171v9.37849a1.15022,1.15022,0,0,0,1.14318,1.14722h14.81c5.4795-.027,7.87968-2.0076,7.89649-5.8378-.02479-3.57568-1.76772-5.79661-7.89649-5.8316Zm14.81-6.26042c3.97379-.0049,7.05909-2.2944,7.06883-5.82829-.00974-3.14685-2.96135-5.06213-7.06883-5.07079h-14.81a1.14848,1.14848,0,0,0-1.14318,1.14169V46.6263a1.14569,1.14569,0,0,0,1.14318,1.14056Z"/>
  <path d="M45.39243,56.30577c0,3.90014.73692,8.0286,3.39072,11.19625,2.65044,3.16275,7.20651,5.3297,14.74473,5.32h.00462c7.53491,0,12.0894-2.15721,14.74165-5.32,2.65112-3.16765,3.39045-7.29611,3.39045-11.19625V31.74832a1.14573,1.14573,0,0,0-1.14387-1.14478H76.55642a1.14789,1.14789,0,0,0-1.14472,1.14478V56.30577c-.03123,5.9604-2.39089,10.22433-11.88382,10.25619C54.03626,66.5301,51.679,62.26617,51.6456,56.30577V31.74832a1.14711,1.14711,0,0,0-1.145-1.14478H46.53652a1.14577,1.14577,0,0,0-1.14409,1.14478Z"/>
  <path d="M124.53163,60.40682c0,.62937-.31712.736-.70416.2421l-22.77116-29.142a2.6661,2.6661,0,0,0-1.84979-.90335H95.33141a1.14725,1.14725,0,0,0-1.14564,1.14478V70.80948a1.15089,1.15089,0,0,0,1.14564,1.14722h3.96893a1.14968,1.14968,0,0,0,1.14323-1.14722V42.15366c0-.63268.31557-.74091.70593-.24387l22.7687,29.14049a2.64869,2.64869,0,0,0,1.84893.89713h3.87444a1.14709,1.14709,0,0,0,1.14323-1.14232V31.74832a1.14761,1.14761,0,0,0-1.14323-1.14478h-3.96472a1.14543,1.14543,0,0,0-1.14522,1.14478Z"/>
  <path d="M197.39132,45.87387h-3.9625a1.14511,1.14511,0,0,0-1.14454,1.1441V70.80948a1.15217,1.15217,0,0,0,1.14631,1.14722h3.95765a1.15352,1.15352,0,0,0,1.14853-1.14722V47.018A1.14731,1.14731,0,0,0,197.39132,45.87387Z"/>
  <path d="M216.60511,65.69668a1.15143,1.15143,0,0,1-1.14542-1.14722V54.677a1.1469,1.1469,0,0,1,1.14542-1.14056h15.685a1.15055,1.15055,0,0,0,1.1459-1.14409V48.417a1.15259,1.15259,0,0,0-1.1459-1.14409h-15.685a1.14687,1.14687,0,0,1-1.14542-1.14056V38.00947a1.14969,1.14969,0,0,1,1.14542-1.14169H240.4763a1.15,1.15,0,0,0,1.14277-1.14654V31.74832a1.14689,1.14689,0,0,0-1.14277-1.14478H210.35306a1.14739,1.14739,0,0,0-1.14632,1.14478V70.80948a1.151,1.151,0,0,0,1.14632,1.14722H241.512a1.15152,1.15152,0,0,0,1.14455-1.14722V66.8377a1.14391,1.14391,0,0,0-1.14455-1.141Z"/>
  <path d="M163.52064,35.81533a14.95609,14.95609,0,0,1,11.34984,4.57284c.41605.39987.44483.42711.44483.42711a1.13334,1.13334,0,0,0,1.60922-.008l2.75337-2.82969a1.144,1.144,0,0,0-.02656-1.61417l-.42842-.39279a23.98282,23.98282,0,0,0-32.55972-.09627,21.033,21.033,0,0,0-6.35959,15.17338,20.511,20.511,0,0,0,7.13237,16.067,23.80853,23.80853,0,0,0,15.37166,5.53061c12.17038-.01459,17.20179-5.40494,18.3171-6.81946l.16021-.19915a2.045,2.045,0,0,1,.14652-.20888,1.13113,1.13113,0,0,1,.08584-.0974.47521.47521,0,0,0,.019-.16066v-14.066a1.14658,1.14658,0,0,0-1.14364-1.141H165.79912a1.14986,1.14986,0,0,0-1.14545,1.141v3.808a1.14848,1.14848,0,0,0,1.14545,1.14545H174.111a1.15036,1.15036,0,0,1,1.149,1.1441v4.3945a2.49528,2.49528,0,0,1-.29609,1.39236l-.22837.17218c-.089.07038-.18591.13854-.28371.2058-1.65355,1.19146-4.85125,3.02865-11.3662,3.02865-10.28937-.00485-16.52288-7.12217-16.52772-15.06316.00752-8.49423,6.18387-15.49847,16.96276-15.5064"/>
  <path d="M195.41163,30.22271a5.88415,5.88415,0,1,0,5.88245,5.88426A5.88137,5.88137,0,0,0,195.41163,30.22271Z"/>
  <path d="M247.67374,32.50274a1.92237,1.92237,0,0,1,.68291.091.62413.62413,0,0,1,.38949.63731.55241.55241,0,0,1-.24609.497.94207.94207,0,0,1-.362.121.60542.60542,0,0,1,.43019.247.6835.6835,0,0,1,.13723.39035v.185c0,.05887.00263.11951.00616.18636a.43119.43119,0,0,0,.02171.13234l.0155.03009h-.41337a.096.096,0,0,0-.00667-.02393l-.00485-.02855-.00974-.08122v-.19914a.62053.62053,0,0,0-.23721-.57848,1.04334,1.04334,0,0,0-.48907-.08122h-.34834v.99254h-.44084V32.50274Zm.47316.39679a1.13723,1.13723,0,0,0-.532-.09227h-.37531v.91127h.39747a1.19878,1.19878,0,0,0,.41913-.05579.45515.45515,0,0,0,.09074-.76321m1.1857,2.49685a2.26692,2.26692,0,0,1-3.22562,0,2.2334,2.2334,0,0,1-.66078-1.6285,2.20633,2.20633,0,0,1,.66785-1.61724,2.17208,2.17208,0,0,1,1.60352-.66763A2.27906,2.27906,0,0,1,250,33.76788a2.23044,2.23044,0,0,1-.6674,1.6285M246.334,32.37217a1.90739,1.90739,0,0,0-.57095,1.39571,1.93668,1.93668,0,0,0,.567,1.40547,1.94752,1.94752,0,0,0,2.77634,0,2.00548,2.00548,0,0,0,0-2.80118,1.94279,1.94279,0,0,0-2.77236,0"/>
</svg>
