<svg id="svg2" xmlns="http://www.w3.org/2000/svg" width="176" height="200" viewBox="0 0 176 200">
  <title>epic-games-mono</title>
  <path d="M151.496,137.87219c0,4.83291-3.9,7.71925-9.78475,7.71925a17.11558,17.11558,0,0,1-11.32465-3.92676l3.72922-4.363a12.57806,12.57806,0,0,0,7.8349,2.85277c1.84756,0,2.80535-.60413,2.80535-1.611v-.06712c0-1.00685-.78669-1.51027-4.1056-2.31576-5.13194-1.14112-9.135-2.58427-9.135-7.41718v-.06713c0-4.39661,3.55847-7.585,9.37444-7.585a15.38664,15.38664,0,0,1,9.95621,3.15482l-3.35283,4.63152a12.16126,12.16126,0,0,0-6.77448-2.34931c-1.60791,0-2.42887.63767-2.42887,1.51028v.06712c0,1.074.821,1.54385,4.208,2.31575,5.54259,1.17468,8.99806,2.95346,8.99806,7.38362Zm-36.64211-48.262V40.14c0-9.56513,4.78973-14.23023,14.438-14.23023h5.78206c9.68211,0,14.33528,4.63152,14.33528,14.096V55.67915H137.77663V40.677c0-3.05416-1.47117-4.49731-4.44789-4.49731h-1.98411c-3.11354,0-4.58472,1.44315-4.58472,4.49731V89.07324c0,3.05412,1.47118,4.49727,4.58472,4.49727h2.22367c2.97672,0,4.4478-1.44315,4.4478-4.49727V71.72173h11.59812V89.57666c0,9.56513-4.78973,14.23022-14.43792,14.23022h-5.85024C119.60941,103.84046,114.85386,99.17536,114.85386,89.6102Zm13.92471,55.61206h-19.6384V121.494h19.4673v5.57128h-12.83V130.69h11.59839V135.892H115.77746V139.651h13.00111ZM87.27792,183.71773l-33.358-11.24323h68.05027Zm-27.23366-62.4251h6.4661l10.29841,23.89605H69.624l-1.74482-4.26234H58.50472l-1.74492,4.26234H49.74613ZM47.93284,142.00032a16.26253,16.26253,0,0,1-10.50369,3.69179c-7.52662,0-13.13767-5.1014-13.13767-12.28365v-.06712c0-6.91373,5.54259-12.35077,13.00075-12.35077a14.24106,14.24106,0,0,1,9.81938,3.4233L43.177,129.079a8.67794,8.67794,0,0,0-5.85051-2.24867,6.266,6.266,0,0,0-6.19245,6.47746v.06712a6.34357,6.34357,0,0,0,6.56883,6.61168,6.83359,6.83359,0,0,0,3.86613-.97327V136.127H36.84775v-4.79934H47.93284ZM25.89948,26.61457H52.38037V37.22013H37.80553v21.681H51.7987V69.50665H37.80553V92.59724H52.58574v10.60555H25.89948Zm32.39986,0H76.94568c9.68211,0,14.43793,4.69867,14.43793,14.23022V61.21687c0,9.56514-4.79,14.23023-14.43793,14.23023H70.20539v27.78924h-11.906Zm39.482,94.87942h7.08213v23.72827H98.192V131.59613l-6.19272,9.29664h-.13692l-6.15817-9.26307v13.59256h-6.5691V121.494h7.082l5.78215,9.196ZM96.7551,26.61457h11.906v76.62177H96.7551ZM159.63889,0H15.9091C4.311,0,0,4.26237,0,15.67341V153.61272a30.06913,30.06913,0,0,0,.20528,3.6247c.23956,2.48358.308,4.93358,2.66852,7.68564.23956.23495,2.66879,2.04728,2.66879,2.04728,1.2658.6377,2.15549,1.074,3.62657,1.67809l70.7187,29.09817c3.695,1.611,5.23457,2.31576,7.90336,2.24864,2.66852.06712,4.20806-.57055,7.90309-2.24864l70.7187-29.09817c1.47108-.57054,2.36077-1.074,3.62657-1.67809,0,0,2.42932-1.74521,2.66878-2.04728,2.36051-2.75206,2.429-5.16852,2.66852-7.68564a29.6671,29.6671,0,0,0,.20529-3.6247V15.67341C175.548,4.26237,171.30574,0,159.63889,0Z" />
  <polygon points="63.737 128.686 61 135.398 66.406 135.398 63.737 128.686" />
  <path d="M79.53254,61.74905v-19.231c0-3.05413-1.47109-4.49727-4.44789-4.49727H70.19227V66.24636h4.89238C78.06145,66.24636,79.53254,64.8032,79.53254,61.74905Z" />
</svg>
