<svg id="svg2" xmlns="http://www.w3.org/2000/svg" width="300" height="57" viewBox="0 0 300 57">
  <title>insomniac-games-mono</title>
  <path d="M170.27829,4.35539c-1.81951.09871-3.66476.02468-5.48454.02468-3.45976,0-3.45976,0-4.61306,3.15831-2.22978,6.09456-4.45942,12.2138-6.86845,18.85119C150.67247,19.16,148.212,12.42389,145.80279,5.66314c-.333-.913-.69195-1.35709-1.81951-1.30775-2.51146.09871-5.04893.09871-7.58614,0-1.20451-.04934-1.61451.22207-1.61451,1.48046q.077,14.76761,0,29.55986c0,1.08567.23061,1.5298,1.46086,1.45578a50.831,50.831,0,0,1,5.48454,0c1.28134.074,1.58891-.37011,1.5633-1.55448-.077-4.73748-.02561-9.47493,0-14.23709,0-.32076-.33331-.81426.25635-1.03633.07695.04935.17925.074.17925.12338,1.35857,3.84919,2.69112,7.69839,4.10064,11.5229.61513,1.70255.64074,4.096,2.076,4.88553,1.40952.78959,3.69064.148,5.5615.27142a1.66446,1.66446,0,0,0,1.97316-1.38177c1.61491-4.71278,3.30612-9.42559,4.972-14.11372.15391-.41945.077-.987.82026-1.15969,0,5.08291.05135,10.11648-.02561,15.15-.02574,1.209.35891,1.57916,1.5889,1.50514a47.56254,47.56254,0,0,1,5.30515,0c1.17891.04934,1.64026-.1974,1.64026-1.48046q-.077-14.7676,0-29.55986C171.71355,4.75018,171.50855,4.28137,170.27829,4.35539Z"/>
  <path d="M209.51913,4.35731c-1.79735.07385-3.61979.09848-5.41687,0-1.215-.07385-1.59488.2708-1.56967,1.5017.07616,5.34206.02548,10.65954.02548,16.00163-.12645.07384-.22782.12309-.3544.19693-.37975-.54158-.734-1.05857-1.1139-1.60015-3.36648-4.97283-6.733-9.921-10.049-14.89383a2.243,2.243,0,0,0-2.22738-1.20628c-2.25313.09848-4.48052.0246-6.73338.0246-1.949,0-2.05038.12309-.91128,1.74787a9.014,9.014,0,0,1,1.59488,5.6129c-.10137,7.82848-.02548,15.657-.07616,23.48546,0,1.13244.22782,1.62478,1.519,1.55093a44.18881,44.18881,0,0,1,5.41687,0c1.18965.07385,1.44281-.34465,1.44281-1.45245-.05055-4.062-.02534-8.12391-.02534-12.18585V20.38355c2.80974,4.01272,5.26495,7.5577,7.79632,11.07807,1.26555,1.77248,2.05038,4.33274,3.97405,5.09589,1.92393.76315,4.42982.197,6.65748.197h.17713c1.03786.1477,1.24021-.34464,1.215-1.25552q-.03822-14.91844,0-29.8615C210.9366,4.55425,210.53152,4.33268,209.51913,4.35731Z"/>
  <path d="M46.66457,4.36007c-1.86847.04924-3.73695.0985-5.60542,0-1.36347-.09852-1.6161.394-1.6161,1.62537.07589,5.31945.02521,10.66355.02521,16.54944-.60584-.862-.88369-1.23137-1.136-1.6254C34.87284,15.78705,31.439,10.68923,27.97958,5.56678c-.45458-.66493-.83326-1.23134-1.86847-1.20671-2.55021.07387-5.10042.04924-7.65063.02461-1.21221-.02461-1.33826.44331-.65652,1.23137,1.86847,2.16717,1.91889,4.70378,1.89368,7.33887-.07563,7.38813,0,14.80089-.05042,22.21365,0,1.23135.25237,1.7239,1.61584,1.65a43.94888,43.94888,0,0,1,5.40347,0c1.08589.04926,1.36347-.32016,1.36347-1.32987-.05042-4.30974-.02521-8.61948,0-12.92924,0-.49253-.25237-1.08359.40416-1.60076,2.4491,3.52169,4.87326,7.01873,7.34757,10.51578,1.23742,1.74852,2.14632,4.162,3.838,4.9993,1.79285.88657,4.36826.27089,6.59021.32016a1.94809,1.94809,0,0,1,.379,0c1.01.14776,1.23715-.34478,1.23715-1.256q-.03782-14.99791,0-30.02046C47.82609,4.55707,47.523,4.31081,46.66457,4.36007Z"/>
  <path d="M252.88116,19.22868c.41916-1.21313.86431-2.42628,1.44057-4.10985.99527,2.7234,1.80717,5.00116,2.64521,7.2789.23591.59419-.026.76749-.60239.74274h-.18324C251.36205,23.58612,251.36205,23.58612,252.88116,19.22868Zm-5.34309,14.73109c.99527-2.872.99527-2.872,4.16432-2.872H254.217c1.938.02476,4.243-.51991,5.65729.29712,1.20478.69321,1.362,2.971,1.96441,4.55549.23565.61894.49757,1.03983,1.33561,1.01507,2.82871-.0495,5.65769-.02476,8.56482-.02476a7.70782,7.70782,0,0,0-.18324-.84176q-6.011-15.37482-11.96979-30.77434c-.3142-.817-.812-.9408-1.57152-.9408-2.38329.02474-4.76671.07426-7.15027-.02476a1.57435,1.57435,0,0,0-1.781,1.18839c-1.59767,4.23364-3.30028,8.4425-4.92395,12.6514-2.38342,6.14-4.767,12.28-7.20281,18.59332a4.59537,4.59537,0,0,0,.62866.12381h5.605C246.49025,36.95549,246.49025,36.95549,247.53807,33.95977Z"/>
  <path d="M72.64565,18.4999c-1.8495-1.08416-3.77755-2.02374-5.60131-3.08381-.75537-.43365-1.45887-1.08415-1.19828-2.04783.26046-1.01186,1.1464-1.37325,2.16224-1.46962a10.04041,10.04041,0,0,1,1.90191-.04818,20.37472,20.37472,0,0,1,6.59127,1.95146c0-2.4815-.05215-4.72206.02614-6.98672.02613-.9637-.39089-1.34917-1.30257-1.61417a22.96064,22.96064,0,0,0-9.14466-.67459c-5.05411.6023-8.31061,3.22835-9.24869,7.324-1.068,4.55342.62521,8.21542,5.05438,10.7692,1.84963,1.06,3.77767,1.99965,5.65331,3.03561.938.53,1.84976,1.15641,1.485,2.40922-.36462,1.2046-1.459,1.37326-2.57913,1.42143a14.75179,14.75179,0,0,1-3.41293-.3132,27.13918,27.13918,0,0,1-5.41886-2.12011c0,2.67422.02587,5.15573-.02614,7.63722-.026.91551.59921,1.01187,1.3027,1.2287a26.64788,26.64788,0,0,0,8.72764,1.01187c7.008-.265,11.22861-4.67387,10.57739-11.13059C77.80418,22.42692,75.56366,20.21044,72.64565,18.4999Z"/>
  <path d="M297.77531,35.19014V26.83657c-5.40347,3.12957-10.18464,2.79255-13.27223-.72221a8.52651,8.52651,0,0,1,.14941-11.12205c3.038-3.39439,7.84381-3.63513,13.1475-.48148,0-2.72032-.04975-5.19991.02508-7.65543.02495-1.03518-.37351-1.44444-1.34463-1.73331a18.69943,18.69943,0,0,0-6.72316-.72221c-6.92245.50554-12.0023,3.77956-14.4924,10.0628-2.5648,6.49989-1.54379,12.68685,3.61063,17.74233,5.005,4.911,11.18045,5.68139,17.85385,3.82772C297.15262,35.88827,297.77531,35.84012,297.77531,35.19014Z"/>
  <path d="M229.01615,4.35062c-1.99652.0743-4.01943.04954-6.016,0-.867-.02479-1.261.09908-1.261,1.06513q.03942,15.19688,0,30.369c0,.867.23658,1.189,1.2085,1.16421,1.99651-.04954,4.0193-.09908,6.01608,0,1.2609.07431,1.47108-.39632,1.47108-1.46147-.05255-4.87983-.02627-9.75968-.02627-14.63953,0-5.05324-.02628-10.13124.02627-15.18448C230.43482,4.64785,230.11956,4.32583,229.01615,4.35062Z"/>
  <path d="M8.66633,20.82975c0-5.04705-.02627-10.09407.02627-15.16583,0-1.03909-.28978-1.36072-1.39611-1.31124-2.002.07421-4.03018.04948-6.03213,0C.39527,4.32794,0,4.50112,0,5.44126q.03941,15.14108,0,30.3069c0,.86592.23711,1.18752,1.18541,1.16279a41.17754,41.17754,0,0,1,5.24173.02473c1.68589.1237,2.31814-.27213,2.26546-2.02869C8.58712,30.20632,8.66633,25.50566,8.66633,20.82975Z"/>
  <path d="M279.48108,45.78049c-1.12729.09765-2.68435-.75676-3.248,1.07413-.59045,1.87972-1.42266,3.6862-2.12045,5.54152-.13427,0-.26842-.02441-.4295-.02441-.72486-1.90413-1.44958-3.8327-2.20111-5.73683-.64432-1.61117-2.14764-.73235-3.24813-.83-1.26171-.12206-.72473.92765-.75167,1.44031-.05373,2.58767.02694,5.17532-.05373,7.763-.02667,1.00089.10747,1.51354,1.44958,1.51354,1.26171,0,1.58386-.36617,1.53026-1.4403a7.545,7.545,0,0,1,.29522-3.41768c.61739,1.538,1.1273,2.61209,1.44959,3.71061.24149.87885.7782,1.123,1.69107,1.123A1.52942,1.52942,0,0,0,275.562,55.3988a13.79165,13.79165,0,0,1,1.79855-4.1012c0,1.51354.08067,2.783-.0268,4.05237-.08067,1.04972.48324,1.14737,1.42265,1.14737.99328,0,1.61066-.04883,1.55693-1.22059-.08041-2.6365,0-5.29739-.05374-7.93389C280.28635,46.78138,280.95747,45.65843,279.48108,45.78049Z"/>
  <path d="M249.415,49.7284a2.39714,2.39714,0,0,0-.72022,0c-.64564.21705-1.7878-.69937-1.93667.84407-.09938,1.254.32283,1.76048,1.61385,1.56756.22344-.02413.49677,0,.54627.3135.07457.33763-.14888.55468-.37232.77172a2.51519,2.51519,0,0,1-2.38395.53057,2.45411,2.45411,0,0,1-1.912-1.95342c-.596-2.33928,1.36573-4.07565,4.07238-3.32806,1.76312.48232,1.61424-.3135,1.61424-1.42285-.02507-.77172-.22357-1.1817-1.1176-1.27818a10.35793,10.35793,0,0,0-3.45154.04824,5.407,5.407,0,0,0-4.04769,5.64322,5.33637,5.33637,0,0,0,4.99135,5.04031c2.8307.19293,5.06565-1.30228,5.63673-3.76216C252.49412,50.11425,252.19611,49.7284,249.415,49.7284Z"/>
  <path d="M260.54413,51.694c-.05082.394-.91341.22165-1.497.04926.22836-.68959.43136-1.35455.68506-2.118A2.48766,2.48766,0,0,1,260.54413,51.694Zm1.39545-4.7532c-.40589-1.28065-1.21779-1.20678-2.23283-1.28065a1.70136,1.70136,0,0,0-1.97913,1.35454c-.8878,2.51205-1.87736,4.97485-2.7909,7.48689-.22822.59109-.9134,1.37918-.40575,1.79785.45644.36944,1.42079.14779,2.1564.197.78656.02462.83751-.6157.98957-1.10827.17766-.49254.35533-.96047.98956-.88661,1.31942.14779,3.09555-.78808,3.55225,1.4777.17753.83735,1.04025.36941,1.24326.4433,1.92831.34479,2.00434-.22165,1.47148-1.5023C263.84242,52.30964,262.80216,49.64984,261.93958,46.94075Z"/>
  <path d="M287.614,53.79166c-.48921.04787-.954,0-1.44308,0a.587.587,0,0,1-.6361-.67019c0-.383.09779-.71807.53831-.76594a11.27527,11.27527,0,0,1,1.27165-.02393c.97856.09574,1.51659-.04787,1.51659-1.26859s-.51349-1.38826-1.51659-1.26856c-.2935.02393-.61128,0-.90491,0-.51349,0-.97829.02393-.92946-.69413.02441-.71807.51376-.6702,1.00283-.6702.538,0,1.07635-.04787,1.61438,0,1.07635.09574.97829-.57446.95388-1.24465-.02455-.59839.24467-1.2207-.88063-1.31646-5.40546-.50263-5.40546-.5505-5.40546,4.66741V51.063c0,.28724-.02455.59839,0,.88561.1222,1.43613-.68492,3.42279.34246,4.18872.95387.71807,2.86175.19148,4.35393.28722,1.02711.04787,1.63866-.04787,1.63866-1.36433C289.13048,53.8156,288.56789,53.69593,287.614,53.79166Z"/>
  <path d="M297.71587,49.98023c-.18629-.11846-.39606-.21324-.58235-.35541-.373-.26066-.95547-.45022-.74583-.99522.20978-.61607.81562-.49759,1.32818-.4028a2.57616,2.57616,0,0,1,.839.21325c.74582.40281.839.07109.88567-.61608.13972-1.89561-.74569-2.46431-3.19267-2.03779a2.97236,2.97236,0,0,0-2.70306,2.5117,3.04558,3.04558,0,0,0,1.3981,3.29363c.536.35544,1.072.63979,1.608.9952.32614.21326.76891.40282.55913.92413a.82247.82247,0,0,1-1.02526.4265c-.72234-.14215-1.42145-.37911-2.40014-.63976.34949.99519-.5594,2.10887.55914,2.77235,1.65458.9715,4.42757.28434,5.26653-1.18477C300.55892,53.06062,299.9065,51.30716,297.71587,49.98023Z"/>
  <path d="M104.44961.59841c9.49415,3.05392,15.22111,9.16175,15.399,18.5621.17833,9.80593-5.62492,16.20006-15.50081,19.44485,4.75982,1.7417,15.17-.83507,20.31158-7.945a18.95325,18.95325,0,0,0-1.85813-24.43133C117.6344,1.05174,108.44582-1.16713,104.44961.59841Z"/>
  <path d="M94.80486,18.53329c0-5.23391,2.73358-8.80472,7.22643-11.32385C97.63344,5.4485,92.38,7.185,89.40856,11.0982a12.39356,12.39356,0,0,0-.33291,14.33211,11.37265,11.37265,0,0,0,13.09828,4.40235C97.53844,27.31356,94.80486,23.74275,94.80486,18.53329Z"/>
</svg>
