<svg id="svg2" xmlns="http://www.w3.org/2000/svg" width="300" height="43.99564" viewBox="0 0 300 43.99564">
  <title>mojang-mono</title>
  <path d="M299.76023,17.88488c-8.38914-.02867-16.778,0-25.16713,0,0,2.55087,0,5.13044.03,7.68132,5.66259,0,11.3552-.02865,17.01779.02867a15.359,15.359,0,0,1-26.33577,5.33106,13.71061,13.71061,0,0,1-.71906-16.96771A15.2448,15.2448,0,0,1,278.75753,7.796a16.362,16.362,0,0,1,9.73752,4.98714q4.76376.043,9.5275,0A24.157,24.157,0,0,0,279.11706,0h-4.22444c-7.58005.7452-14.7408,5.07313-18.27617,11.608A21.25625,21.25625,0,0,0,259.163,36.0277c3.68538,4.44257,9.258,7.07943,15.04058,7.96794h4.94351c10.78614-.94582,19.83435-9.659,20.85294-19.9485V20.09183C299.97,19.54724,299.82023,18.42945,299.76023,17.88488Z"/>
  <path d="M135.33606,24.36241A14.57733,14.57733,0,0,1,125.2392,35.56912a15.16684,15.16684,0,0,1-14.86071-3.18145,13.75484,13.75484,0,0,1-4.70387-11.95192c.56927-5.78963,5.33306-10.86276,11.17547-12.3245a15.58068,15.58068,0,0,1,14.591,4.04128A13.90877,13.90877,0,0,1,135.33606,24.36241ZM122.57264,0h-4.31437A24.42313,24.42313,0,0,0,103.038,7.65267a21.23625,21.23625,0,0,0-4.584,20.72239c2.57667,8.39785,10.72607,14.73207,19.80428,15.59194h4.91361c5.60272-.85987,11.05564-3.29611,14.74086-7.50937a21.22643,21.22643,0,0,0,2.96613-24.87833C137.34348,5.07313,130.15282.7452,122.57264,0Z"/>
  <path d="M34.81476,36.65827c-7.87976.086-15.75951.05732-23.63928,0a3.723,3.723,0,0,1-4.01479-4.07c.05993-6.56351-.2996-13.18437.20973-19.71921,1.49806-3.46809,6.26186-2.121,9.34786-2.4076,3.74512-.37259,7.19066,1.23246,9.977,3.46805.2397-1.37575.47938-2.75151.779-4.12727,1.558,1.57641,2.81632,3.46808,4.614,4.81517,1.34826,1.14647,3.116-1.54774,4.10468-.05732,2.00738,3.95531,1.94745,8.51251,2.57664,12.78308-1.25835-.57323-2.51674-1.11779-3.77509-1.7197-2.00739-6.70682-10.48638-11.80859-17.52722-8.91377-6.172,2.6942-5.51284,12.12389.29961,14.87541,6.47158,3.21011,14.11165,2.32158,21.03265,1.34709C38.47,34.88123,37.18168,36.91621,34.81476,36.65827ZM33.16691,4.58587c.749,2.26428,2.09727,4.75784,1.28831,7.16541-1.13852,1.26112-3.59533.7452-3.65524-1.06049C30.91982,8.5125,31.27936,6.07627,33.16691,4.58587ZM12.40388,0C6.20194.80252.62918,5.3884,0,11.522V43.99564H34.69492C40.86689,43.10713,46.17,37.948,46.17,31.87178c.08989-10.60484.05993-21.23831,0-31.84311H12.40388Z"/>
  <path d="M71.513,19.17465C66.80912,12.89775,62.315,6.44888,57.73091.086,55.60369.05732,53.44649.05732,51.28929.05732V42.59124c2.66653.02864,5.33305.02864,7.99961-.02867.02995-8.85646-.08988-17.71291.05991-26.598,3.3856,4.49989,6.56148,9.11442,9.79727,13.70029,1.49806,0,3.02607,0,4.52413.02865,3.32567-4.5572,6.47158-9.25772,9.88714-13.75758.08989,8.85645.05993,17.74155,0,26.598,2.66653.086,5.3031.1433,7.96966.11465V0c-2.15719.02867-4.28445.05732-6.44165.14331C80.6811,6.53487,76.03713,12.81176,71.513,19.17465Z"/>
  <path d="M143.61,7.05076c5.51283,0,11.02568.02867,16.53852-.02864.11983,5.73232.05992,11.46464.05992,17.197,0,2.98081-.65915,6.33423-3.29571,8.25455-3.77511,2.69421-8.77861,2.66554-13.27278,2.7802C143.61,37.66142,143.61,40.069,143.61,42.47658c7.1607-.05732,15.54978-.48725,20.67316-5.99028,2.99607-3.35342,3.86495-7.9393,3.89492-12.2672.03-8.05392,0-16.13652,0-24.2191H143.61Z"/>
  <path d="M241.18151,26.69182c-6.62141-8.77048-13.03306-17.71291-19.50465-26.598-2.09727-.02868-4.1646-.05734-6.26186-.05734V42.54172c2.66654.02864,5.3031.02864,7.96963-.02867.03-8.82778-.0599-17.65557.05993-26.512q9.75236,13.15569,19.29494,26.4547c2.12734.05732,4.25457.086,6.38179.11463V.00783c-2.63678-.02868-5.30331.02864-7.93978.0573C241.24144,8.97891,241.30137,17.83536,241.18151,26.69182Z"/>
  <path d="M185.07408,25.17c1.67782-4.27058,3.41555-8.51251,5.09337-12.78309,1.88757,4.21327,3.47551,8.51251,5.24321,12.78309ZM186.99161.57834c-6.05213,13.9869-11.80467,28.11709-17.737,42.1613,2.81635,0,5.66265.14331,8.479-.086,1.82762-3.21012,2.84628-6.85015,4.3743-10.23222,5.45293.02865,10.87586-.02867,16.32879.02865,1.28832,3.41074,2.72645,6.79283,4.01476,10.20357,2.87626.11463,5.75254.1433,8.62879.05731Q202.18186,21.42971,193.28342.1484C191.24607.26307,188.63946-.48215,186.99161.57834Z"/>
</svg>
