<svg id="svg2" xmlns="http://www.w3.org/2000/svg" width="300" height="41" viewBox="0 0 300 41">
  <title>naughtydog-mono</title>
  <path d="M.77521,36.222V9.00848H189.61785V8.26131H0V36.96914H195.20011c-.17457-.24284-.32947-.48558-.504-.74713Z"/>
  <polygon points="11.624 11.566 4.957 11.566 4.957 32.859 11.663 32.859 11.663 21.148 20.288 32.859 26.995 32.859 26.995 11.566 20.288 11.566 20.288 23.333 11.624 11.566"/>
  <path d="M40.53213,17.07585l2.50018,7.65793H38.01248ZM28.08858,32.85863h7.26831L36.52,29.3284H44.5442l1.1435,3.53023h7.443L44.5442,11.56585H36.69441Z"/>
  <path d="M54.52488,11.56585v12.701a11.73391,11.73391,0,0,0,.65893,3.60476,6.76316,6.76316,0,0,0,1.51179,2.4655,7.99254,7.99254,0,0,0,2.4422,1.83036,10.335,10.335,0,0,0,3.33379.85921,33.016,33.016,0,0,0,3.68281.224,15.603,15.603,0,0,0,4.98121-.70965,7.91318,7.91318,0,0,0,2.84922-1.77435,7.62233,7.62233,0,0,0,1.99646-2.93246,9.974,9.974,0,0,0,.63957-3.5674v-12.701H69.50745V24.56557a3.579,3.579,0,0,1-1.04669,2.74575,4.117,4.117,0,0,1-2.88794.9712,4.00885,4.00885,0,0,1-2.90741-.98986,3.564,3.564,0,0,1-1.04648-2.72709V11.56585Z"/>
  <path d="M93.24964,16.23535a4.79214,4.79214,0,0,1,2.5972.63493,3.4979,3.4979,0,0,1,1.4536,1.83056l6.86139-1.12071a8.5993,8.5993,0,0,0-1.88008-3.39938,7.4399,7.4399,0,0,0-3.15932-1.97992,19.0339,19.0339,0,0,0-5.71769-.635A15.91691,15.91691,0,0,0,87.086,12.59307a9.97215,9.97215,0,0,0-4.5742,3.92248,11.46136,11.46136,0,0,0-1.55061,6.07025,11.9537,11.9537,0,0,0,1.41487,5.88344,9.37318,9.37318,0,0,0,4.01218,3.8663,15.05063,15.05063,0,0,0,6.7064,1.28877,20.293,20.293,0,0,0,5.77578-.72831,22.9717,22.9717,0,0,0,5.60152-2.7271V21.0542H93.44346v4.44526h4.80675v2.01723a13.21583,13.21583,0,0,1-2.50018,1.102,8.48119,8.48119,0,0,1-2.30657.31742,5.21581,5.21581,0,0,1-3.95409-1.47549c-.94977-.98986-1.41487-2.63355-1.41487-4.9497A6.86339,6.86339,0,0,1,89.47,17.74814,4.94775,4.94775,0,0,1,93.24964,16.23535Z"/>
  <polygon points="131.107 32.859 131.107 11.566 123.935 11.566 123.935 19.037 116.163 19.037 116.163 11.566 109.05 11.566 109.05 32.859 116.163 32.859 116.163 24.267 123.935 24.267 123.935 32.859 131.107 32.859"/>
  <polygon points="148.216 32.859 148.216 16.814 155.484 16.814 155.484 11.566 133.834 11.566 133.834 16.814 141.083 16.814 141.083 32.859 148.216 32.859"/>
  <path d="M171.40064,32.98933v-8.928l6.687-9.22675a1.24006,1.24006,0,0,0,.91094-.52309,1.08382,1.08382,0,0,0,.05809-.82185l1.31807-1.81171h-3.37261a2.33612,2.33612,0,0,0-1.43414,0h-3.04325L167.873,18.8502l-4.65165-7.17231H155.3133l8.97393,12.3834v8.928Z"/>
  <path d="M257.33265,16.52266a4.2966,4.2966,0,0,0-3.295,1.34479c-.83359.89652-1.24051,2.39081-1.24051,4.46407,0,2.05444.40692,3.53008,1.24051,4.4266a4.90155,4.90155,0,0,0,6.72556.01866c.79477-.87782,1.20189-2.46549,1.20189-4.74412a5.95415,5.95415,0,0,0-1.24052-4.20258A4.43927,4.43927,0,0,0,257.33265,16.52266Z"/>
  <path d="M235.77086,25.71209a8.83784,8.83784,0,0,0,.50393-3.54873c0-2.16664-.38755-3.64213-1.1435-4.44527a5.01392,5.01392,0,0,0-3.77952-1.19543h-1.68636V27.67331h1.66679a7.73008,7.73008,0,0,0,3.02368-.42956A3.12267,3.12267,0,0,0,235.77086,25.71209Z"/>
  <path d="M293.72009,29.46061a22.64221,22.64221,0,0,1-5.33025,2.61485,19.1496,19.1496,0,0,1-5.5045.69115,14.20249,14.20249,0,0,1-6.37673-1.23275,8.64783,8.64783,0,0,1-3.81845-3.69814,11.3323,11.3323,0,0,1-1.35669-5.62214,11.076,11.076,0,0,1,1.49233-5.80871,9.407,9.407,0,0,1,4.361-3.75431,15.19083,15.19083,0,0,1,6.00863-.98986,17.995,17.995,0,0,1,5.44642.61627,7.18156,7.18156,0,0,1,3.00432,1.90524,8.31052,8.31052,0,0,1,1.80263,3.26854L286.878,18.53414a3.35376,3.35376,0,0,0-1.37615-1.75574,4.51042,4.51042,0,0,0-2.46156-.61642,4.64962,4.64962,0,0,0-3.56623,1.43827c-.89159.95255-1.31807,2.46535-1.31807,4.53865,0,2.20395.44574,3.77292,1.33733,4.72547a4.85813,4.85813,0,0,0,3.7408,1.41961,7.51781,7.51781,0,0,0,2.17092-.29886,12.28537,12.28537,0,0,0,2.36455-1.02722V25.034h-4.55483V20.77546h10.52464v8.68515ZM267.22428,27.9291a8.95709,8.95709,0,0,1-3.76006,3.5674,13.31019,13.31019,0,0,1-6.12491,1.27011,15.12465,15.12465,0,0,1-6.16354-1.102,8.94952,8.94952,0,0,1-3.954-3.47406,10.90135,10.90135,0,0,1-1.51189-5.95811,10.151,10.151,0,0,1,3.00422-7.78878c1.99645-1.84907,4.78738-2.78291,8.35382-2.78291,3.66325,0,6.4931.91518,8.4702,2.72689a9.90073,9.90073,0,0,1,2.96549,7.65793A11.59254,11.59254,0,0,1,267.22428,27.9291Zm32.388-19.66779H218.94281c3.02368,3.32471,4.14791,7.5646-4.14782,10.98264,0,0,5.54333,1.53151,7.98563,5.17373V11.99692h10.09816a12.86077,12.86077,0,0,1,4.82622.747,7.70979,7.70979,0,0,1,3.043,2.16659,8.94957,8.94957,0,0,1,1.74444,3.26868,13.8919,13.8919,0,0,1,.54256,3.95969,13.06068,13.06068,0,0,1-.79457,5.0804,8.67478,8.67478,0,0,1-2.229,3.02579,7.27141,7.27141,0,0,1-3.06231,1.625,16.88014,16.88014,0,0,1-4.0511.56031H222.79988V32.113a17.51259,17.51259,0,0,1-2.40337,3.34322,27.57832,27.57832,0,0,1-4.86494,1.513H300V8.26131Z"/>
  <path d="M206.74411,5.19139c.62031-.54159.40712-1.69966-.4651-2.6149-.87223-.89647-2.07391-1.19538-2.69422-.65378-.62021.54179-.40691,1.69971.46521,2.615C204.92222,5.43428,206.1239,5.733,206.74411,5.19139Z"/>
  <path d="M206.89488,14.10224c2.46146,3.0258,6.20226,4.16521,8.35362,2.54022,2.17092-1.625,1.93827-5.3793-.5232-8.4051s-6.20236-4.16521-8.37328-2.54022C204.20066,7.32218,204.43331,11.07644,206.89488,14.10224Z"/>
  <path d="M193.67672,12.43742c2.46146,3.0258,6.20226,4.16521,8.35362,2.55888,2.17093-1.625,1.93827-5.37916-.52319-8.405s-6.20236-4.16516-8.37328-2.55882C190.98251,5.65735,191.21516,9.41162,193.67672,12.43742Z"/>
  <path d="M175.81418,29.54865a2.8272,2.8272,0,0,0,1.91871-.635c-.09681,2.46534,2.733,4.8375,6.53193,5.37915,3.97345.56025,7.501-1.08324,7.88862-3.67943.38765-2.5964-2.51965-5.15508-6.49311-5.71553-3.48878-.50428-6.648.70981-7.61724,2.78306a2.46146,2.46146,0,0,0-2.22891-1.02737c-1.27923,0-2.32592.65378-2.32592,1.43832C173.48826,28.91367,174.535,29.54865,175.81418,29.54865Z"/>
  <path d="M220.6343,26.57589s-1.9188-5.60333-10.33081-6.85478c0,0-8.17926-2.85759-11.64868-.80315,0,0-8.29574,12.57027,0,20.45228,0,0,6.84183,4.22123,9.49722-4.68815C208.152,34.68209,224.49148,37.42768,220.6343,26.57589Z"/>
  <path d="M189.168,12.59953c-3.5858-1.737-7.48171-1.2326-8.70265,1.1207s.69775,5.6407,4.26419,7.37773c3.5857,1.737,7.4814,1.23275,8.70265-1.12055C194.65312,17.6239,192.75367,14.31785,189.168,12.59953Z"/>
  <path d="M191.85554,3.55713c.6203-.54175.42648-1.69967-.44575-2.61485s-2.074-1.21409-2.69421-.6725-.40712,1.69967.44574,2.6149C190.03354,3.79986,191.23533,4.09877,191.85554,3.55713Z"/>
  <path d="M201.57684,16.19652l3.72143.22418-1.62816-1.55031A15.53555,15.53555,0,0,1,201.57684,16.19652Z"/>
</svg>
