<svg id="nintendo-mono" xmlns="http://www.w3.org/2000/svg" width="300" height="79" viewBox="0 0 300 79">
  <title>nintendo-mono</title>
  <path d="M39.238,73.90649C15.71671,73.89852,0,57.22966,0,37.019H0C0,16.80841,15.75257-.0517,39.20214.00012H260.79785C284.24742-.05167,300,16.80845,300,37.019h0c0,20.21062-15.71671,36.87951-39.238,36.88745Zm.07171-64.815c-18.621.03587-30.051,12.48175-30.051,27.87974h0c0,15.394,11.35826,27.94347,30.051,27.87577H260.6903c18.69274.06373,30.055-12.48175,30.055-27.87577h0c0-15.394-11.43-27.8399-30.051-27.87577ZM272.59834,22.08715c1.69319,0,2.53379.5737,2.53379,1.7091a1.58139,1.58139,0,0,1-1.29479,1.57367l1.32666,2.64934h-1.60554L272.423,25.589h-.70515v2.43022H270.2717V22.08715Zm-.13147-2.31865a5.35444,5.35444,0,1,0,5.35444,5.35444A5.35581,5.35581,0,0,0,272.46687,19.7685Zm4.33056,5.35841a4.33057,4.33057,0,1,1-4.33057-4.33055A4.33226,4.33226,0,0,1,276.79743,25.12691Zm-5.07955-.40637h.70515c.82467,0,1.22307-.251,1.22307-.84061,0-.61751-.42628-.88445-1.29479-.88445h-.63345ZM150.70118,39.21816c-.01593-2.02782.0279-3.38237.69321-4.53772a4.273,4.273,0,0,1,3.68117-2.11151h-.00409a4.273,4.273,0,0,1,3.68118,2.11151c.66532,1.15932.69321,2.51387.67728,4.54173Zm8.693,6.97593s.008.1036.008,1.40237c0,4.231-2.78477,5.17119-4.33057,5.17119s-4.37836-.94021-4.37836-5.17119c0-1.2669.008-4.77677.008-4.77677s19.70864.008,19.70864-.00411c0-7.17513-6.92811-13.11919-15.43783-13.11919S139.566,35.513,139.566,42.68808s6.89622,12.98769,15.406,12.98769c7.05958,0,13.02356-4.02778,14.84422-9.4898ZM192.31362,30.083c3.91225-.11154,11.84828,2.45015,11.79251,11.60925-.008,1.62545-.0041,12.58932-.0041,12.58932H193.70788V39.0867a4.629,4.629,0,0,0-4.78075-4.25885c-2.84852,0-4.968,2.243-4.968,4.25885,0,.988.012,15.19482.012,15.19482H173.58491l.008-23.13484,10.3822-.008s-.01194,1.86048,0,2.43419a12.59991,12.59991,0,0,1,8.33842-3.48995Zm-85.02564,0c3.91225-.11154,11.84829,2.45015,11.79252,11.60925-.008,1.62545-.0041,12.58932-.0041,12.58932H108.68225V39.0867a4.629,4.629,0,0,0-4.78074-4.25885c-2.84854,0-4.968,2.243-4.968,4.25885,0,.988.01195,15.19482.01195,15.19482H88.55929l-.00411-23.13484,10.39415-.008s-.012,1.86048,0,2.43419a12.59142,12.59142,0,0,1,8.33842-3.48995ZM226.65533,19.4976h10.32642V54.2895H226.6394s-.00409-1.12349-.00409-1.3386a12.56435,12.56435,0,0,1-12.03953.86849,12.34165,12.34165,0,0,1-7.15518-11.4698c0-6.10743,5.76081-12.77654,13.30243-12.11522a13.95815,13.95815,0,0,1,5.92015,2.06369c-.008-5.35444-.008-12.80046-.008-12.80046Zm.0757,23.10694V38.46918c0-3.5776-2.47005-4.48991-4.09552-4.48991-1.6653,0-4.10348.91231-4.10348,4.48991,0,1.18722.0041,4.12342.0041,4.12342s-.0041,2.88437-.0041,4.11544c0,3.57359,2.43818,4.50983,4.09949,4.50983,1.62944,0,4.10347-.93624,4.10347-4.50983,0-1.486-.00409-4.10346-.00409-4.10346Zm33.15051-.06773s-.0041,3.49792-.0041,4.90025c0,3.68915-2.17922,5.211-4.27478,5.211-2.09954,0-4.28674-1.52188-4.28674-5.211,0-1.40237.0041-4.98791.0041-4.98791s.008-3.42221.008-4.82458c0-3.67319,2.19119-5.18313,4.2748-5.18313,2.08758,0,4.27478,1.5099,4.27478,5.18313,0,1.40237-.0041,3.99592.008,4.92418ZM255.67846,29.573c-8.446,0-15.29043,5.81657-15.29043,12.99169s6.84841,12.99169,15.29043,12.99169c8.446,0,15.29044-5.81656,15.29044-12.99169S264.12445,29.573,255.67846,29.573ZM72.30885,26.601V19.48962H82.79462V26.601Zm.0239,27.68852V31.15065l10.46188.00411V54.2896Zm52.48865,0,.0041-23.091h-5.68909V27.76431l5.69308-.00411-.008-4.68514h10.46984v4.68113h5.66519v3.44213h-5.66519l.008,23.091Zm-95.0652,0,.004-34.7919H40.60053L55.59615,43.75989l-.008-24.26229H66.34487V54.2895H55.60411L40.52882,30.0272V54.2895Z"/>
</svg>
