<svg id="sega-mono" xmlns="http://www.w3.org/2000/svg" width="250" height="81" viewBox="0 0 250 81">
  <title>sega-mono</title>

    <path d="M.01322,80.71692l33.0337-.03349a24.38736,24.38736,0,1,0,0-48.77445l-8.579.04672a1.23717,1.23717,0,0,1,0-2.4742l32.97376.007L57.45485,19.144h-32.994a11.5416,11.5416,0,1,0,0,23.08313l8.6196.11371a13.95945,13.95945,0,1,1,0,27.91871H.02644L.01322,80.71692"/>
    <path d="M.02644,67.83116h33.054a11.535,11.535,0,1,0,0-23.06991l-8.6196-.09344a13.966,13.966,0,1,1,0-27.93192l32.994-.00706L57.44163,6.3446H24.46787a24.37769,24.37769,0,1,0,0,48.75505l8.53234.01322a1.1904,1.1904,0,1,1,0,2.38077l-32.987.02644L.02644,67.83116"/>
    <path d="M83.12589,70.32563A10.37323,10.37323,0,0,1,72.70022,59.92642V26.92709A10.36755,10.36755,0,0,1,83.12589,16.7024l35.26021.00617V6.3446H83.12589A20.7273,20.7273,0,0,0,62.35654,27.04079v32.8865A20.73875,20.73875,0,0,0,83.1259,80.63759l35.113.0141-.00705-10.3384-35.106.01234"/>
    <path d="M75.2282,27.04079a7.89562,7.89562,0,0,1,7.89769-7.91708H118.3861V29.50177H88.0073A2.40932,2.40932,0,0,0,85.54015,31.916h25.344V42.24738H75.21586l.01234-15.20659"/>
    <path d="M83.12589,67.81176A7.89543,7.89543,0,0,1,75.215,59.92729V44.70748H110.8833V55.06h-25.344a2.43652,2.43652,0,0,0,2.46715,2.446H118.238l-.007,10.29168-35.10508.0141"/>
    <path d="M143.0955,70.29919a10.39517,10.39517,0,0,1-10.37807-10.37277V27.03992a10.33513,10.33513,0,0,1,10.35074-10.33841h34.15136V6.3446H142.98884a20.72617,20.72617,0,0,0-20.76407,20.69619v32.8865a20.80618,20.80618,0,0,0,20.8434,20.7103l34.15136.0141V31.916H147.87025V42.24738h18.97738v28.0518H143.09548"/>
    <path d="M135.15108,59.92641a7.93513,7.93513,0,0,0,7.91709,7.94529h21.33171V44.69426H147.89581V55.06h6.12513l.01939,2.43365h-6.09779A2.43927,2.43927,0,0,1,145.5221,55.06l-.05464-23.151a2.43293,2.43293,0,0,1,2.44775-2.46714H177.231l-.01322-10.32518-34.15136.007a7.91666,7.91666,0,0,0-7.91709,7.91708V59.92641"/>
    <path d="M209.3101,18.96945a3.37758,3.37758,0,0,1,6.379,0l16.57812,48.97541H207.99235l.02644-11.52129h8.11189l-3.65181-10.85316L200.583,80.64288h-12.237L209.3101,18.96945"/>
    <path d="M235.60961,70.29919H208.0329V80.64288H250l-21.82619-64.576c-1.91274-6.29877-8.21766-10.93249-15.68169-10.93249-7.47549,0-13.761,4.61345-15.68786,10.90693L174.778,80.64376h10.98713L207.15059,17.8465a5.77817,5.77817,0,0,1,10.6522-.01322l17.80684,52.4659"/>
    <path d="M242.08994,14.56314a7.31441,7.31441,0,1,0-5.14938-2.1322,7.29156,7.29156,0,0,0,5.14938,2.1322m-6.27143-7.29567a6.18124,6.18124,0,0,1,1.83779-4.42659,6.26219,6.26219,0,1,1,0,8.85934A6.16791,6.16791,0,0,1,235.81851,7.26747Z"/>
    <path d="M240.21777,7.88271v3.43673h-1.05685V3.24193h3.00218a3.74147,3.74147,0,0,1,2.42133.48744,2.21753,2.21753,0,0,1,.86293,1.87306,2.1035,2.1035,0,0,1-1.92683,2.21329l2.2741,3.50372h-1.27721l-2.21328-3.43673h-2.08637m0-.88937h2.1463a3.99066,3.99066,0,0,0,.98368-.08021,1.23717,1.23717,0,0,0,1.01632-1.30365,1.40768,1.40768,0,0,0-.48215-1.13,2.30249,2.30249,0,0,0-1.57778-.34111h-2.08637Z"/>

</svg>
