<svg id="square-enix-mono" xmlns="http://www.w3.org/2000/svg" width="300" height="31" viewBox="0 0 300 31">
  <title>square-enix-mono</title>
  <path d="M38.13771,0a4.70774,4.70774,0,0,0-4.71806,4.71807V22.41082a4.70774,4.70774,0,0,0,4.71806,4.71807h6.29076v3.53855h5.89758V27.12889H57.01a4.70775,4.70775,0,0,0,4.71807-4.71807V4.71807A4.70775,4.70775,0,0,0,57.01,0Zm1.17952,4.71807H55.43729V22.01765H50.32605V19.26544H44.42847v2.75221H39.31723Z"/>
  <path d="M5.50441,0A4.70775,4.70775,0,0,0,.78634,4.71807v6.29075a4.70775,4.70775,0,0,0,4.71807,4.71807H23.59034v6.29076H0v.39317a4.70775,4.70775,0,0,0,4.71807,4.71807H23.98351a4.70775,4.70775,0,0,0,4.71807-4.71807v-7.0771a4.70775,4.70775,0,0,0-4.71807-4.71807H5.89758V4.71807H22.804v2.359h5.50442v-2.359A4.70775,4.70775,0,0,0,23.59034,0Z"/>
  <path d="M66.44612,0V22.41082a4.70775,4.70775,0,0,0,4.71807,4.71807H88.0706a4.70775,4.70775,0,0,0,4.71806-4.71807V0H86.89108V22.01765H72.3437V0H66.44612Z"/>
  <path d="M107.53262.39317,93.96818,27.12889h5.89758l2.99794-5.89759h15.23543l2.99794,5.89759h5.89758L113.43021.39317,113.23362,0h-5.50441Zm2.9488,5.81148,5.2343,10.30859H105.2475Z"/>
  <path d="M129.74686,0V27.12889h5.89758V16.90641h3.73514l9.82931,10.22248h7.86344L147.243,16.90641h2.94879a4.70775,4.70775,0,0,0,4.71807-4.71807V4.71807A4.70775,4.70775,0,0,0,150.19182,0h-20.445Zm5.89758,4.71807h11.79517a1.56925,1.56925,0,0,1,1.57269,1.57269v4.32489a1.56925,1.56925,0,0,1-1.57269,1.57269H135.64444Z"/>
  <path d="M160.02113,0V27.12889h22.804V22.01765H165.91871V4.71807h16.90641V0Z"/>
  <rect x="171.02995" y="10.61565" width="9.82931" height="5.11124"/>
  <path d="M195.40663,0V27.12889h22.804V22.01765H201.30422V4.71807h16.90641V0Z"/>
  <rect x="206.41546" y="10.61565" width="9.82931" height="5.11124"/>
  <path d="M222.9287,0V27.12889h5.50441V7.93736l14.1542,16.882.39317.46709,1.54831,1.84241h3.9561V0h-5.89758V18.25814l-14.1542-16.882L227.27836,0Z"/>
  <rect x="253.20296" width="6.29076" height="27.12889"/>
  <path d="M262.61472,0l11.80736,13.10994L262.5408,27.12889h7.07711l8.4532-9.96456,8.96944,9.96456h7.0771L281.49918,13.10994,292.61849,0h-7.07711l-7.69162,9.06773L269.69182,0Z"/>

    <path d="M296.49548,24.50468v1.258h-.51509V22.61283h.8904a1.46016,1.46016,0,0,1,.90188.22882.81987.81987,0,0,1,.293.68934.86179.86179,0,0,1-.61179.83773l.88944,1.394h-.58594l-.75348-1.258Zm0-.427h.35807a.81521.81521,0,0,0,.52084-.13308.48615.48615,0,0,0,.1618-.39637.42789.42789,0,0,0-.17521-.38392.9618.9618,0,0,0-.52466-.11585h-.34084Z"/>
    <path d="M299.7795,23.05419a2.91613,2.91613,0,0,0-.62837-.94993,2.87061,2.87061,0,0,0-.95615-.63854,3.01222,3.01222,0,0,0-1.14352-.21906,2.96024,2.96024,0,0,0-1.12681.21505,2.74732,2.74732,0,0,0-.93085.62657,3.02444,3.02444,0,0,0-.65176.9698,2.91292,2.91292,0,0,0-.22439,1.13173,2.86566,2.86566,0,0,0,.22248,1.11544,2.91594,2.91594,0,0,0,.64583.95131,2.97733,2.97733,0,0,0,.95323.64931,2.87762,2.87762,0,0,0,2.2343-.00538,3.16586,3.16586,0,0,0,.9777-.65194,2.73913,2.73913,0,0,0,.6322-.92983A2.93807,2.93807,0,0,0,300,24.18981,2.992,2.992,0,0,0,299.7795,23.05419Zm-.55219,2.03068a2.19151,2.19151,0,0,1-.50253.74152,2.404,2.404,0,0,1-.77269.51963,2.31463,2.31463,0,0,1-1.78552.00264,2.40654,2.40654,0,0,1-1.26935-1.27193,2.26144,2.26144,0,0,1-.1776-.88968,2.2997,2.2997,0,0,1,.18047-.89512,2.39139,2.39139,0,0,1,.51617-.77078,2.17935,2.17935,0,0,1,.74247-.50234,2.36305,2.36305,0,0,1,.90051-.1697,2.31408,2.31408,0,0,1,.89668.17371,2.339,2.339,0,0,1,.761.51437,2.27765,2.27765,0,0,1,.50342.7548,2.311,2.311,0,0,1,.17664.89506h.00006A2.33375,2.33375,0,0,1,299.22731,25.08487Z"/>
</svg>
