<svg id="ubisoft-mono" xmlns="http://www.w3.org/2000/svg" width="300" height="97" viewBox="0 0 300 97">
  <title>ubisoft-mono</title>

    <path d="M210.70259,36.1166l-1.27381-1.22949c.63737-.53048,1.18678-1.04214,1.78973-1.48011a18.854,18.854,0,0,1,8.34449-3.28841,19.561,19.561,0,0,1,9.5651.68826,17.21789,17.21789,0,0,1,11.72067,13.22987,19.26468,19.26468,0,0,1-1.41772,12.94714,16.69165,16.69165,0,0,1-11.56141,9.37308,19.10424,19.10424,0,0,1-15.70714-2.60736A16.075,16.075,0,0,1,205.01992,52.396,18.22,18.22,0,0,1,207.12835,40.338a15.23647,15.23647,0,0,1,3.29088-3.96712C210.51146,36.29066,210.60128,36.20764,210.70259,36.1166Zm5.53768,5.39583a30.73874,30.73874,0,0,0-2.15873,2.66545,9.62178,9.62178,0,0,0-1.28579,6.5423,9.69944,9.69944,0,0,0,3.25653,6.35316,10.29991,10.29991,0,0,0,7.5367,2.46975,9.69435,9.69435,0,0,0,9.0372-6.57535,13.22945,13.22945,0,0,0,.10139-8.84765,9.35831,9.35831,0,0,0-4.2291-5.40608,11.27652,11.27652,0,0,0-10.6968-.30288,8.24354,8.24354,0,0,0-2.73674,2.022Z"/>
    <path d="M138.52407,30.46313h.46232c3.885,0,7.77013-.01735,11.655.00609a14.08293,14.08293,0,0,1,7.36812,1.80122,7.65913,7.65913,0,0,1,3.89262,7.81105,11.09387,11.09387,0,0,1-.59469,2.67123,6.791,6.791,0,0,1-3.4968,3.81056c-.14457.07342-.28748.15011-.4488.23451.69369.35375,1.375.65739,2.01306,1.0341a8.3768,8.3768,0,0,1,4.26886,7.50079,9.84357,9.84357,0,0,1-2.71548,7.34874,11.2237,11.2237,0,0,1-6.13858,3.24066,22.43,22.43,0,0,1-3.93188.40543c-3.94.05148-7.88119.01853-11.82191.01853h-.51185Zm7.82538,29.04832c1.87905-.05021,3.726-.06016,5.56758-.16435a4.03213,4.03213,0,0,0,2.69958-1.1756,4.61914,4.61914,0,0,0,.95946-4.85845,3.77024,3.77024,0,0,0-3.59338-2.71939c-1.83758-.15662-3.69442-.08757-5.54287-.11513-.02327-.00035-.04689.02316-.09037.04609Zm.00747-22.08505v7.4428c1.61071,0,3.2001.09226,4.77425-.02318a3.46267,3.46267,0,0,0,3.31788-3.567,3.42739,3.42739,0,0,0-3.15282-3.82136C149.67389,37.30267,148.02493,37.4264,146.35692,37.4264Z"/>
    <path d="M104.98578,30.17712h7.82881v.54866q0,10.23744-.00073,20.47489a11.66979,11.66979,0,0,0,.459,3.37983,6.1765,6.1765,0,0,0,5.97834,4.65778,6.9236,6.9236,0,0,0,5.31467-1.63631,6.77277,6.77277,0,0,0,2.039-4.01967,17.34943,17.34943,0,0,0,.23976-2.78083c.01964-6.68562.01051-13.37132.01051-20.057v-.5606h7.80057v.44753q0,10.59263-.00251,21.18524a16.30626,16.30626,0,0,1-1.77882,7.68959,12.52579,12.52579,0,0,1-7.58378,6.329,17.68619,17.68619,0,0,1-10.73226.05745c-4.92221-1.522-7.85309-4.95106-9.08187-9.8973A18.1268,18.1268,0,0,1,104.986,51.608q-.00078-10.42548-.00023-20.851Z"/>
    <path d="M195.91577,40.73822a8.60349,8.60349,0,0,0-1.71479-2.56473,5.97838,5.97838,0,0,0-6.3665-1.1363,2.84576,2.84576,0,0,0-.81112,4.879,9.13421,9.13421,0,0,0,2.85342,1.70249c1.7891.727,3.60629,1.38461,5.39878,2.10354a16.36538,16.36538,0,0,1,3.71671,2.05021,8.67325,8.67325,0,0,1,3.62043,6.79326A11.02959,11.02959,0,0,1,193.334,66.63825a15.87374,15.87374,0,0,1-11.14479-1.68679,11.3496,11.3496,0,0,1-4.81993-5.5403c-.08389-.19529-.16683-.35178.0781-.53159,1.9637-1.44158,3.91606-2.89863,5.87289-4.34962a.47749.47749,0,0,1,.11634-.04383c.22382.45282.41117.9183.66953,1.34033a7.27626,7.27626,0,0,0,6.63519,3.8242,4.34624,4.34624,0,0,0,2.95917-1.07413,3.52221,3.52221,0,0,0-.36489-5.48747,13.89449,13.89449,0,0,0-3.342-1.77694c-1.53243-.6213-3.0878-1.19006-4.59838-1.86014a13.17232,13.17232,0,0,1-4.15387-2.825,9.05818,9.05818,0,0,1-2.55751-7.00719,9.19281,9.19281,0,0,1,5.58995-8.40306,14.674,14.674,0,0,1,13.42878.37647,9.72769,9.72769,0,0,1,4.29263,4.53346c.03074.06233.06156.12478.0881.18893a.739.739,0,0,1,.01812.1323Z"/>
    <path d="M267.52145,46.12059v5.98965H252.30418V66.32137h-7.7951v-35.825h24.5318v7.35382H252.338v8.27043Z"/>
    <path d="M289.97753,66.32483h-7.80669V37.87563H272.06735V30.48626H300V37.843H289.97753Z"/>
    <path d="M174.42918,66.32557h-7.75176V30.49046h7.75176Z"/>
    <path d="M46.46854,0c.47924.05053.95777.10954,1.43784.15035A49.49154,49.49154,0,0,1,76.563,12.04171,46.76839,46.76839,0,0,1,91.84461,37.00738,54.76407,54.76407,0,0,1,93.30147,48.3282a47.68092,47.68092,0,0,1-1.05075,11.94334,46.72119,46.72119,0,0,1-24.69847,31.637,45.52434,45.52434,0,0,1-15.102,4.55c-.87.10419-1.74494.16772-2.61719.254a1.82264,1.82264,0,0,0-.27214.069H43.71051a2.07493,2.07493,0,0,0-.266-.072c-2.06564-.28169-4.15492-.44616-6.19353-.86025A46.53154,46.53154,0,0,1,.15422,54.13019C.11328,53.637.05189,53.14549,0,52.6532V47.80576a2.39617,2.39617,0,0,0,.0699-.31113c.0859-.92809.14735-1.85886.253-2.78461a47.60284,47.60284,0,0,1,3.527-13.38243c.26572-.62173.54781-1.23647.82468-1.85975L.91063,26.77052a1.09605,1.09605,0,0,1,.04359-.13568A54.74036,54.74036,0,0,1,11.16611,13.189,46.69077,46.69077,0,0,1,40.18852.14347C40.639.10564,41.08789.04827,41.53752,0ZM12.92063,25.7298c.12215-.08466.24878-.1701.373-.25888a47.36642,47.36642,0,0,1,7.35945-4.33971,38.24874,38.24874,0,0,1,19.98062-3.72973,34.63714,34.63714,0,0,1,13.53657,4.04867,34.05155,34.05155,0,0,1,15.082,15.78,30.68427,30.68427,0,0,1,2.631,17.82285,30.66431,30.66431,0,0,1-3.97858,11.51409,24.90983,24.90983,0,0,1-26.364,11.98154A20.87383,20.87383,0,0,1,30.42638,72.734a20.19921,20.19921,0,0,1-5.87877-14.39148,21.99923,21.99923,0,0,1,2.71976-10.52093A17.81065,17.81065,0,0,1,30.2209,43.512l-.84208-.79621c-.03637.01894-.08644.04039-.13178.06927a20.99237,20.99237,0,0,0-7.80437,8.66719A22.94372,22.94372,0,0,0,19.46576,65.1582a26.20429,26.20429,0,0,0,7.35588,14.76894c5.48156,5.59717,12.29407,8.25895,20.01151,8.637a34.95622,34.95622,0,0,0,14.81527-2.60069A36.86012,36.86012,0,0,0,82.113,66.201a40.2284,40.2284,0,0,0,2.97522-23.6303A39.56427,39.56427,0,0,0,73.00186,19.74473,41.59206,41.59206,0,0,0,42.83221,8.15546,36.57159,36.57159,0,0,0,32.88181,9.706a36.34469,36.34469,0,0,0-20.23106,14.539c-.54719.79654-.5409.80106.18822,1.44205A.42139.42139,0,0,0,12.92063,25.7298ZM52.47337,62.68222c.10769-.1231.18923-.21435.26867-.30741a10.24811,10.24811,0,0,0,2.55319-8.27662,10.35527,10.35527,0,0,0-11.79245-8.82826,12.70565,12.70565,0,1,0,9.74009,22.58875A12.02,12.02,0,0,0,55.892,65.066Zm11.46206-17.962c-.01735-.076-.02767-.12917-.04169-.18138a23.20533,23.20533,0,0,0-3.51006-7.42848,28.962,28.962,0,0,0-44.34589-2.80284A28.32192,28.32192,0,0,0,9.297,61.9262c.24744.79046.54692,1.56464.82981,2.368.336-.11762.59158-.22744.85795-.2946.26139-.06591.30776-.21413.28151-.45548a27.12064,27.12064,0,0,1,.22535-6.66014,30.62108,30.62108,0,0,1,3.28564-10.19048A26.65544,26.65544,0,0,1,44.53772,32.994,31.3772,31.3772,0,0,1,62.21255,44.34334C62.89762,45.18246,62.88091,45.1961,63.93543,44.72021Z"/>

</svg>
