<svg id="svg2" xmlns="http://www.w3.org/2000/svg" width="275" height="75" viewBox="0 0 275 75">
  <title>valve</title>
  <path id="path13" d="M.01.24338,263.78578.452V75H0C0,50.28483.01.24338.01.24338ZM7.6043,8.25493V67.38082H256.1815V8.25493H7.6043"/>
  <path id="path15" d="M82.78789,15.85425H94.619l12.45692,43.93718H98.21l-2.96026-10.982H82.15709s-2.26987,8.8313-2.75165,10.76839c-2.63244.20861-9.07448,0-9.07448,0l12.45692-43.7236Zm5.702,7.40064L83.84087,41.831h9.7152L88.48986,23.2549"/>
  <path id="path17" d="M218.79086,15.85425H236.9597v5.70694H225.12364V27.889h10.77813v5.70694H225.12366v6.53641h11.83606v5.7119H218.58724Z"/>
  <path id="path19" d="M165.998,15.85425h8.8758l8.43873,32.74164,8.24-32.74164h8.87084L187.11214,59.79143h-7.81787Z"/>
  <path id="path21" d="M128.62222,15.85425h8.45362V52.39078H155.4334v7.39568H128.40863Z"/>
  <path id="path23" d="M23.01652,15.85425h8.67217l8.44369,33.15886,8.23011-33.15886h9.08938L44.13567,59.79142H36.1092Z"/>
  <path id="path25" d="M270.08874,0a4.32718,4.32718,0,0,1,4.29636,4.38575,4.33166,4.33166,0,1,1-8.66223,0A4.36476,4.36476,0,0,1,270.06392,0h.02482Zm-.04966.69536a3.6053,3.6053,0,0,0-3.50166,3.69039A3.58935,3.58935,0,0,0,270.06887,8.091a3.53745,3.53745,0,0,0,3.49171-3.67547A3.59535,3.59535,0,0,0,270.06887.69536h-.02978Zm-.81954,6.23341h-.7649V2.04635a9.04837,9.04837,0,0,1,1.37583-.11424,2.7099,2.7099,0,0,1,1.5149.36258,1.1642,1.1642,0,0,1,.44206,1.01324,1.22623,1.22623,0,0,1-.9437,1.197v.03477c.42714.07947.7202.47682.8245,1.17713a3.773,3.773,0,0,0,.303,1.207h-.81457a4.22021,4.22021,0,0,1-.31291-1.22682.90535.90535,0,0,0-1.043-.86422h-.54636v2.096h-.03479Zm0-2.697h.56622c.63575,0,1.18211-.23841,1.18211-.8394,0-.42715-.31291-.8543-1.18211-.8543a3.25208,3.25208,0,0,0-.56622.03974v1.654"/>
</svg>
